<svg width="16" height="17" viewBox="0 0 16 17" fill="none" xmlns="http://www.w3.org/2000/svg">
<path d="M8.00005 1.58106C7.493 1.57982 7.00441 1.77121 6.63312 2.11651C6.26182 2.46182 6.03554 2.93526 6.00005 3.44106C5.11771 3.76653 4.32886 4.30381 3.70287 5.00566C3.07688 5.7075 2.63292 6.5524 2.41005 7.46606C2.39298 7.53111 2.3892 7.59893 2.39894 7.66546C2.40869 7.732 2.43176 7.79589 2.46677 7.85331C2.50178 7.91072 2.54801 7.96049 2.6027 7.99962C2.65739 8.03875 2.71941 8.06645 2.78505 8.08106C2.8232 8.08627 2.86189 8.08627 2.90005 8.08106C3.01494 8.08413 3.12739 8.04753 3.21846 7.97741C3.30953 7.90728 3.37365 7.80793 3.40005 7.69606C3.57729 6.97126 3.92331 6.29861 4.4099 5.73295C4.89649 5.16729 5.50988 4.72463 6.20005 4.44106C6.354 4.76429 6.59189 5.04027 6.8889 5.24019C7.1859 5.44011 7.53112 5.55664 7.88853 5.57762C8.24594 5.59859 8.60242 5.52325 8.92077 5.35944C9.23912 5.19563 9.50766 4.94937 9.69837 4.64637C9.88907 4.34336 9.99494 3.99472 10.0049 3.63684C10.0149 3.27896 9.92865 2.92496 9.75514 2.61179C9.58163 2.29862 9.32724 2.03777 9.01852 1.85647C8.7098 1.67516 8.35807 1.58005 8.00005 1.58106ZM8.00005 4.58106C7.80227 4.58106 7.60893 4.52241 7.44448 4.41253C7.28003 4.30265 7.15186 4.14647 7.07617 3.96375C7.00048 3.78102 6.98068 3.57995 7.01926 3.38597C7.05785 3.19199 7.15309 3.01381 7.29294 2.87396C7.43279 2.7341 7.61098 2.63886 7.80496 2.60028C7.99894 2.56169 8.20001 2.5815 8.38273 2.65718C8.56546 2.73287 8.72164 2.86104 8.83152 3.02549C8.9414 3.18994 9.00005 3.38328 9.00005 3.58106C9.00005 3.84628 8.89469 4.10063 8.70715 4.28817C8.51962 4.47571 8.26526 4.58106 8.00005 4.58106ZM13.745 8.73106C13.7343 7.79234 13.4912 6.87091 13.0375 6.04904C12.5838 5.22716 11.9336 4.53044 11.145 4.02106C11.09 3.98138 11.0274 3.95333 10.9611 3.93863C10.8948 3.92392 10.8262 3.92287 10.7595 3.93553C10.6928 3.94819 10.6294 3.9743 10.5731 4.01227C10.5169 4.05024 10.4689 4.09927 10.4322 4.15638C10.3955 4.21348 10.3708 4.27747 10.3596 4.34443C10.3484 4.41139 10.351 4.47993 10.3672 4.54586C10.3834 4.6118 10.4128 4.67375 10.4537 4.72794C10.4946 4.78213 10.5461 4.82742 10.605 4.86106C11.2317 5.26604 11.7524 5.81498 12.1238 6.46208C12.4952 7.10919 12.7065 7.83571 12.74 8.58106C12.2575 8.64198 11.8136 8.87669 11.4916 9.24124C11.1696 9.60579 10.9914 10.0752 10.9905 10.5616C10.9896 11.048 11.166 11.5181 11.4867 11.8838C11.8074 12.2496 12.2504 12.4859 12.7327 12.5486C13.2151 12.6113 13.7037 12.4961 14.1073 12.2245C14.5108 11.9529 14.8015 11.5436 14.925 11.0731C15.0485 10.6026 14.9963 10.1033 14.7782 9.6685C14.5601 9.23373 14.191 8.89335 13.74 8.71106L13.745 8.73106ZM13 11.5811C12.8023 11.5811 12.6089 11.5224 12.4445 11.4125C12.28 11.3026 12.1519 11.1465 12.0762 10.9637C12.0005 10.781 11.9807 10.58 12.0193 10.386C12.0578 10.192 12.1531 10.0138 12.2929 9.87395C12.4328 9.7341 12.611 9.63886 12.805 9.60028C12.9989 9.56169 13.2 9.58149 13.3827 9.65718C13.5655 9.73287 13.7216 9.86104 13.8315 10.0255C13.9414 10.1899 14 10.3833 14 10.5811C14 10.8463 13.8947 11.1006 13.7072 11.2882C13.5196 11.4757 13.2653 11.5811 13 11.5811ZM11.605 12.6711C11.5649 12.6186 11.5147 12.5746 11.4574 12.5416C11.4001 12.5086 11.3369 12.4874 11.2713 12.479C11.2058 12.4706 11.1392 12.4753 11.0755 12.4929C11.0117 12.5104 10.9521 12.5404 10.9 12.5811C10.0472 13.2539 8.98604 13.6076 7.90005 13.5811C7.23629 13.5736 6.58156 13.4264 5.97851 13.149C5.37545 12.8716 4.83762 12.4702 4.40005 11.9711C4.72166 11.6382 4.91785 11.204 4.95516 10.7426C4.99248 10.2813 4.8686 9.82125 4.60466 9.44099C4.34072 9.06074 3.95305 8.78381 3.50776 8.65743C3.06247 8.53104 2.58713 8.56302 2.16278 8.74792C1.73844 8.93281 1.39136 9.25917 1.18073 9.67135C0.970103 10.0835 0.908965 10.556 1.00774 11.0082C1.10652 11.4604 1.35909 11.8644 1.7224 12.1512C2.08571 12.438 2.53725 12.5899 3.00005 12.5811C3.19319 12.5809 3.38526 12.5523 3.57005 12.4961C4.09733 13.1369 4.75774 13.6553 5.50545 14.0154C6.25316 14.3754 7.07026 14.5684 7.90005 14.5811H8.00005C9.26764 14.5762 10.4981 14.1525 11.5 13.3761C11.5537 13.337 11.599 13.2877 11.6334 13.2309C11.6677 13.1742 11.6905 13.1112 11.7002 13.0456C11.71 12.9799 11.7066 12.913 11.6903 12.8487C11.6739 12.7844 11.645 12.724 11.605 12.6711ZM2.00005 10.5811C2.00005 10.3833 2.0587 10.1899 2.16858 10.0255C2.27846 9.86104 2.43464 9.73287 2.61736 9.65718C2.80009 9.58149 3.00116 9.56169 3.19514 9.60028C3.38912 9.63886 3.5673 9.7341 3.70715 9.87395C3.84701 10.0138 3.94225 10.192 3.98083 10.386C4.01942 10.58 3.99962 10.781 3.92393 10.9637C3.84824 11.1465 3.72007 11.3026 3.55562 11.4125C3.39117 11.5224 3.19783 11.5811 3.00005 11.5811C2.73483 11.5811 2.48048 11.4757 2.29294 11.2882C2.1054 11.1006 2.00005 10.8463 2.00005 10.5811Z"/>
</svg>
