<svg width="73" height="77" viewBox="0 0 73 77" fill="none" xmlns="http://www.w3.org/2000/svg">
<g opacity="0.24" filter="url(#filter0_f_2_8394)">
<ellipse rx="23.961" ry="30.1224" transform="matrix(-0.866025 -0.5 -0.5 0.866025 36.6254 38.1664)" fill="#BA7017"/>
<ellipse rx="22.1354" ry="30.1224" transform="matrix(-0.866025 -0.5 -0.5 0.866025 35.047 37.255)" fill="#F7931A"/>
<path fill-rule="evenodd" clip-rule="evenodd" d="M19.9821 63.3408C9.39492 57.2283 7.55543 40.5937 15.8735 26.1863C24.1916 11.779 39.5173 5.05476 50.1045 11.1673C60.6917 17.2798 62.5312 33.9144 54.2132 48.3218C45.8951 62.7291 30.5693 69.4533 19.9821 63.3408ZM22.4953 58.9934C13.6726 53.8996 12.1397 40.0375 19.0715 28.0313C26.0032 16.0252 38.7746 10.4217 47.5973 15.5155C56.42 20.6092 57.9529 34.4714 51.0212 46.4775C44.0894 58.4836 31.318 64.0872 22.4953 58.9934Z" fill="#F8A43D"/>
<path d="M29.0491 30.2826C30.3653 27.277 32.8413 26.6823 35.6131 26.9322L37.1124 22.6969L39.1796 23.1166L37.7198 27.2402C38.2632 27.3506 38.814 27.4767 39.3611 27.6024L40.8302 23.4514L42.8964 23.8705L41.3983 28.1047C41.8419 28.207 42.2778 28.3065 42.7062 28.3938L42.7112 28.3807L45.5629 28.958L44.5877 31.7113C44.5877 31.7113 43.0739 31.3653 43.0869 31.4055C42.2494 31.2359 41.7623 31.7868 41.4978 32.2939L39.7897 37.1187C39.7318 37.1074 39.6553 37.0951 39.5648 37.0923C39.6336 37.1064 39.7076 37.1208 39.7831 37.137L37.3909 43.8963C37.3113 44.2324 37.2807 44.7878 37.8653 44.9077C37.8285 44.9316 39.3683 45.2121 39.3683 45.2121L38.6892 48.3743L35.9989 47.8283C35.498 47.7275 35.0017 47.6381 34.5167 47.5438L32.9995 51.8271L30.9342 51.4086L32.4346 47.1703C31.8624 47.0699 31.3117 46.9642 30.7762 46.8549L29.2837 51.0738L27.2165 50.6541L28.7295 46.378C25.3419 45.4242 23.2958 43.8388 24.4345 39.7074C25.3507 36.3807 27.1047 35.1692 29.2867 34.9787C28.3576 33.9744 28.0829 32.4813 29.0491 30.2826ZM28.6991 40.0286C27.5648 43.2295 32.0891 43.7571 33.4896 44.0431L35.4981 38.3676C34.0964 38.0836 29.8808 36.6898 28.6991 40.0286ZM32.4951 32.2165C31.4648 35.129 35.2508 35.5328 36.4178 35.7697L38.2397 30.6224C37.0728 30.3855 33.5706 29.1789 32.4951 32.2165Z" fill="white"/>
</g>
<defs>
<filter id="filter0_f_2_8394" x="6.86192" y="5.10765" width="59.2075" height="65.5738" filterUnits="userSpaceOnUse" color-interpolation-filters="sRGB">
<feFlood flood-opacity="0" result="BackgroundImageFix"/>
<feBlend mode="normal" in="SourceGraphic" in2="BackgroundImageFix" result="shape"/>
<feGaussianBlur stdDeviation="1.90083" result="effect1_foregroundBlur_2_8394"/>
</filter>
</defs>
</svg>
