<svg width="16" height="10" viewBox="0 0 16 10" fill="none" xmlns="http://www.w3.org/2000/svg">
<g clip-path="url(#clip0_1_180)">
<path d="M10.5167 4.99293C10.1074 4.99293 9.73301 4.78886 9.52404 4.4705L7.99157 2.0869L6.45911 4.46234C6.25013 4.78069 5.86702 4.98477 5.46649 4.98477C5.35329 4.98477 5.24881 4.96844 5.14432 4.93579L1.87912 4.05419V8.0214C1.87912 8.34792 2.11421 8.63363 2.4538 8.7071L7.59975 9.90706C7.83484 9.95604 8.09606 9.95604 8.33116 9.90706L13.4771 8.69893C13.808 8.6173 14.0518 8.3316 14.0518 8.00508V4.0297L10.7866 4.89498C10.6821 4.91946 10.5689 4.93579 10.4644 4.93579L10.5167 4.99293ZM15.5755 2.48689L14.3478 0.184923C14.2695 0.0461524 14.1127 -0.0354776 13.9473 -0.0191516L7.99157 0.691029L10.1684 4.07868C10.2554 4.21745 10.4383 4.28275 10.6037 4.23377L15.3143 2.96851C15.5494 2.9032 15.6626 2.65015 15.5494 2.44607L15.5755 2.48689ZM1.64403 0.184923L0.416311 2.47873C0.303117 2.6828 0.416311 2.92769 0.651405 2.98483L5.362 4.24193C5.52744 4.28275 5.71029 4.21745 5.79736 4.07868L7.98287 0.682865L2.01844 -0.035478C1.853 -0.059967 1.69627 0.0216628 1.6179 0.160434L1.64403 0.184923Z"/>
</g>
<defs>
<clipPath id="clip0_1_180">
<rect width="16" height="10" fill="white"/>
</clipPath>
</defs>
</svg>
