<svg width="18" height="18" viewBox="0 0 18 18" fill="none" xmlns="http://www.w3.org/2000/svg">
<path d="M4.5 16.875C4.41731 16.875 4.33406 16.8564 4.25588 16.8193C4.06181 16.7254 3.9375 16.5291 3.9375 16.3125V13.5H2.25C1.31962 13.5 0.5625 12.7429 0.5625 11.8125V2.8125C0.5625 1.88212 1.31962 1.125 2.25 1.125H15.75C16.6804 1.125 17.4375 1.88212 17.4375 2.8125V11.8125C17.4375 12.7429 16.6804 13.5 15.75 13.5H8.91619L4.85156 16.7518C4.74975 16.8334 4.62544 16.875 4.5 16.875ZM2.25 2.25C1.9395 2.25 1.6875 2.50256 1.6875 2.8125V11.8125C1.6875 12.1224 1.9395 12.375 2.25 12.375H4.5C4.81106 12.375 5.0625 12.6264 5.0625 12.9375V15.1425L8.36719 12.4982C8.46731 12.4183 8.5905 12.375 8.71875 12.375H15.75C16.0605 12.375 16.3125 12.1224 16.3125 11.8125V2.8125C16.3125 2.50256 16.0605 2.25 15.75 2.25H2.25Z"/>
<path d="M13.5 6.75H4.5C4.18894 6.75 3.9375 6.498 3.9375 6.1875C3.9375 5.877 4.18894 5.625 4.5 5.625H13.5C13.8111 5.625 14.0625 5.877 14.0625 6.1875C14.0625 6.498 13.8111 6.75 13.5 6.75Z"/>
<path d="M9 9H4.5C4.18894 9 3.9375 8.748 3.9375 8.4375C3.9375 8.127 4.18894 7.875 4.5 7.875H9C9.31106 7.875 9.5625 8.127 9.5625 8.4375C9.5625 8.748 9.31106 9 9 9Z"/>
</svg>
