<svg width="12" height="13" viewBox="0 0 12 13" fill="none" xmlns="http://www.w3.org/2000/svg">
<path d="M5.73093 1.30292C4.59746 1.30292 3.48944 1.6382 2.547 2.26636C1.60455 2.89451 0.870003 3.78734 0.436243 4.83193C0.00248309 5.87652 -0.111008 7.02596 0.110121 8.13489C0.33125 9.24383 0.877067 10.2624 1.67855 11.0619C2.48004 11.8614 3.50119 12.4059 4.61288 12.6265C5.72457 12.8471 6.87687 12.7339 7.92406 12.3012C8.97125 11.8685 9.86629 11.1358 10.496 10.1957C11.1257 9.25554 11.4619 8.15028 11.4619 7.01962C11.4619 5.50346 10.8581 4.04939 9.7833 2.9773C8.70854 1.90521 7.25086 1.30292 5.73093 1.30292ZM5.73093 11.4659C4.84934 11.4659 3.98755 11.2052 3.25454 10.7166C2.52152 10.228 1.95021 9.53362 1.61284 8.72116C1.27547 7.9087 1.1872 7.01469 1.35919 6.15219C1.53118 5.28968 1.9557 4.49742 2.57908 3.87559C3.20246 3.25376 3.99669 2.83029 4.86133 2.65873C5.72598 2.48717 6.62221 2.57522 7.43669 2.91175C8.25117 3.24828 8.94732 3.81818 9.43711 4.54938C9.92689 5.28057 10.1883 6.14022 10.1883 7.01962C10.1883 8.19886 9.7187 9.3298 8.88277 10.1636C8.04685 10.9975 6.9131 11.4659 5.73093 11.4659ZM7.92778 1.19493C7.8497 1.15316 7.78123 1.09559 7.72673 1.0259C7.67223 0.956222 7.63291 0.875961 7.61128 0.790254C7.58965 0.704548 7.58618 0.615281 7.60111 0.528164C7.61604 0.441047 7.64903 0.357997 7.69797 0.284323C7.74691 0.21065 7.81073 0.147975 7.88534 0.100307C7.95995 0.0526393 8.04371 0.0210273 8.13126 0.00749253C8.21882 -0.0060422 8.30824 -0.00120168 8.39382 0.0217046C8.47939 0.0446108 8.55923 0.0850787 8.62823 0.14052L10.5385 1.4109C10.6515 1.48659 10.7371 1.59636 10.7829 1.72414C10.8288 1.85192 10.8324 1.99098 10.7932 2.12095C10.7541 2.25092 10.6742 2.36496 10.5653 2.44636C10.4565 2.52776 10.3244 2.57225 10.1883 2.5733C10.0631 2.57472 9.94064 2.53696 9.83809 2.46531L7.92778 1.19493ZM0.745023 2.28746C0.652863 2.14742 0.61989 1.97674 0.653283 1.81257C0.686676 1.6484 0.783731 1.50403 0.923318 1.4109L2.83363 0.14052C2.90263 0.0850787 2.98247 0.0446108 3.06804 0.0217046C3.15361 -0.00120168 3.24304 -0.0060422 3.33059 0.00749253C3.41815 0.0210273 3.50191 0.0526393 3.57651 0.100307C3.65112 0.147975 3.71494 0.21065 3.76388 0.284323C3.81282 0.357997 3.84581 0.441047 3.86074 0.528164C3.87567 0.615281 3.87221 0.704548 3.85058 0.790254C3.82895 0.875961 3.78963 0.956222 3.73513 1.0259C3.68063 1.09559 3.61215 1.15316 3.53407 1.19493L1.62376 2.46531C1.52122 2.53696 1.39873 2.57472 1.27354 2.5733C1.16866 2.57275 1.06554 2.54638 0.973336 2.49651C0.881134 2.44665 0.802706 2.37484 0.745023 2.28746ZM7.45657 7.83902C7.51625 7.89806 7.56363 7.96832 7.59595 8.04572C7.62828 8.12312 7.64493 8.20615 7.64493 8.29C7.64493 8.37385 7.62828 8.45687 7.59595 8.53428C7.56363 8.61168 7.51625 8.68194 7.45657 8.74098C7.39738 8.80052 7.32695 8.84777 7.24935 8.88002C7.17176 8.91227 7.08853 8.92887 7.00447 8.92887C6.9204 8.92887 6.83717 8.91227 6.75958 8.88002C6.68198 8.84777 6.61156 8.80052 6.55236 8.74098L5.27882 7.47061C5.2198 7.41125 5.17311 7.34086 5.14142 7.26347C5.10974 7.18608 5.09367 7.10322 5.09416 7.01962V4.47886C5.09416 4.3104 5.16125 4.14884 5.28066 4.02972C5.40008 3.9106 5.56205 3.84367 5.73093 3.84367C5.89981 3.84367 6.06177 3.9106 6.18119 4.02972C6.30061 4.14884 6.3677 4.3104 6.3677 4.47886V6.75919L7.45657 7.83902Z" fill="#EA2E32"/>
</svg>
