<svg width="26" height="16" viewBox="0 0 26 16" fill="none" xmlns="http://www.w3.org/2000/svg">
<g clip-path="url(#clip0_2_3266)">
<path d="M21.3848 10.0007V11.0529C21.3848 11.2773 21.3536 11.4978 21.2931 11.7145C21.1976 12.053 21.0299 12.3799 20.7959 12.6932C20.5619 13.0066 20.2616 13.3045 19.9047 13.585C19.8813 13.6043 19.856 13.6217 19.8326 13.6411C19.2808 14.0569 18.6002 14.4283 17.8182 14.7378C17.3814 14.9119 16.9134 15.0667 16.4201 15.2001C15.0687 15.5657 13.5204 15.7727 11.8746 15.7727C11.1882 15.7727 10.5194 15.7359 9.87395 15.6682C8.8775 15.5619 7.9376 15.38 7.0835 15.1324C5.426 14.6527 4.0883 13.9312 3.2654 13.0646C2.8481 12.6255 2.5634 12.1497 2.43665 11.6487C2.43665 11.6468 2.4347 11.6448 2.4347 11.641C2.38595 11.4495 2.36255 11.2541 2.36255 11.0549V10.0026L2.5439 10.1341C2.65895 9.84591 2.82665 9.56737 3.0431 9.30043C3.29465 8.989 3.61055 8.69498 3.98105 8.42224C4.3613 8.14176 4.802 7.88256 5.29145 7.65044C7.0016 6.83803 9.32015 6.33704 11.8746 6.33704C16.4942 6.33704 20.3454 7.96961 21.2054 10.1361L21.3848 10.0007Z" fill="#890707"/>
<path d="M20.482 9.04125L19.9925 9.15537L18.9083 9.40877C18.9473 9.45132 18.9883 9.49194 19.0253 9.5345C19.2242 9.76468 19.3802 10.0065 19.4855 10.2579C19.5284 10.3624 19.5635 10.4668 19.5908 10.5732L20.7823 10.4997L21.3127 10.4668C21.1879 9.96972 20.9071 9.48808 20.482 9.04125ZM13.8734 6.43958L13.7603 6.70071L13.5068 7.28294C13.9397 7.32937 14.3609 7.39127 14.7646 7.47251C15.1195 7.54214 15.4607 7.62532 15.7864 7.7201L16.3889 7.2075L16.6619 6.97538C15.7961 6.72392 14.8562 6.54403 13.8734 6.43958ZM6.26454 7.57889L5.92719 7.36999C5.65614 7.47831 5.39484 7.59437 5.14524 7.71817C4.67919 7.94835 4.26774 8.19981 3.91284 8.46675L4.36524 8.61376L5.36754 8.93873C5.66004 8.71821 5.99739 8.51317 6.37179 8.32554C6.57459 8.22496 6.78909 8.13018 7.01334 8.0412L6.26454 7.57889Z" fill="url(#paint0_linear_2_3266)"/>
<path d="M21.3848 10.0007C21.3848 10.2251 21.3536 10.4456 21.2931 10.6622C21.1976 11.0007 21.0299 11.3296 20.7959 11.641C20.5619 11.9544 20.2616 12.2542 19.9047 12.5327C19.0389 13.2059 17.8397 13.7649 16.4201 14.1479C15.0687 14.5135 13.5204 14.7204 11.8746 14.7204C7.02695 14.7204 3.02555 12.9215 2.43665 10.5945C2.3879 10.4011 2.36255 10.2019 2.36255 10.0026C2.36255 9.38363 2.60435 8.78979 3.04115 8.24818C3.2927 7.93675 3.6086 7.64274 3.9791 7.37C4.35935 7.08952 4.80005 6.83032 5.2895 6.5982C6.99965 5.78578 9.3182 5.28479 11.8727 5.28479C17.124 5.28286 21.3848 7.39514 21.3848 10.0007Z" fill="url(#paint1_radial_2_3266)"/>
<path d="M4.72021 11.5191C4.52131 11.289 4.36531 11.0472 4.26001 10.7957C4.21711 10.6913 4.18201 10.5868 4.15471 10.4804L2.96326 10.5539L2.43286 10.5868C2.55571 11.0839 2.83651 11.5636 3.26356 12.0124L3.75301 11.8983L4.83721 11.6449C4.79626 11.6043 4.75726 11.5617 4.72021 11.5191ZM19.3784 12.4418L18.3761 12.1169C18.0836 12.3374 17.7462 12.5424 17.3718 12.73C17.169 12.8306 16.9545 12.9254 16.7303 13.0144L17.4791 13.4786L17.8164 13.6875C18.0875 13.5792 18.3488 13.4631 18.5984 13.3394C19.0644 13.1092 19.4759 12.8577 19.8288 12.5908L19.3784 12.4418ZM8.97901 13.5831C8.62411 13.5134 8.28286 13.4303 7.95526 13.3355L7.35271 13.8481L7.08166 14.0802C7.94746 14.3317 8.88736 14.5116 9.87211 14.616L9.98521 14.3549L10.2387 13.7726C9.80191 13.7262 9.38266 13.6624 8.97901 13.5831ZM20.4821 7.989L19.9926 8.10313L18.9084 8.35652C18.9474 8.39908 18.9884 8.4397 19.0254 8.48225C19.2243 8.71244 19.3803 8.95423 19.4856 9.20569C19.5285 9.31015 19.5636 9.4146 19.5909 9.52099L20.7824 9.44748L21.3128 9.4146C21.188 8.91555 20.9072 8.43583 20.4821 7.989ZM13.8735 5.38733L13.7604 5.64846L13.5069 6.2307C13.9398 6.27712 14.361 6.33902 14.7647 6.42026C15.1196 6.4899 15.4608 6.57307 15.7865 6.66785L16.389 6.15526L16.662 5.92314C15.7962 5.67168 14.8563 5.48985 13.8735 5.38733ZM6.26461 6.52472L5.92726 6.31581C5.65621 6.42413 5.39491 6.54019 5.14531 6.66399C4.67926 6.89417 4.26781 7.14563 3.91291 7.41257L4.36531 7.55958L5.36761 7.88455C5.66011 7.66403 5.99746 7.459 6.37186 7.27137C6.57466 7.17078 6.78916 7.076 7.01341 6.98702L6.26461 6.52472Z" fill="url(#paint2_linear_2_3266)"/>
<path d="M17.4749 11.8131C17.2214 12.0066 16.9289 12.1845 16.6013 12.347C16.2913 12.4998 15.95 12.6391 15.5854 12.761C15.2461 12.8732 14.8834 12.9718 14.5031 13.0531C14.1034 13.1382 13.6841 13.2039 13.2493 13.2504C12.8047 13.2968 12.3425 13.3219 11.8706 13.3219C11.4221 13.3219 10.9853 13.2987 10.5622 13.2581C10.1546 13.2175 9.76072 13.1594 9.38242 13.084C8.97292 13.0028 8.58292 12.9002 8.21632 12.7822C7.82827 12.6565 7.46557 12.5114 7.13992 12.349C6.82987 12.1961 6.55102 12.0259 6.30532 11.8441C6.07717 11.6758 5.88022 11.4959 5.71642 11.3083C5.54482 11.111 5.41027 10.9021 5.31862 10.6874C5.22502 10.4669 5.17432 10.2386 5.17432 10.0026C5.17432 9.78017 5.21917 9.56352 5.30302 9.35268C5.38492 9.14958 5.50387 8.95421 5.65597 8.76658C5.82172 8.56348 6.02452 8.37005 6.26437 8.18822C6.51787 7.99479 6.81037 7.81683 7.13797 7.65434C7.44802 7.50153 7.78927 7.36226 8.15392 7.2404C8.49322 7.12821 8.85592 7.02956 9.23617 6.94831C9.63592 6.8632 10.0552 6.79744 10.49 6.75101C10.9346 6.70459 11.3968 6.67944 11.8687 6.67944C12.3172 6.67944 12.754 6.70266 13.1771 6.74328C13.5847 6.7839 13.9786 6.84193 14.3569 6.91737C14.7664 6.99861 15.1564 7.10113 15.523 7.21912C15.911 7.34485 16.2737 7.48993 16.5994 7.65241C16.9094 7.80522 17.1883 7.97544 17.434 8.15727C17.6621 8.32556 17.8591 8.50545 18.0229 8.69308C18.1945 8.89038 18.329 9.09929 18.4187 9.314C18.5123 9.53451 18.563 9.76276 18.563 9.99875C18.563 10.2212 18.5182 10.4378 18.4343 10.6487C18.3524 10.8518 18.2335 11.0472 18.0814 11.2348C17.9195 11.4379 17.7148 11.6313 17.4749 11.8131Z" fill="#E01E43"/>
<path d="M11.8708 13.5812C15.8576 13.5812 19.0897 11.9782 19.0897 10.0007C19.0897 8.02331 15.8576 6.42029 11.8708 6.42029C7.88387 6.42029 4.65186 8.02331 4.65186 10.0007C4.65186 11.9782 7.88387 13.5812 11.8708 13.5812Z" fill="url(#paint3_radial_2_3266)"/>
<path d="M15.0942 12.4263C15.1527 12.4611 15.1839 12.4959 15.1995 12.5172C15.2229 12.4688 15.258 12.3779 15.2502 12.2657C15.2444 12.1845 15.2171 12.0916 15.1488 11.9911C15.0045 11.7841 14.7491 11.6545 14.6204 11.5964C14.6906 11.6003 14.7959 11.61 14.9109 11.6351C15.0201 11.6603 15.0981 11.6912 15.1488 11.7144C15.1488 11.7144 15.2288 11.3856 14.6457 11.1496C14.0646 10.9136 14.09 10.7028 14.012 10.3217C13.9925 9.98902 14.6009 9.61183 14.9636 9.4242C15.1683 9.31781 15.2288 9.15726 15.0981 9.02379C15.0767 9.00058 15.0494 8.9793 15.0162 8.95609C14.79 8.79554 14.4585 8.75492 14.3825 8.74525C14.4098 8.75879 14.4624 8.78974 14.4878 8.83809C14.519 8.89226 14.4975 8.93674 14.4878 8.95609C14.1446 9.12631 13.6415 9.13985 13.6415 9.13985C13.6415 9.13985 14.2752 8.66594 14.3552 8.29842C14.3883 8.14367 14.2733 7.92316 13.8267 7.65428C13.7682 7.59239 13.6395 7.55757 13.5108 7.56337C13.3626 7.56917 13.2378 7.62914 13.2203 7.70845L11.2898 8.70656C11.2898 8.70656 10.2855 8.70656 9.72977 9.00832C9.20912 9.29266 8.24972 9.74336 8.24972 9.74336H8.59292C8.27897 9.87876 7.91042 10.0219 7.48142 10.1631C7.10117 10.2888 6.73457 10.3933 6.39722 10.4784C6.52397 10.5519 6.75602 10.666 7.11092 10.755C7.50287 10.8517 7.86167 10.8711 8.06252 10.873C8.06252 10.9678 8.03717 11.1516 7.82462 11.3469C7.69007 11.4707 7.52432 11.5558 7.40147 11.61C7.44242 11.6197 7.52822 11.6371 7.63937 11.6371C7.73687 11.6351 7.81097 11.6197 7.85192 11.61C7.76222 11.7435 7.58477 11.9485 7.23767 12.1593C7.08947 12.2483 6.93737 12.3218 6.79112 12.3837C8.03132 13.0685 9.83117 13.4998 11.8338 13.4998C13.0487 13.4998 14.1875 13.3412 15.1742 13.0646C15.1644 12.964 15.1469 12.8441 15.1137 12.7338C15.0923 12.6603 15.0533 12.5365 14.9499 12.3818C14.9441 12.374 14.9402 12.3663 14.9363 12.3624C14.946 12.3663 14.9597 12.3702 14.9733 12.374C15.0084 12.3837 15.0513 12.4011 15.0942 12.4263ZM10.2231 9.53252L10.6112 9.08375L11.2976 9.02572C10.9407 9.19401 10.5819 9.36423 10.2231 9.53252Z" fill="url(#paint4_radial_2_3266)"/>
<path d="M14.9711 12.3722C14.9574 12.3684 14.9457 12.3645 14.934 12.3606C14.9379 12.3645 14.9418 12.3722 14.9477 12.38C15.051 12.5347 15.0881 12.6585 15.1115 12.732C15.1447 12.8442 15.1641 12.9622 15.1719 13.0628C14.1872 13.3413 13.0464 13.498 11.8316 13.498C11.3733 13.498 10.9268 13.4748 10.4958 13.4322C12.3717 13.115 13.6041 12.3393 13.3175 11.2445C13.0913 10.3779 14.3588 9.80537 14.3783 9.78796C14.3178 9.84986 13.9903 10.0723 14.0098 10.3218C14.0897 10.7029 14.0624 10.9137 14.6435 11.1497C15.2246 11.3857 15.1466 11.7146 15.1466 11.7146C15.0959 11.6913 15.0179 11.6604 14.9087 11.6352C14.7936 11.6082 14.6883 11.5985 14.6181 11.5966C14.7488 11.6546 15.0023 11.7823 15.1466 11.9912C15.2148 12.0898 15.2441 12.1846 15.248 12.2658C15.2558 12.378 15.2207 12.4689 15.1993 12.5173C15.1837 12.4941 15.1524 12.4612 15.0939 12.4264C15.051 12.4012 15.0081 12.3838 14.9711 12.3722Z" fill="url(#paint5_radial_2_3266)"/>
<path d="M11.8708 13.6334C7.83238 13.6334 4.54663 12.0047 4.54663 10.0007C4.54663 7.99868 7.83238 6.36804 11.8708 6.36804C15.9093 6.36804 19.195 7.99675 19.195 10.0007C19.195 12.0027 15.9093 13.6334 11.8708 13.6334ZM11.8708 6.63305C8.12683 6.63305 5.08093 8.14376 5.08093 10.0007C5.08093 11.8577 8.12683 13.3684 11.8708 13.3684C15.6148 13.3684 18.6607 11.8577 18.6607 10.0007C18.6607 8.14376 15.6148 6.63305 11.8708 6.63305Z" fill="url(#paint6_linear_2_3266)"/>
<path d="M9.87004 14.6141V15.6663C8.87359 15.56 7.93369 15.3781 7.07959 15.1305V14.0802H7.08154C7.93369 14.3278 8.87164 14.5096 9.86614 14.616L9.87004 14.6141Z" fill="#B5B5B5"/>
<path d="M3.26161 12.0124V13.0608C2.84431 12.6217 2.55961 12.1458 2.43286 11.6448C2.43286 11.6429 2.43091 11.641 2.43091 11.6371V10.5848C2.43091 10.5868 2.43091 10.5887 2.43286 10.5906C2.55961 11.0897 2.84236 11.5655 3.25966 12.0027L3.26161 12.0124Z" fill="#B5B5B5"/>
<path d="M19.8288 12.5889V13.6392C19.277 14.0551 18.5964 14.4265 17.8145 14.736V13.6837C18.5945 13.3742 19.2731 13.0047 19.8249 12.5889H19.8288Z" fill="#B5B5B5"/>
<path d="M21.387 8.96769V10.02C21.387 10.2443 21.3558 10.4649 21.2953 10.6815C21.1998 11.02 21.0321 11.3469 20.7981 11.6603C20.5641 11.9736 20.2638 12.2715 19.9069 12.552C19.8835 12.5713 19.8582 12.5888 19.8348 12.6081C19.2829 13.024 18.6024 13.3954 17.8204 13.7049C17.3836 13.879 16.9156 14.0337 16.4223 14.1672C15.0709 14.5328 13.5226 14.7397 11.8768 14.7397C11.1904 14.7397 10.5216 14.703 9.87615 14.6353C8.8797 14.5289 7.9398 14.3471 7.0857 14.0995C5.4282 13.6198 4.0905 12.8982 3.2676 12.0317C2.8503 11.5926 2.5656 11.1167 2.43885 10.6157C2.43885 10.6138 2.4369 10.6119 2.4369 10.608C2.38815 10.4165 2.36475 10.2211 2.36475 10.0219V8.96963L2.5461 9.10116C2.66115 8.81295 2.82885 8.5344 3.0453 8.26747C3.29685 7.95604 3.61275 7.66202 3.98325 7.38928C4.3635 7.1088 4.8042 6.84961 5.29365 6.61749C7.0038 5.80507 9.32235 5.30408 11.8768 5.30408C16.4964 5.30408 20.3476 6.93665 21.2076 9.1031L21.387 8.96769Z" fill="#890707"/>
<path d="M20.4839 8.00634L19.9945 8.12046L18.9103 8.37386C18.9493 8.41641 18.9902 8.45703 19.0273 8.49959C19.2262 8.72977 19.3822 8.97157 19.4875 9.22303C19.5304 9.32748 19.5655 9.43194 19.5928 9.53832L20.7842 9.46482L21.3146 9.43194C21.1918 8.93481 20.911 8.4551 20.4839 8.00634ZM13.8754 5.40466L13.7623 5.6658L13.5088 6.24803C13.9417 6.29445 14.3629 6.35635 14.7665 6.4376C15.1214 6.50723 15.4627 6.59041 15.7883 6.68519L16.3909 6.17259L16.6639 5.94047C15.8 5.69094 14.8601 5.50912 13.8754 5.40466ZM6.26845 6.54398L5.9311 6.33507C5.66005 6.4434 5.39875 6.55946 5.14915 6.68325C4.6831 6.91344 4.27165 7.1649 3.91675 7.43184L4.36915 7.57885L5.37145 7.90382C5.66395 7.6833 6.0013 7.47826 6.3757 7.29063C6.5785 7.19005 6.793 7.09527 7.01725 7.00629L6.26845 6.54398Z" fill="url(#paint7_linear_2_3266)"/>
<path d="M21.3872 8.96577C21.3872 9.19015 21.356 9.41067 21.2956 9.62731C21.2 9.96582 21.0323 10.2947 20.7983 10.6061C20.5643 10.9194 20.264 11.2193 19.9072 11.4978C19.0414 12.1709 17.8421 12.73 16.4225 13.113C15.0712 13.4786 13.5229 13.6855 11.8771 13.6855C7.02939 13.6855 3.02799 11.8866 2.43909 9.55961C2.39034 9.36618 2.36499 9.16694 2.36499 8.9677C2.36499 8.34872 2.60679 7.75488 3.04359 7.21327C3.29514 6.90184 3.61104 6.60782 3.98154 6.33508C4.36179 6.05461 4.80249 5.79541 5.29194 5.56329C7.00209 4.75087 9.32064 4.24988 11.8751 4.24988C17.1284 4.24794 21.3872 6.36023 21.3872 8.96577Z" fill="url(#paint8_radial_2_3266)"/>
<path d="M4.72241 10.4842C4.52351 10.2541 4.36751 10.0123 4.26221 9.7608C4.21931 9.65635 4.18421 9.55189 4.15691 9.44551L2.96546 9.51901L2.43506 9.55189C2.55791 10.049 2.83871 10.5287 3.26576 10.9775L3.75521 10.8634L4.83941 10.61C4.79846 10.5693 4.75946 10.5268 4.72241 10.4842ZM19.3825 11.4069L18.3802 11.0819C18.0877 11.3025 17.7504 11.5075 17.376 11.6951C17.1732 11.7957 16.9587 11.8905 16.7344 11.9795L17.4832 12.4437L17.8206 12.6526C18.0916 12.5443 18.3529 12.4282 18.6025 12.3044C19.0686 12.0743 19.48 11.8228 19.833 11.5559L19.3825 11.4069ZM8.98121 12.5482C8.62631 12.4785 8.28506 12.3954 7.95746 12.3006L7.35491 12.8132L7.08386 13.0453C7.94966 13.2968 8.88956 13.4766 9.87431 13.5811L9.98741 13.32L10.2409 12.7377C9.80606 12.6913 9.38486 12.6294 8.98121 12.5482ZM20.4843 6.95409L19.9948 7.06822L18.9106 7.32161C18.9496 7.36417 18.9906 7.40479 19.0276 7.44734C19.2265 7.67753 19.3825 7.91932 19.4878 8.17078C19.5307 8.27524 19.5658 8.37969 19.5931 8.48608L20.7846 8.41257L21.315 8.37969C21.1921 7.88257 20.9113 7.40285 20.4843 6.95409ZM13.8757 4.35242L13.7626 4.61355L13.5091 5.19579C13.942 5.24221 14.3632 5.30411 14.7669 5.38535C15.1218 5.45498 15.463 5.53816 15.7887 5.63294L16.3912 5.12035L16.6642 4.88823C15.8004 4.63676 14.8605 4.45687 13.8757 4.35242ZM6.26876 5.49174L5.93141 5.28283C5.66036 5.39115 5.39906 5.50721 5.14946 5.63101C4.68341 5.86119 4.27196 6.11266 3.91706 6.37959L4.36946 6.5266L5.37176 6.85157C5.66426 6.63106 6.00161 6.42602 6.37601 6.23839C6.57881 6.1378 6.79331 6.04302 7.01756 5.95404L6.26876 5.49174Z" fill="url(#paint9_linear_2_3266)"/>
<path d="M17.4791 10.7782C17.2256 10.9717 16.9331 11.1496 16.6055 11.3121C16.2954 11.4649 15.9542 11.6042 15.5895 11.7261C15.2502 11.8382 14.8875 11.9369 14.5073 12.0181C14.1075 12.1032 13.6883 12.169 13.2534 12.2154C12.8088 12.2619 12.3467 12.287 11.8748 12.287C11.4263 12.287 10.9895 12.2638 10.5663 12.2232C10.1588 12.1826 9.76487 12.1245 9.38657 12.0491C8.97707 11.9678 8.58707 11.8653 8.22047 11.7473C7.83242 11.6216 7.46972 11.4765 7.14407 11.314C6.83402 11.1612 6.55517 10.991 6.30947 10.8092C6.08132 10.6409 5.88437 10.461 5.72057 10.2734C5.54897 10.0761 5.41442 9.86717 5.32277 9.65246C5.22917 9.43194 5.17847 9.20369 5.17847 8.9677C5.17847 8.74526 5.22332 8.52861 5.30717 8.31777C5.38907 8.11467 5.50802 7.9193 5.66012 7.73167C5.82587 7.52857 6.02867 7.33513 6.26852 7.15331C6.52202 6.95987 6.81452 6.78191 7.14212 6.61943C7.45217 6.46662 7.79342 6.32735 8.15807 6.20549C8.49737 6.0933 8.86007 5.99464 9.24032 5.9134C9.64007 5.82829 10.0593 5.76252 10.4942 5.7161C10.9388 5.66968 11.4009 5.64453 11.8728 5.64453C12.3213 5.64453 12.7581 5.66774 13.1813 5.70836C13.5888 5.74898 13.9827 5.80701 14.361 5.88245C14.7705 5.96369 15.1605 6.06621 15.5271 6.18421C15.9152 6.30994 16.2779 6.45501 16.6035 6.6175C16.9136 6.77031 17.1924 6.94053 17.4381 7.12236C17.6663 7.29064 17.8632 7.47054 18.027 7.65817C18.1986 7.85547 18.3332 8.06437 18.4229 8.27908C18.5165 8.4996 18.5672 8.72785 18.5672 8.96384C18.5672 9.18628 18.5223 9.40293 18.4385 9.61377C18.3566 9.81687 18.2376 10.0122 18.0855 10.1999C17.9217 10.4049 17.7189 10.5983 17.4791 10.7782Z" fill="#E01E43"/>
<path d="M11.8749 12.5463C15.8618 12.5463 19.0938 10.9432 19.0938 8.96582C19.0938 6.98839 15.8618 5.38538 11.8749 5.38538C7.88802 5.38538 4.65601 6.98839 4.65601 8.96582C4.65601 10.9432 7.88802 12.5463 11.8749 12.5463Z" fill="url(#paint10_radial_2_3266)"/>
<path d="M15.0962 11.3933C15.1547 11.4281 15.1859 11.463 15.2015 11.4842C15.2249 11.4359 15.26 11.345 15.2522 11.2328C15.2463 11.1515 15.219 11.0587 15.1508 10.9581C15.0065 10.7511 14.751 10.6215 14.6223 10.5635C14.6925 10.5674 14.7978 10.577 14.9129 10.6022C15.0221 10.6273 15.1001 10.6583 15.1508 10.6815C15.1508 10.6815 15.2307 10.3526 14.6477 10.1167C14.0666 9.88067 14.0919 9.66983 14.0139 9.28877C13.9944 8.95606 14.6028 8.57887 14.9655 8.39124C15.1703 8.28485 15.2307 8.1243 15.1001 7.99083C15.0786 7.96762 15.0513 7.94634 15.0182 7.92313C14.792 7.76258 14.4605 7.72196 14.3844 7.71229C14.4117 7.72583 14.4644 7.75678 14.4897 7.80513C14.5209 7.8593 14.4995 7.90379 14.4897 7.92313C14.1465 8.09335 13.6434 8.10689 13.6434 8.10689C13.6434 8.10689 14.2772 7.63298 14.3571 7.26546C14.3903 7.11071 14.2752 6.8902 13.8287 6.62133C13.7702 6.55943 13.6415 6.52461 13.5128 6.53041C13.3646 6.53621 13.2398 6.59618 13.2222 6.67549L11.2917 7.6736C11.2917 7.6736 10.2875 7.6736 9.73172 7.97536C9.21107 8.2597 8.25167 8.7104 8.25167 8.7104H8.59292C8.27897 8.8458 7.91042 8.98894 7.48142 9.13015C7.10117 9.25588 6.73457 9.36034 6.39722 9.44545C6.52397 9.51895 6.75602 9.63307 7.11092 9.72205C7.50287 9.81877 7.86167 9.83812 8.06252 9.84005C8.06252 9.93483 8.03717 10.1186 7.82462 10.314C7.69007 10.4378 7.52432 10.5229 7.40147 10.577C7.44242 10.5867 7.52822 10.6041 7.63937 10.6041C7.73687 10.6022 7.81097 10.5867 7.85192 10.577C7.76222 10.7105 7.58477 10.9155 7.23767 11.1264C7.08947 11.2154 6.93737 11.2889 6.79112 11.3508C8.03132 12.0355 9.83117 12.4669 11.8338 12.4669C13.0487 12.4669 14.1875 12.3083 15.1742 12.0316C15.1644 11.9311 15.1469 11.8111 15.1137 11.7009C15.0923 11.6274 15.0533 11.5036 14.9499 11.3488C14.9441 11.3411 14.9402 11.3334 14.9363 11.3295C14.946 11.3334 14.9597 11.3372 14.9733 11.3411C15.0104 11.3508 15.0552 11.3682 15.0962 11.3933ZM10.227 8.49762L10.6151 8.04886L11.3015 7.99083C10.9427 8.16105 10.5839 8.32934 10.227 8.49762Z" fill="url(#paint11_radial_2_3266)"/>
<path d="M14.9733 11.3373C14.9596 11.3334 14.9479 11.3296 14.9362 11.3257C14.9401 11.3296 14.944 11.3373 14.9499 11.3451C15.0532 11.4998 15.0903 11.6236 15.1137 11.6971C15.1468 11.8093 15.1663 11.9273 15.1741 12.0279C14.1894 12.3064 13.0486 12.4631 11.8338 12.4631C11.3755 12.4631 10.929 12.4399 10.498 12.3973C12.3739 12.0801 13.6063 11.3044 13.3197 10.2096C13.0935 9.34302 14.361 8.77046 14.3805 8.75305C14.32 8.81495 13.9924 9.0374 14.0119 9.28693C14.0919 9.66799 14.0646 9.87883 14.6457 10.1148C15.2268 10.3508 15.1488 10.6796 15.1488 10.6796C15.0981 10.6564 15.0201 10.6255 14.9109 10.6003C14.7958 10.5733 14.6905 10.5636 14.6203 10.5616C14.751 10.6197 15.0045 10.7473 15.1488 10.9563C15.217 11.0549 15.2463 11.1497 15.2502 11.2309C15.258 11.3431 15.2229 11.434 15.2014 11.4824C15.1858 11.4592 15.1546 11.4263 15.0961 11.3915C15.0552 11.3683 15.0103 11.3509 14.9733 11.3373Z" fill="url(#paint12_radial_2_3266)"/>
<path d="M11.875 12.5985C7.83653 12.5985 4.55078 10.9698 4.55078 8.9658C4.55078 6.96377 7.83653 5.33313 11.875 5.33313C15.9134 5.33313 19.1992 6.96183 19.1992 8.9658C19.1992 10.9698 15.9134 12.5985 11.875 12.5985ZM11.875 5.60007C8.13098 5.60007 5.08508 7.11078 5.08508 8.96773C5.08508 10.8247 8.13098 12.3354 11.875 12.3354C15.619 12.3354 18.6649 10.8247 18.6649 8.96773C18.6649 7.11078 15.619 5.60007 11.875 5.60007Z" fill="url(#paint13_linear_2_3266)"/>
<path d="M9.87419 13.5811V14.6334C8.87774 14.527 7.93784 14.3452 7.08374 14.0976V13.0453H7.08569C7.93784 13.2929 8.87579 13.4747 9.87029 13.5811H9.87419Z" fill="#B5B5B5"/>
<path d="M3.26576 10.9794V12.0278C2.84846 11.5887 2.56376 11.1129 2.43701 10.6119C2.43701 10.61 2.43506 10.608 2.43506 10.6042V9.55188C2.43506 9.55381 2.43506 9.55575 2.43701 9.55768C2.56376 10.0567 2.84651 10.5326 3.26381 10.9697L3.26576 10.9794Z" fill="#B5B5B5"/>
<path d="M19.833 11.554V12.6043C19.2811 13.0202 18.6006 13.3916 17.8186 13.7011V12.6488C18.5986 12.3393 19.2772 11.9698 19.8291 11.554H19.833Z" fill="#B5B5B5"/>
<path d="M22.0208 7.95988V9.01216C22.0208 9.23654 21.9896 9.45705 21.9291 9.6737C21.8336 10.0122 21.6659 10.3391 21.4319 10.6525C21.1979 10.9658 20.8976 11.2637 20.5407 11.5442C20.5173 11.5635 20.492 11.5809 20.4686 11.6003C19.9167 12.0162 19.2362 12.3876 18.4542 12.6971C18.0174 12.8711 17.5494 13.0259 17.0561 13.1594C15.7047 13.5249 14.1564 13.7319 12.5106 13.7319C11.8242 13.7319 11.1554 13.6952 10.5099 13.6275C9.51348 13.5211 8.57359 13.3392 7.71948 13.0917C6.06199 12.6119 4.72429 11.8904 3.90139 11.0239C3.48409 10.5848 3.19938 10.1089 3.07263 9.60793C3.07263 9.606 3.07068 9.60406 3.07068 9.60019C3.02193 9.40869 2.99854 9.21333 2.99854 9.01409V7.96182L3.17988 8.09335C3.29493 7.80514 3.46263 7.52659 3.67908 7.25966C3.93063 6.94823 4.24653 6.65421 4.61703 6.38147C4.99728 6.10099 5.43798 5.84179 5.92743 5.60967C7.63758 4.79725 9.95613 4.29626 12.5106 4.29626C17.1302 4.29626 20.9814 5.92884 21.8414 8.09528L22.0208 7.95988Z" fill="#890707"/>
<path d="M21.118 7.00048L20.6285 7.1146L19.5443 7.368C19.5833 7.41056 19.6243 7.45118 19.6613 7.49373C19.8602 7.72392 20.0162 7.96571 20.1215 8.21717C20.1644 8.32163 20.1995 8.42608 20.2268 8.53247L21.4183 8.45896L21.9487 8.42608C21.8258 7.92896 21.5431 7.44924 21.118 7.00048ZM14.5094 4.3988L14.3963 4.65994L14.1428 5.24217C14.5757 5.2886 14.9969 5.35049 15.4006 5.43174C15.7555 5.50137 16.0967 5.58455 16.4224 5.67933L17.0249 5.16673L17.2979 4.93461C16.4341 4.68315 15.4942 4.50326 14.5094 4.3988ZM6.90053 5.53813L6.56318 5.32922C6.29213 5.43754 6.03083 5.5536 5.78123 5.6774C5.31518 5.90758 4.90373 6.15904 4.54883 6.42598L5.00123 6.57299L6.00353 6.89796C6.29603 6.67745 6.63338 6.47241 7.00778 6.28478C7.21058 6.18419 7.42508 6.08941 7.64933 6.00043L6.90053 5.53813Z" fill="url(#paint14_linear_2_3266)"/>
<path d="M22.0208 7.95991C22.0208 8.18429 21.9896 8.40481 21.9291 8.62145C21.8336 8.95996 21.6659 9.2888 21.4319 9.60022C21.1979 9.91358 20.8976 10.2134 20.5407 10.4919C19.6749 11.1651 18.4757 11.7241 17.0561 12.1071C15.7047 12.4727 14.1564 12.6797 12.5106 12.6797C7.66294 12.6797 3.66153 10.8807 3.07263 8.55375C3.02388 8.36032 2.99854 8.16108 2.99854 7.96185C2.99854 7.34286 3.24034 6.74902 3.67714 6.20741C3.92869 5.89598 4.24459 5.60197 4.61509 5.32923C4.99534 5.04875 5.43604 4.78955 5.92549 4.55743C7.63564 3.74501 9.95419 3.24402 12.5087 3.24402C17.762 3.24209 22.0208 5.35437 22.0208 7.95991Z" fill="url(#paint15_radial_2_3266)"/>
<path d="M5.3562 9.47838C5.1573 9.2482 5.0013 9.0064 4.896 8.75494C4.8531 8.65049 4.818 8.54603 4.7907 8.43965L3.59925 8.51315L3.06885 8.54603C3.1917 9.04316 3.4725 9.52287 3.89955 9.97163L4.389 9.85751L5.4732 9.60411C5.43225 9.56349 5.39325 9.52094 5.3562 9.47838ZM20.0143 10.4011L19.012 10.0761C18.7195 10.2966 18.3822 10.5016 18.0078 10.6893C17.805 10.7899 17.5905 10.8846 17.3662 10.9736L18.115 11.4379L18.4524 11.6468C18.7234 11.5384 18.9847 11.4224 19.2343 11.2986C19.7004 11.0684 20.1118 10.8169 20.4648 10.55L20.0143 10.4011ZM9.615 11.5423C9.2601 11.4727 8.91885 11.3895 8.59125 11.2947L7.9887 11.8073L7.71765 12.0394C8.58345 12.2909 9.52335 12.4708 10.5081 12.5752L10.6212 12.3141L10.8747 11.7319C10.4398 11.6854 10.0186 11.6236 9.615 11.5423ZM21.118 5.94823L20.6286 6.06236L19.5444 6.31575C19.5834 6.35831 19.6243 6.39893 19.6614 6.44148C19.8603 6.67167 20.0163 6.91346 20.1216 7.16492C20.1645 7.26938 20.1996 7.37383 20.2269 7.48022L21.4183 7.40671L21.9487 7.37383C21.8259 6.87671 21.5431 6.39506 21.118 5.94823ZM14.5095 3.34656L14.3964 3.60769L14.1429 4.18993C14.5758 4.23635 14.997 4.29825 15.4006 4.37949C15.7555 4.44913 16.0968 4.5323 16.4224 4.62708L17.025 4.11449L17.298 3.88237C16.4341 3.6309 15.4942 3.45101 14.5095 3.34656ZM6.9006 4.48588L6.56325 4.27697C6.2922 4.38529 6.0309 4.50135 5.7813 4.62515C5.31525 4.85533 4.9038 5.1068 4.5489 5.37374L5.0013 5.52074L6.0036 5.84571C6.2961 5.6252 6.63345 5.42016 7.00785 5.23253C7.21065 5.13194 7.42515 5.03716 7.6494 4.94818L6.9006 4.48588Z" fill="url(#paint16_linear_2_3266)"/>
<path d="M18.1129 9.77238C17.8594 9.96581 17.5669 10.1438 17.2393 10.3063C16.9292 10.4591 16.588 10.5983 16.2233 10.7202C15.884 10.8324 15.5213 10.931 15.1411 11.0123C14.7413 11.0974 14.3221 11.1632 13.8872 11.2096C13.4426 11.256 12.9805 11.2812 12.5086 11.2812C12.0601 11.2812 11.6233 11.2579 11.2001 11.2173C10.7926 11.1767 10.3987 11.1187 10.0204 11.0432C9.61086 10.962 9.22086 10.8595 8.85426 10.7415C8.46621 10.6157 8.10351 10.4707 7.77786 10.3082C7.46781 10.1554 7.18896 9.98515 6.94326 9.80333C6.71511 9.63504 6.51816 9.45515 6.35436 9.26752C6.18276 9.07022 6.04821 8.86131 5.95656 8.6466C5.86296 8.42608 5.81226 8.19783 5.81226 7.96185C5.81226 7.7394 5.85711 7.52275 5.94096 7.31191C6.02286 7.10881 6.1418 6.91344 6.2939 6.72581C6.45965 6.52271 6.66246 6.32927 6.90231 6.14745C7.15581 5.95401 7.44831 5.77606 7.77591 5.61357C8.08596 5.46076 8.42721 5.32149 8.79186 5.19963C9.13116 5.08744 9.49386 4.98878 9.87411 4.90754C10.2739 4.82243 10.6931 4.75666 11.128 4.71024C11.5726 4.66382 12.0347 4.63867 12.5066 4.63867C12.9551 4.63867 13.3919 4.66188 13.8151 4.7025C14.2226 4.74313 14.6165 4.80116 14.9948 4.87659C15.4043 4.95784 15.7943 5.06035 16.1609 5.17835C16.549 5.30408 16.9117 5.44915 17.2373 5.61164C17.5474 5.76445 17.8262 5.93467 18.0719 6.1165C18.3001 6.28478 18.497 6.46468 18.6608 6.65231C18.8324 6.84961 18.967 7.05851 19.0567 7.27323C19.1503 7.49374 19.201 7.72199 19.201 7.95798C19.201 8.18043 19.1561 8.39707 19.0723 8.60791C18.9904 8.81102 18.8714 9.00638 18.7193 9.19401C18.5555 9.39905 18.3508 9.59249 18.1129 9.77238Z" fill="#E01E43"/>
<path d="M12.5087 11.5404C16.4956 11.5404 19.7276 9.93738 19.7276 7.95995C19.7276 5.98253 16.4956 4.37952 12.5087 4.37952C8.52181 4.37952 5.28979 5.98253 5.28979 7.95995C5.28979 9.93738 8.52181 11.5404 12.5087 11.5404Z" fill="url(#paint17_radial_2_3266)"/>
<path d="M15.7302 10.3856C15.7887 10.4204 15.8199 10.4553 15.8355 10.4765C15.8589 10.4282 15.894 10.3373 15.8862 10.2251C15.8804 10.1438 15.8531 10.051 15.7848 9.9504C15.6405 9.74343 15.3851 9.61383 15.2564 9.5558C15.3266 9.55967 15.4319 9.56934 15.5469 9.59448C15.6561 9.61963 15.7341 9.65058 15.7848 9.67379C15.7848 9.67379 15.8648 9.34496 15.2817 9.10897C14.7006 8.87298 14.726 8.66214 14.648 8.28108C14.6285 7.94837 15.2369 7.57118 15.5996 7.38355C15.8043 7.27716 15.8648 7.11661 15.7341 6.98314C15.7127 6.95993 15.6854 6.93865 15.6522 6.91544C15.426 6.75489 15.0945 6.71427 15.0185 6.7046C15.0458 6.71814 15.0984 6.74909 15.1238 6.79744C15.155 6.85161 15.1335 6.89609 15.1238 6.91544C14.7806 7.08566 14.2775 7.0992 14.2775 7.0992C14.2775 7.0992 14.9112 6.62529 14.9912 6.25777C15.0243 6.10302 14.9093 5.88251 14.4627 5.61364C14.4042 5.55174 14.2755 5.51692 14.1468 5.52272C13.9986 5.52852 13.8738 5.58849 13.8563 5.6678L11.9258 6.66591C11.9258 6.66591 10.9215 6.66591 10.3658 6.96767C9.8451 7.25201 8.8857 7.70271 8.8857 7.70271H9.2289C8.91495 7.83811 8.5464 7.98125 8.1174 8.12246C7.73715 8.24819 7.37055 8.35265 7.0332 8.43776C7.15995 8.51126 7.392 8.62538 7.7469 8.71436C8.13885 8.81108 8.49765 8.83042 8.6985 8.83236C8.6985 8.92714 8.67315 9.1109 8.4606 9.30627C8.32605 9.43007 8.1603 9.51518 8.03745 9.56934C8.0784 9.57901 8.1642 9.59642 8.27535 9.59642C8.37285 9.59448 8.44695 9.57901 8.4879 9.56934C8.3982 9.70281 8.22075 9.90784 7.87365 10.1187C7.72545 10.2077 7.57335 10.2812 7.4271 10.3431C8.6673 11.0278 10.4672 11.4592 12.4698 11.4592C13.6847 11.4592 14.8235 11.3006 15.8102 11.024C15.8004 10.9234 15.7829 10.8034 15.7497 10.6932C15.7283 10.6197 15.6893 10.4959 15.5859 10.3411C15.5801 10.3334 15.5762 10.3257 15.5723 10.3218C15.582 10.3257 15.5957 10.3295 15.6093 10.3334C15.6444 10.3431 15.6893 10.3624 15.7302 10.3856ZM10.8591 7.49187L11.2472 7.0431L11.9336 6.98507C11.5767 7.1553 11.2179 7.32358 10.8591 7.49187Z" fill="url(#paint18_radial_2_3266)"/>
<path d="M15.6071 10.3313C15.5934 10.3275 15.5817 10.3236 15.57 10.3197C15.5739 10.3236 15.5778 10.3313 15.5837 10.3391C15.687 10.4938 15.7241 10.6176 15.7475 10.6911C15.7806 10.8033 15.8001 10.9213 15.8079 11.0219C14.8232 11.3004 13.6824 11.4571 12.4676 11.4571C12.0093 11.4571 11.5628 11.4339 11.1318 11.3913C13.0077 11.0741 14.2401 10.2984 13.9535 9.20362C13.7273 8.33704 14.9948 7.76448 15.0143 7.74707C14.9538 7.80897 14.6262 8.03142 14.6457 8.28095C14.7257 8.66201 14.6984 8.87285 15.2795 9.10884C15.8606 9.34482 15.7826 9.67366 15.7826 9.67366C15.7319 9.65045 15.6539 9.6195 15.5447 9.59435C15.4296 9.56727 15.3243 9.5576 15.2541 9.55567C15.3848 9.6137 15.6383 9.74136 15.7826 9.95027C15.8508 10.0489 15.8801 10.1437 15.884 10.2249C15.8918 10.3371 15.8567 10.428 15.8352 10.4764C15.8196 10.4532 15.7884 10.4203 15.7299 10.3855C15.689 10.3623 15.6441 10.3429 15.6071 10.3313Z" fill="url(#paint19_radial_2_3266)"/>
<path d="M12.5088 11.5926C8.47032 11.5926 5.18457 9.9639 5.18457 7.95994C5.18457 5.95598 8.47032 4.32727 12.5088 4.32727C16.5472 4.32727 19.833 5.95598 19.833 7.95994C19.833 9.9639 16.5472 11.5926 12.5088 11.5926ZM12.5088 4.59227C8.76477 4.59227 5.71887 6.10298 5.71887 7.95994C5.71887 9.8169 8.76477 11.3276 12.5088 11.3276C16.2528 11.3276 19.2987 9.8169 19.2987 7.95994C19.2987 6.10298 16.2528 4.59227 12.5088 4.59227Z" fill="url(#paint20_linear_2_3266)"/>
<path d="M10.508 12.5752V13.6275C9.51153 13.5211 8.57163 13.3393 7.71753 13.0917V12.0394H7.71948C8.57163 12.287 9.50958 12.4688 10.5041 12.5752H10.508Z" fill="#B5B5B5"/>
<path d="M3.89955 9.97355V11.022C3.48225 10.5829 3.19755 10.107 3.0708 9.60603C3.0708 9.6041 3.06885 9.60216 3.06885 9.5983V8.54602C3.06885 8.54795 3.06885 8.54989 3.0708 8.55182C3.19755 9.05088 3.4803 9.52672 3.8976 9.96388L3.89955 9.97355Z" fill="#B5B5B5"/>
<path d="M20.4667 10.548V11.5983C19.9149 12.0142 19.2343 12.3856 18.4524 12.6951V11.6428C19.2324 11.3333 19.911 10.9639 20.4628 10.548H20.4667Z" fill="#B5B5B5"/>
<path d="M22.0208 6.96562V8.01789C22.0208 8.24228 21.9896 8.46279 21.9291 8.67944C21.8336 9.01794 21.6659 9.34484 21.4319 9.65821C21.1979 9.97157 20.8976 10.2695 20.5407 10.5499C20.5173 10.5693 20.492 10.5867 20.4686 10.606C19.9167 11.0219 19.2362 11.3933 18.4542 11.7028C18.0174 11.8769 17.5494 12.0316 17.0561 12.1651C15.7047 12.5307 14.1564 12.7377 12.5106 12.7377C11.8242 12.7377 11.1554 12.7009 10.5099 12.6332C9.51348 12.5268 8.57359 12.345 7.71948 12.0974C6.06199 11.6177 4.72429 10.8962 3.90139 10.0296C3.48409 9.5905 3.19938 9.11466 3.07263 8.61367C3.07263 8.61173 3.07068 8.6098 3.07068 8.60593C3.02193 8.41443 2.99854 8.21907 2.99854 8.01983V6.96755L3.17988 7.09909C3.29493 6.81087 3.46263 6.53233 3.67908 6.26539C3.93063 5.95397 4.24653 5.65995 4.61703 5.38721C4.99728 5.10673 5.43798 4.84753 5.92743 4.61541C7.63758 3.80299 9.95613 3.302 12.5106 3.302C17.1302 3.302 20.9814 4.93458 21.8414 7.10102L22.0208 6.96562Z" fill="#890707"/>
<path d="M21.118 6.00621L20.6285 6.12034L19.5443 6.37373C19.5833 6.41629 19.6243 6.45691 19.6613 6.49947C19.8602 6.72965 20.0162 6.97144 20.1215 7.22291C20.1644 7.32736 20.1995 7.43181 20.2268 7.5382L21.4183 7.4647L21.9487 7.43181C21.8258 6.93469 21.5431 6.45304 21.118 6.00621ZM14.5094 3.40454L14.3963 3.66568L14.1428 4.24791C14.5757 4.29433 14.9969 4.35623 15.4006 4.43747C15.7555 4.50711 16.0967 4.59028 16.4224 4.68507L17.0249 4.17247L17.2979 3.94035C16.4341 3.68889 15.4942 3.50899 14.5094 3.40454ZM6.90053 4.54386L6.56318 4.33495C6.29213 4.44328 6.03083 4.55934 5.78123 4.68313C5.31518 4.91332 4.90373 5.16478 4.54883 5.43172L5.00123 5.57873L6.00353 5.90369C6.29603 5.68318 6.63338 5.47814 7.00778 5.29051C7.21058 5.18993 7.42508 5.09514 7.64933 5.00617L6.90053 4.54386Z" fill="url(#paint21_linear_2_3266)"/>
<path d="M22.0208 6.96565C22.0208 7.19003 21.9896 7.41055 21.9291 7.62719C21.8336 7.9657 21.6659 8.29453 21.4319 8.60596C21.1979 8.91932 20.8976 9.21914 20.5407 9.49768C19.6749 10.1708 18.4757 10.7299 17.0561 11.1128C15.7047 11.4784 14.1564 11.6854 12.5106 11.6854C7.66294 11.6854 3.66153 9.88649 3.07263 7.55949C3.02388 7.36606 2.99854 7.16682 2.99854 6.96758C2.99854 6.3486 3.24034 5.75476 3.67714 5.21315C3.92869 4.90172 4.24459 4.6077 4.61509 4.33496C4.99534 4.05449 5.43604 3.79528 5.92549 3.56317C7.63564 2.75075 9.95419 2.24976 12.5087 2.24976C17.762 2.24782 22.0208 4.36011 22.0208 6.96565Z" fill="url(#paint22_radial_2_3266)"/>
<path d="M5.3562 8.48412C5.1573 8.25393 5.0013 8.01214 4.896 7.76068C4.8531 7.65623 4.818 7.55177 4.7907 7.44538L3.59925 7.51889L3.06885 7.55177C3.1917 8.04889 3.4725 8.52861 3.89955 8.97737L4.389 8.86325L5.4732 8.60985C5.43225 8.56923 5.39325 8.52667 5.3562 8.48412ZM20.0143 9.40679L19.012 9.08183C18.7195 9.30234 18.3822 9.50738 18.0078 9.69501C17.805 9.7956 17.5905 9.89038 17.3662 9.97936L18.115 10.4436L18.4524 10.6525C18.7234 10.5442 18.9847 10.4281 19.2343 10.3043C19.7004 10.0741 20.1118 9.82267 20.4648 9.55574L20.0143 9.40679ZM9.615 10.548C9.2601 10.4784 8.91885 10.3952 8.59125 10.3005L7.9887 10.8131L7.71765 11.0452C8.58345 11.2966 9.52335 11.4765 10.5081 11.581L10.6212 11.3198L10.8747 10.7376C10.4398 10.6912 10.0186 10.6274 9.615 10.548ZM21.118 4.95397L20.6286 5.06809L19.5444 5.32149C19.5834 5.36405 19.6243 5.40467 19.6614 5.44722C19.8603 5.67741 20.0163 5.9192 20.1216 6.17066C20.1645 6.27511 20.1996 6.37957 20.2269 6.48596L21.4183 6.41245L21.9487 6.37957C21.8259 5.88051 21.5431 5.4008 21.118 4.95397ZM14.5095 2.35229L14.3964 2.61343L14.1429 3.19566C14.5758 3.24209 14.997 3.30398 15.4006 3.38523C15.7555 3.45486 16.0968 3.53804 16.4224 3.63282L17.025 3.12022L17.298 2.8881C16.4341 2.63664 15.4942 2.45481 14.5095 2.35229ZM6.9006 3.48968L6.56325 3.28077C6.2922 3.3891 6.0309 3.50516 5.7813 3.62895C5.31525 3.85914 4.9038 4.1106 4.5489 4.37754L5.0013 4.52455L6.0036 4.84951C6.2961 4.629 6.63345 4.42396 7.00785 4.23633C7.21065 4.13575 7.42515 4.04096 7.6494 3.95199L6.9006 3.48968Z" fill="url(#paint23_linear_2_3266)"/>
<path d="M18.1129 8.77811C17.8594 8.97155 17.5669 9.1495 17.2393 9.31199C16.9292 9.4648 16.588 9.60407 16.2233 9.72593C15.884 9.83813 15.5213 9.93678 15.1411 10.018C14.7413 10.1031 14.3221 10.1689 13.8872 10.2153C13.4426 10.2617 12.9805 10.2869 12.5086 10.2869C12.0601 10.2869 11.6233 10.2637 11.2001 10.2231C10.7926 10.1824 10.3987 10.1244 10.0204 10.049C9.61086 9.96772 9.22086 9.86521 8.85426 9.74721C8.46621 9.62148 8.10351 9.47641 7.77786 9.31392C7.46781 9.16111 7.18896 8.99089 6.94326 8.80906C6.71511 8.64078 6.51816 8.46088 6.35436 8.27325C6.18276 8.07595 6.04821 7.86705 5.95656 7.65234C5.86296 7.43182 5.81226 7.20357 5.81226 6.96758C5.81226 6.74514 5.85711 6.52849 5.94096 6.31765C6.02286 6.11455 6.1418 5.91918 6.2939 5.73155C6.45965 5.52844 6.66246 5.33501 6.90231 5.15318C7.15581 4.95975 7.44831 4.78179 7.77591 4.61931C8.08596 4.4665 8.42721 4.32723 8.79186 4.20536C9.13116 4.09317 9.49386 3.99452 9.87411 3.91328C10.2739 3.82817 10.6931 3.7624 11.128 3.71598C11.5726 3.66956 12.0347 3.64441 12.5066 3.64441C12.9551 3.64441 13.3919 3.66762 13.8151 3.70824C14.2226 3.74886 14.6165 3.80689 14.9948 3.88233C15.4043 3.96357 15.7943 4.06609 16.1609 4.18409C16.549 4.30982 16.9117 4.45489 17.2373 4.61738C17.5474 4.77019 17.8262 4.94041 18.0719 5.12224C18.3001 5.29052 18.497 5.47041 18.6608 5.65804C18.8324 5.85534 18.967 6.06425 19.0567 6.27896C19.1503 6.49948 19.201 6.72773 19.201 6.96371C19.201 7.18616 19.1561 7.40281 19.0723 7.61365C18.9904 7.81675 18.8714 8.01212 18.7193 8.19975C18.5555 8.40285 18.3508 8.59629 18.1129 8.77811Z" fill="#E01E43"/>
<path d="M12.5087 10.5461C16.4956 10.5461 19.7276 8.94312 19.7276 6.9657C19.7276 4.98827 16.4956 3.38525 12.5087 3.38525C8.52181 3.38525 5.28979 4.98827 5.28979 6.9657C5.28979 8.94312 8.52181 10.5461 12.5087 10.5461Z" fill="url(#paint24_radial_2_3266)"/>
<path d="M15.7302 9.39124C15.7887 9.42606 15.8199 9.46088 15.8355 9.48215C15.8589 9.4338 15.894 9.34288 15.8862 9.23069C15.8804 9.14945 15.8531 9.0566 15.7848 8.95602C15.6405 8.74904 15.3851 8.61944 15.2564 8.56141C15.3266 8.56528 15.4319 8.57495 15.5469 8.6001C15.6561 8.62524 15.7341 8.6562 15.7848 8.67941C15.7848 8.67941 15.8648 8.35057 15.2817 8.11458C14.7006 7.87859 14.726 7.66775 14.648 7.28669C14.6285 6.95398 15.2369 6.57679 15.5996 6.38916C15.8043 6.28277 15.8648 6.12222 15.7341 5.98875C15.7127 5.96554 15.6854 5.94427 15.6522 5.92105C15.426 5.7605 15.0945 5.71988 15.0185 5.71021C15.0458 5.72375 15.0984 5.7547 15.1238 5.80306C15.155 5.85722 15.1335 5.90171 15.1238 5.92105C14.7806 6.09127 14.2775 6.10481 14.2775 6.10481C14.2775 6.10481 14.9112 5.6309 14.9912 5.26338C15.0243 5.10864 14.9093 4.88812 14.4627 4.61925C14.4042 4.55735 14.2755 4.52253 14.1468 4.52834C13.9986 4.53414 13.8738 4.5941 13.8563 4.67341L11.9258 5.67152C11.9258 5.67152 10.9215 5.67153 10.3658 5.97328C9.8451 6.25763 8.8857 6.70833 8.8857 6.70833H9.2289C8.91495 6.84373 8.5464 6.98687 8.1174 7.12807C7.73715 7.25381 7.37055 7.35826 7.0332 7.44337C7.15995 7.51688 7.392 7.631 7.7469 7.71998C8.13885 7.8167 8.49765 7.83604 8.6985 7.83797C8.6985 7.93276 8.67315 8.11652 8.4606 8.31188C8.32605 8.43568 8.1603 8.52079 8.03745 8.57495C8.0784 8.58462 8.1642 8.60203 8.27535 8.60203C8.37285 8.6001 8.44695 8.58462 8.4879 8.57495C8.3982 8.70842 8.22075 8.91346 7.87365 9.1243C7.72545 9.21328 7.57335 9.28679 7.4271 9.34868C8.6673 10.0334 10.4672 10.4648 12.4698 10.4648C13.6847 10.4648 14.8235 10.3062 15.8102 10.0296C15.8004 9.92898 15.7829 9.80905 15.7497 9.6988C15.7283 9.62529 15.6893 9.5015 15.5859 9.34675C15.5801 9.33901 15.5762 9.33128 15.5723 9.32741C15.582 9.33128 15.5957 9.33514 15.6093 9.33901C15.6444 9.34868 15.6893 9.36609 15.7302 9.39124ZM10.8591 6.49748L11.2472 6.04872L11.9336 5.99069C11.5767 6.15898 11.2179 6.3292 10.8591 6.49748Z" fill="url(#paint25_radial_2_3266)"/>
<path d="M15.6071 9.33707C15.5934 9.3332 15.5817 9.32933 15.57 9.32546C15.5739 9.32933 15.5778 9.33707 15.5837 9.34481C15.687 9.49955 15.7241 9.62335 15.7475 9.69685C15.7806 9.80905 15.8001 9.92704 15.8079 10.0276C14.8232 10.3062 13.6824 10.4628 12.4676 10.4628C12.0093 10.4628 11.5628 10.4396 11.1318 10.3971C13.0077 10.0798 14.2401 9.30419 13.9535 8.20936C13.7273 7.34278 14.9948 6.77022 15.0143 6.75281C14.9538 6.81471 14.6262 7.03715 14.6457 7.28668C14.7257 7.66774 14.6984 7.87859 15.2795 8.11457C15.8606 8.35056 15.7826 8.6794 15.7826 8.6794C15.7319 8.65619 15.6539 8.62524 15.5447 8.60009C15.4296 8.57301 15.3243 8.56334 15.2541 8.5614C15.3848 8.61943 15.6383 8.7471 15.7826 8.95601C15.8508 9.05466 15.8801 9.14944 15.884 9.23068C15.8918 9.34287 15.8567 9.43379 15.8352 9.48214C15.8196 9.45893 15.7884 9.42605 15.7299 9.39123C15.689 9.36608 15.6441 9.34868 15.6071 9.33707Z" fill="url(#paint26_radial_2_3266)"/>
<path d="M12.5088 10.5983C8.47032 10.5983 5.18457 8.96964 5.18457 6.96568C5.18457 4.96171 8.47032 3.33301 12.5088 3.33301C16.5472 3.33301 19.833 4.96171 19.833 6.96568C19.833 8.96964 16.5472 10.5983 12.5088 10.5983ZM12.5088 3.59801C8.76477 3.59801 5.71887 5.10872 5.71887 6.96568C5.71887 8.82263 8.76477 10.3333 12.5088 10.3333C16.2528 10.3333 19.2987 8.82263 19.2987 6.96568C19.2987 5.10872 16.2528 3.59801 12.5088 3.59801Z" fill="url(#paint27_linear_2_3266)"/>
<path d="M10.508 11.579V12.6313C9.51153 12.5249 8.57163 12.3431 7.71753 12.0955V11.0452H7.71948C8.57163 11.2928 9.50958 11.4746 10.5041 11.581L10.508 11.579Z" fill="#B5B5B5"/>
<path d="M3.89955 8.97736V10.0258C3.48225 9.58667 3.19755 9.11083 3.0708 8.60983C3.0708 8.6079 3.06885 8.60597 3.06885 8.6021V7.55176C3.06885 7.55369 3.06885 7.55563 3.0708 7.55756C3.19755 8.05662 3.4803 8.53246 3.8976 8.96962L3.89955 8.97736Z" fill="#B5B5B5"/>
<path d="M20.4667 9.55383V10.6042C19.9149 11.0201 19.2343 11.3914 18.4524 11.7009V10.6487C19.2324 10.3392 19.911 9.96971 20.4628 9.55383H20.4667Z" fill="#B5B5B5"/>
<path d="M19.1368 5.97148V7.02375C19.1368 7.24814 19.1056 7.46865 19.0451 7.68529C18.9496 8.0238 18.7819 8.3507 18.5479 8.66406C18.3139 8.97742 18.0136 9.27531 17.6567 9.55579C17.6333 9.57513 17.608 9.59254 17.5846 9.61188C17.0327 10.0278 16.3522 10.3992 15.5702 10.7086C15.1334 10.8827 14.6654 11.0375 14.1721 11.171C12.8207 11.5365 11.2724 11.7435 9.6266 11.7435C8.9402 11.7435 8.27135 11.7068 7.6259 11.6391C6.62945 11.5327 5.68955 11.3508 4.83545 11.1033C3.17795 10.6235 1.84025 9.90203 1.01735 9.03545C0.600052 8.59636 0.315352 8.12052 0.188602 7.61953C0.188602 7.61759 0.186652 7.61566 0.186652 7.61179C0.137902 7.42029 0.114502 7.22492 0.114502 7.02569V5.97341L0.295852 6.10495C0.410902 5.81673 0.578602 5.53819 0.795052 5.27125C1.0466 4.95982 1.3625 4.66581 1.733 4.39307C2.11325 4.11259 2.55395 3.85339 3.0434 3.62127C4.75355 2.80885 7.0721 2.30786 9.6266 2.30786C14.2462 2.30786 18.0974 3.94043 18.9574 6.10688L19.1368 5.97148Z" fill="#890707"/>
<path d="M18.2339 5.01207L17.7445 5.1262L16.6603 5.3796C16.6993 5.42215 16.7402 5.46277 16.7773 5.50533C16.9762 5.73551 17.1322 5.9773 17.2375 6.22877C17.2804 6.33322 17.3155 6.43767 17.3428 6.54406L18.5342 6.47056L19.0646 6.43767C18.9398 5.93862 18.659 5.4589 18.2339 5.01207ZM11.6254 2.4104L11.5123 2.67153L11.2588 3.25377C11.6917 3.30019 12.1129 3.36209 12.5165 3.44333C12.8714 3.51297 13.2127 3.59614 13.5383 3.69093L14.1409 3.17833L14.4139 2.94621C13.5481 2.69475 12.6082 2.51292 11.6254 2.4104ZM4.01649 3.54779L3.67914 3.33888C3.40809 3.4472 3.14679 3.56326 2.89719 3.68706C2.43114 3.91724 2.01969 4.16871 1.66479 4.43564L2.11719 4.58265L3.11949 4.90762C3.41199 4.68711 3.74934 4.48207 4.12374 4.29444C4.32654 4.19385 4.54104 4.09907 4.7653 4.01009L4.01649 3.54779Z" fill="url(#paint28_linear_2_3266)"/>
<path d="M19.1372 5.97151C19.1372 6.19589 19.106 6.4164 19.0456 6.63305C18.95 6.97156 18.7823 7.30039 18.5483 7.61182C18.3143 7.92518 18.014 8.225 17.6572 8.50354C16.7914 9.17669 15.5921 9.73571 14.1725 10.1187C12.8212 10.4843 11.2729 10.6913 9.62709 10.6913C4.77939 10.6913 0.77799 8.89234 0.18909 6.56535C0.14034 6.37191 0.11499 6.17268 0.11499 5.97344C0.11499 5.35446 0.35679 4.76062 0.79359 4.21901C1.04514 3.90758 1.36104 3.61356 1.73154 3.34082C2.11179 3.06034 2.55249 2.80115 3.04194 2.56903C4.75209 1.75661 7.07064 1.25562 9.62514 1.25562C14.8765 1.25368 19.1372 3.36597 19.1372 5.97151Z" fill="url(#paint29_radial_2_3266)"/>
<path d="M2.47217 7.48995C2.27327 7.25977 2.11726 7.01798 2.01196 6.76652C1.96906 6.66206 1.93396 6.55761 1.90666 6.45122L0.715215 6.52473L0.184814 6.55761C0.307664 7.05473 0.588465 7.53444 1.01551 7.98321L1.50496 7.86908L2.58916 7.61569C2.54822 7.57313 2.50922 7.53251 2.47217 7.48995ZM17.1303 8.41263L16.128 8.08766C15.8355 8.30818 15.4982 8.51321 15.1238 8.70084C14.921 8.80143 14.7065 8.89621 14.4822 8.98519L15.231 9.44943L15.5684 9.65834C15.8394 9.55001 16.1007 9.43396 16.3503 9.31016C16.8164 9.07997 17.2278 8.82851 17.5808 8.56157L17.1303 8.41263ZM6.73097 9.55195C6.37607 9.48231 6.03482 9.39914 5.70722 9.30435L5.10466 9.81695L4.83362 10.0491C5.69942 10.3005 6.63932 10.4804 7.62407 10.5849L7.73716 10.3237L7.99066 9.74151C7.55582 9.69509 7.13462 9.63319 6.73097 9.55195ZM18.234 3.95787L17.7446 4.072L16.6604 4.32539C16.6994 4.36795 16.7403 4.40857 16.7774 4.45113C16.9763 4.68131 17.1323 4.9231 17.2376 5.17456C17.2805 5.27902 17.3156 5.38347 17.3429 5.48986L18.5343 5.41635L19.0647 5.38347C18.9399 4.88635 18.6591 4.40664 18.234 3.95787ZM11.6255 1.3562L11.5124 1.61734L11.2589 2.19957C11.6918 2.24599 12.113 2.30789 12.5166 2.38913C12.8715 2.45877 13.2128 2.54194 13.5384 2.63673L14.141 2.12413L14.414 1.89201C13.5482 1.64248 12.6083 1.46065 11.6255 1.3562ZM4.01656 2.49552L3.67922 2.28661C3.40816 2.39493 3.14686 2.51099 2.89726 2.63479C2.43121 2.86498 2.01977 3.11644 1.66487 3.38338L2.11726 3.53039L3.11956 3.85535C3.41206 3.63484 3.74941 3.4298 4.12381 3.24217C4.32661 3.14159 4.54112 3.0468 4.76537 2.95782L4.01656 2.49552Z" fill="url(#paint30_linear_2_3266)"/>
<path d="M15.2269 7.78398C14.9734 7.97741 14.6809 8.15537 14.3533 8.31785C14.0432 8.47066 13.702 8.60994 13.3373 8.7318C12.998 8.84399 12.6353 8.94264 12.2551 9.02388C11.8553 9.10899 11.4361 9.17476 11.0012 9.22118C10.5566 9.26761 10.0945 9.29275 9.62257 9.29275C9.17407 9.29275 8.73727 9.26954 8.31412 9.22892C7.90657 9.1883 7.51267 9.13027 7.13437 9.05483C6.72487 8.97359 6.33487 8.87107 5.96827 8.75308C5.58022 8.62734 5.21752 8.48227 4.89187 8.31979C4.58182 8.16697 4.30297 7.99675 4.05727 7.81493C3.82912 7.64664 3.63217 7.46675 3.46837 7.27912C3.29677 7.08182 3.16222 6.87291 3.07057 6.6582C2.97697 6.43768 2.92627 6.20943 2.92627 5.97345C2.92627 5.751 2.97112 5.53435 3.05497 5.32351C3.13687 5.12041 3.25582 4.92504 3.40792 4.73741C3.57367 4.5343 3.77647 4.34087 4.01632 4.15904C4.26982 3.96561 4.56232 3.78765 4.88992 3.62517C5.19997 3.47236 5.54122 3.33309 5.90587 3.21122C6.24517 3.09903 6.60787 3.00038 6.98812 2.91914C7.38787 2.83403 7.80712 2.76826 8.24197 2.72184C8.68657 2.67542 9.14872 2.65027 9.62062 2.65027C10.0691 2.65027 10.5059 2.67348 10.9291 2.7141C11.3366 2.75472 11.7305 2.81275 12.1088 2.88819C12.5183 2.96943 12.9083 3.07195 13.2749 3.18995C13.663 3.31568 14.0257 3.46075 14.3513 3.62324C14.6614 3.77605 14.9402 3.94627 15.1859 4.1281C15.4141 4.29638 15.611 4.47628 15.7748 4.66391C15.9464 4.86121 16.081 5.07011 16.1707 5.28482C16.2643 5.50534 16.315 5.73359 16.315 5.96958C16.315 6.19202 16.2701 6.40867 16.1863 6.61951C16.1044 6.82262 15.9854 7.01798 15.8333 7.20561C15.6715 7.40872 15.4667 7.60215 15.2269 7.78398Z" fill="#E01E43"/>
<path d="M9.6227 9.552C13.6096 9.552 16.8416 7.94898 16.8416 5.97155C16.8416 3.99413 13.6096 2.39111 9.6227 2.39111C5.63582 2.39111 2.40381 3.99413 2.40381 5.97155C2.40381 7.94898 5.63582 9.552 9.6227 9.552Z" fill="url(#paint31_radial_2_3266)"/>
<path d="M12.8459 8.39722C12.9044 8.43204 12.9356 8.46686 12.9512 8.48814C12.9746 8.43978 13.0097 8.34886 13.0019 8.23667C12.9961 8.15543 12.9688 8.06258 12.9005 7.962C12.7562 7.75503 12.5008 7.62542 12.3721 7.56739C12.4423 7.57126 12.5476 7.58094 12.6626 7.60608C12.7718 7.63123 12.8498 7.66218 12.9005 7.68539C12.9005 7.68539 12.9805 7.35655 12.3974 7.12057C11.8163 6.88458 11.8417 6.67374 11.7637 6.29267C11.7442 5.95997 12.3526 5.58277 12.7153 5.39514C12.92 5.28876 12.9805 5.12821 12.8498 4.99474C12.8284 4.97152 12.8011 4.95025 12.7679 4.92704C12.5417 4.76649 12.2102 4.72587 12.1342 4.71619C12.1615 4.72973 12.2141 4.76068 12.2395 4.80904C12.2707 4.8632 12.2492 4.90769 12.2395 4.92704C11.8963 5.09726 11.3932 5.1108 11.3932 5.1108C11.3932 5.1108 12.0269 4.63689 12.1069 4.26936C12.14 4.11462 12.025 3.8941 11.5784 3.62523C11.5199 3.56333 11.3912 3.52852 11.2625 3.53432C11.1143 3.54012 10.9895 3.60009 10.972 3.67939L9.04147 4.67751C9.04147 4.67751 8.03722 4.67751 7.48147 4.97926C6.96082 5.26361 6.00142 5.71431 6.00142 5.71431H6.34463C6.03068 5.84971 5.66213 5.99285 5.23313 6.13406C4.85288 6.25979 4.48628 6.36424 4.14893 6.44935C4.27568 6.52286 4.50773 6.63698 4.86263 6.72596C5.25458 6.82268 5.61338 6.84202 5.81423 6.84396C5.81423 6.93874 5.78888 7.1225 5.57633 7.31787C5.44178 7.44166 5.27603 7.52677 5.15318 7.58094C5.19413 7.59061 5.27993 7.60802 5.39108 7.60802C5.48858 7.60608 5.56268 7.59061 5.60363 7.58094C5.51393 7.7144 5.33648 7.91944 4.98938 8.13029C4.84118 8.21926 4.68908 8.29277 4.54283 8.35467C5.78303 9.03942 7.58288 9.47077 9.58552 9.47077C10.8004 9.47077 11.9392 9.31216 12.9259 9.03555C12.9161 8.93496 12.8986 8.81504 12.8654 8.70478C12.844 8.63128 12.805 8.50748 12.7016 8.35273C12.6958 8.345 12.6919 8.33726 12.688 8.33339C12.6977 8.33726 12.7114 8.34113 12.725 8.345C12.7601 8.35467 12.803 8.37208 12.8459 8.39722ZM7.97482 5.50347L8.36287 5.0547L9.04927 4.99667C8.69242 5.16496 8.33362 5.33324 7.97482 5.50347Z" fill="url(#paint32_radial_2_3266)"/>
<path d="M12.7231 8.34305C12.7094 8.33918 12.6977 8.33531 12.686 8.33145C12.6899 8.33531 12.6938 8.34305 12.6997 8.35079C12.803 8.50554 12.8401 8.62933 12.8635 8.70284C12.8966 8.81503 12.9161 8.93302 12.9239 9.03361C11.9392 9.31215 10.7984 9.46883 9.58355 9.46883C9.1253 9.46883 8.67875 9.44562 8.2478 9.40306C10.1237 9.08583 11.3561 8.31017 11.0695 7.21534C10.8433 6.34876 12.1108 5.7762 12.1303 5.75879C12.0698 5.82069 11.7422 6.04314 11.7617 6.29266C11.8417 6.67373 11.8144 6.88457 12.3955 7.12056C12.9766 7.35654 12.8986 7.68538 12.8986 7.68538C12.8479 7.66217 12.7699 7.63122 12.6607 7.60607C12.5456 7.57899 12.4403 7.56932 12.3701 7.56739C12.5008 7.62542 12.7543 7.75308 12.8986 7.96199C12.9668 8.06064 12.9961 8.15542 13 8.23666C13.0078 8.34886 12.9727 8.43977 12.9512 8.48813C12.9356 8.46491 12.9044 8.43203 12.8459 8.39721C12.803 8.37207 12.7601 8.35466 12.7231 8.34305Z" fill="url(#paint33_radial_2_3266)"/>
<path d="M9.62278 9.6042C5.58433 9.6042 2.29858 7.9755 2.29858 5.97154C2.29858 3.96757 5.58433 2.33887 9.62278 2.33887C13.6612 2.33887 16.947 3.96757 16.947 5.97154C16.947 7.9755 13.6612 9.6042 9.62278 9.6042ZM9.62278 2.60387C5.87878 2.60387 2.83288 4.11458 2.83288 5.97154C2.83288 7.82849 5.87878 9.3392 9.62278 9.3392C13.3668 9.3392 16.4127 7.82849 16.4127 5.97154C16.4127 4.11458 13.3668 2.60387 9.62278 2.60387Z" fill="url(#paint34_linear_2_3266)"/>
<path d="M7.62199 10.5849V11.6372C6.62554 11.5308 5.68564 11.349 4.83154 11.1014V10.051H4.83349C5.68564 10.2986 6.62359 10.4804 7.61809 10.5868L7.62199 10.5849Z" fill="#B5B5B5"/>
<path d="M1.01356 7.9832V9.0316C0.596261 8.59251 0.311561 8.11667 0.184811 7.61568C0.184811 7.61374 0.182861 7.61181 0.182861 7.60794V6.55566C0.182861 6.5576 0.182861 6.55953 0.184811 6.56147C0.311561 7.06052 0.594311 7.53637 1.01161 7.97353L1.01356 7.9832Z" fill="#B5B5B5"/>
<path d="M17.5805 8.55774V9.60808C17.0287 10.024 16.3481 10.3954 15.5662 10.7048V9.65257C16.3462 9.34308 17.0248 8.97362 17.5766 8.55774H17.5805Z" fill="#B5B5B5"/>
<path d="M25.1058 8.22491C25.0298 7.82064 24.9225 7.4241 24.788 7.0353C24.5676 6.39891 24.2732 5.78573 23.9163 5.20736C23.2377 4.10479 22.3329 3.12022 21.2858 2.34069C20.7242 1.92094 20.1216 1.56115 19.4879 1.271C18.8385 0.973118 18.158 0.75067 17.4579 0.617202C16.0598 0.352199 14.7318 0.462455 13.5833 0.89381C13.5365 0.911219 13.4897 0.930563 13.4429 0.949906C13.4409 0.949906 13.4409 0.95184 13.439 0.95184C13.3824 0.975052 13.3239 1.0002 13.2674 1.02534C13.1484 1.07757 13.0314 1.13367 12.9164 1.19363C12.7253 1.29228 12.54 1.40254 12.3626 1.52247C11.9511 1.79908 11.5767 2.12598 11.2491 2.4993C11.2316 2.51865 11.214 2.53799 11.1984 2.55927C10.8923 2.91712 10.629 3.31752 10.4145 3.75662C10.0089 4.58644 9.78076 5.54974 9.78076 6.61555C9.78076 6.96373 9.80416 7.31191 9.85291 7.66009C9.85291 7.66396 9.85291 7.66783 9.85486 7.6717C9.98356 8.60017 10.2702 9.50157 10.6895 10.3507C11.5397 12.0742 12.9203 13.5501 14.5817 14.5328C15.4143 15.0241 16.3113 15.3897 17.2434 15.6005C17.8362 15.734 18.4407 15.8036 19.0491 15.8036C20.4297 15.8036 21.6348 15.4303 22.6059 14.7958V14.7978L23.1578 14.4515L23.0973 14.438C23.4717 14.1324 23.8013 13.7822 24.084 13.3973C24.3804 12.9911 24.6242 12.5462 24.8114 12.0704C24.8816 11.8905 24.944 11.7048 24.9986 11.5171C25.0766 11.2463 25.1351 10.9678 25.178 10.6834C25.2482 10.2095 25.2677 9.71628 25.2365 9.20755C25.2092 8.88258 25.1682 8.55568 25.1058 8.22491ZM11.8965 9.77238L11.4188 9.9542C11.3915 9.89811 11.3622 9.84008 11.3349 9.78398C11.3154 9.74143 11.294 9.69887 11.2745 9.65438C11.2628 9.62923 11.2511 9.60409 11.2413 9.57894C11.2296 9.5538 11.2199 9.52865 11.2082 9.5035C11.175 9.42807 11.1438 9.35263 11.1126 9.27525C11.1029 9.25011 11.0931 9.22496 11.0834 9.19981C11.0697 9.16306 11.0541 9.12631 11.0405 9.08956C11.0288 9.06054 11.019 9.03153 11.0073 9.00251C10.9976 8.9793 10.9898 8.95609 10.982 8.93094C10.9781 8.91934 10.9742 8.9058 10.9683 8.89419C10.9527 8.85164 10.9391 8.80908 10.9254 8.76653C10.9235 8.76266 10.9215 8.75879 10.9215 8.75492C10.9196 8.74911 10.9176 8.74525 10.9157 8.73944C10.8962 8.68141 10.8786 8.62145 10.8591 8.56342C10.8494 8.53441 10.8416 8.50539 10.8338 8.47638C10.8338 8.47444 10.8318 8.47057 10.8318 8.46864C10.8201 8.42802 10.8084 8.3874 10.7967 8.34678C10.7909 8.32743 10.787 8.30809 10.7811 8.28875C10.7733 8.25973 10.7655 8.23072 10.7577 8.19977C10.7499 8.17269 10.7441 8.14561 10.7363 8.11853C10.7324 8.10692 10.7304 8.09531 10.7265 8.08177C10.7207 8.05469 10.7129 8.02761 10.707 8.00053C10.7012 7.97152 10.6934 7.9425 10.6875 7.91349C10.6836 7.89221 10.6778 7.87287 10.6739 7.85159C10.67 7.83031 10.6641 7.80903 10.6602 7.78776C10.6524 7.751 10.6466 7.71425 10.6388 7.6775C10.6388 7.67363 10.6368 7.66976 10.6368 7.66396C10.6329 7.63688 10.6271 7.61173 10.6212 7.58465C10.6173 7.56337 10.6134 7.5421 10.6095 7.52082C10.6076 7.50534 10.6037 7.4918 10.6017 7.47633C10.5978 7.45118 10.5939 7.42604 10.59 7.40089C10.5881 7.38542 10.5861 7.37187 10.5842 7.3564C10.5842 7.34866 10.5822 7.34286 10.5803 7.33512C10.5803 7.32932 10.5783 7.32352 10.5783 7.31965C10.5783 7.31191 10.5764 7.30224 10.5744 7.2945C10.5744 7.29063 10.5744 7.28676 10.5725 7.28483L11.0873 7.27516L12.2202 7.25582C12.2495 7.44344 12.2865 7.63107 12.3333 7.81677C12.4445 8.2694 12.6044 8.7143 12.8052 9.14372C12.8423 9.22303 12.8832 9.30233 12.9222 9.38164L11.8965 9.77238ZM17.9825 14.672L17.9259 15.1788C17.0133 14.968 16.1163 14.6024 15.2681 14.0937L15.4982 13.6449L15.9954 12.6739C16.3055 12.8634 16.6292 13.0317 16.9587 13.1749C17.3331 13.3373 17.7173 13.4669 18.1073 13.5637L17.9825 14.672Z" fill="#890707"/>
<path d="M23.7913 7.67167C23.7328 7.32349 23.6412 6.98111 23.5222 6.65034C23.4072 6.32925 23.2648 6.01588 23.101 5.71606C22.945 5.43172 22.7676 5.15898 22.5726 4.89784C22.3639 4.6193 22.1338 4.3543 21.8862 4.1067C21.6249 3.84557 21.3421 3.60571 21.0457 3.38713C20.7649 3.18209 20.4685 2.9964 20.1624 2.83585C19.8777 2.68691 19.5832 2.55731 19.279 2.45285C18.9612 2.3426 18.6355 2.25749 18.3021 2.20139C17.9472 2.14143 17.602 2.11821 17.2666 2.12595C16.9371 2.13369 16.6192 2.17431 16.315 2.24394C16.0225 2.31165 15.7437 2.40643 15.4804 2.52829C15.1938 2.65983 14.9266 2.82231 14.6829 3.01381C14.4235 3.21885 14.1895 3.45484 13.9887 3.71984C13.7956 3.97324 13.6318 4.25178 13.5012 4.55547C13.3803 4.83788 13.2847 5.14157 13.2262 5.46267C13.1638 5.79924 13.1365 6.15516 13.1502 6.52848C13.1638 6.92502 13.2243 7.32156 13.3237 7.71229C13.4232 8.09529 13.5597 8.47248 13.7332 8.83614C13.899 9.18431 14.0959 9.51895 14.3202 9.83618C14.5288 10.1321 14.7609 10.4126 15.0124 10.6757C15.0534 10.7182 15.0943 10.7589 15.1353 10.8014C15.4512 11.1148 15.7963 11.3991 16.1629 11.6486C16.5061 11.8827 16.8688 12.0858 17.2452 12.2522C17.5903 12.405 17.9433 12.5268 18.304 12.6139C18.4717 12.6545 18.6414 12.6874 18.811 12.7145C19.0177 12.7454 19.2244 12.7648 19.4311 12.7725C19.827 12.786 20.2033 12.757 20.5582 12.6854C20.9014 12.6177 21.2232 12.5133 21.5215 12.3779C21.6853 12.3025 21.8413 12.2193 21.9895 12.1245C22.0948 12.0587 22.1982 11.9872 22.2957 11.9117C22.5453 11.7183 22.7695 11.4997 22.9645 11.256C23.1673 11.0026 23.337 10.7221 23.4754 10.4204C23.6022 10.1418 23.6997 9.84392 23.766 9.53249C23.8264 9.24815 23.8596 8.95219 23.8654 8.64657C23.8693 8.33127 23.8459 8.00631 23.7913 7.67167Z" fill="#E01E43"/>
<path d="M25.6964 7.87677C25.6418 7.58856 25.5716 7.30421 25.4858 7.02373C25.2674 6.30416 24.9535 5.61167 24.5635 4.96174C23.8147 3.71603 22.7753 2.6154 21.5702 1.78751C20.9384 1.35229 20.2598 0.990566 19.552 0.71976C19.0801 0.539868 18.5945 0.398662 18.1012 0.30388C16.4261 -0.019153 14.8544 0.205229 13.5752 0.880309C13.5323 0.903521 13.4894 0.926734 13.4465 0.949946C13.4231 0.963486 13.3978 0.977026 13.3744 0.990566C13.3061 1.03119 13.2379 1.07181 13.1696 1.11436C13.1677 1.1163 13.1657 1.1163 13.1638 1.11823C13.1267 1.14144 13.0897 1.16659 13.0526 1.19174C13.0331 1.20528 13.0117 1.21882 12.9922 1.23236C12.9727 1.2459 12.9532 1.25944 12.9356 1.27298C12.9005 1.29812 12.8635 1.32327 12.8284 1.35035C12.803 1.36969 12.7796 1.3871 12.7562 1.40645C12.7328 1.42579 12.7075 1.4432 12.6841 1.46254C12.6607 1.48189 12.6373 1.50123 12.6139 1.52057C12.3779 1.71594 12.1576 1.92872 11.9528 2.16277C11.9353 2.18405 11.9177 2.20339 11.9002 2.22467C11.5999 2.57865 11.3405 2.97519 11.1299 3.41041C10.7302 4.2325 10.5059 5.18999 10.5098 6.25C10.5098 6.59625 10.5352 6.94249 10.5839 7.2868L11.0987 7.27713L12.2317 7.25779C12.2609 7.44542 12.298 7.63305 12.3448 7.81874C12.4559 8.27138 12.6158 8.71627 12.8167 9.14569C12.8537 9.225 12.8947 9.30431 12.9337 9.38361L11.9002 9.77628L11.4224 9.95811C11.3951 9.90201 11.3659 9.84398 11.3386 9.78789C11.3191 9.74533 11.2976 9.70278 11.2781 9.65829C11.2664 9.63314 11.2547 9.608 11.245 9.58285C11.2333 9.5577 11.2216 9.53256 11.2118 9.50741C11.1787 9.43197 11.1475 9.35653 11.1163 9.27916C11.1065 9.25401 11.0968 9.22887 11.087 9.20372C11.0734 9.16697 11.0578 9.13022 11.0441 9.09346C11.0324 9.06445 11.0227 9.03543 11.011 9.00642C11.0012 8.98321 10.9934 8.96 10.9856 8.93485C10.9817 8.92324 10.9778 8.9097 10.972 8.8981C10.9564 8.85554 10.9427 8.81299 10.9291 8.77043C10.9271 8.76656 10.9252 8.7627 10.9252 8.75883C11.0597 9.1689 11.2255 9.57124 11.4185 9.96198C12.2629 11.6681 13.624 13.1285 15.2581 14.1072C16.0907 14.6063 16.9897 14.9758 17.9237 15.1885C18.5107 15.322 19.1093 15.3936 19.7119 15.3955C20.8936 15.3974 21.9466 15.1247 22.8299 14.645C22.8299 14.645 22.8299 14.645 22.8319 14.645C22.9898 14.5579 23.1439 14.4651 23.2921 14.3664C23.6353 14.1343 23.9492 13.8693 24.2281 13.5753C24.271 13.5289 24.3139 13.4825 24.3568 13.436C24.3802 13.4089 24.4036 13.3838 24.425 13.3567C24.4289 13.3529 24.4328 13.349 24.4348 13.3451C24.4543 13.3219 24.4738 13.2987 24.4933 13.2755C24.5167 13.2465 24.5401 13.2175 24.5635 13.1884C24.5849 13.1633 24.6044 13.1362 24.6239 13.1091C24.6278 13.1053 24.6298 13.1014 24.6337 13.0975C24.6473 13.0801 24.661 13.0627 24.6746 13.0434C24.6844 13.0298 24.6961 13.0163 24.7058 13.0008C24.7078 12.9989 24.7078 12.9969 24.7097 12.995C24.7468 12.9447 24.7819 12.8925 24.817 12.8403C24.8365 12.8112 24.856 12.7803 24.8755 12.7513C24.895 12.7223 24.9145 12.6913 24.932 12.6604C24.9515 12.6294 24.9691 12.6004 24.9886 12.5695C25.0061 12.5385 25.0256 12.5076 25.0432 12.4766C25.0588 12.4495 25.0744 12.4205 25.09 12.3934C25.1972 12.1981 25.2928 11.9969 25.3766 11.788C25.3883 11.759 25.4 11.728 25.4117 11.699C25.5814 11.2638 25.7023 10.8015 25.7705 10.3218C25.8388 9.85172 25.8583 9.3604 25.8251 8.85554C25.8017 8.52864 25.7588 8.20561 25.6964 7.87677ZM17.9822 14.6721L17.9257 15.1789C17.0131 14.968 16.1161 14.6024 15.2678 14.0937L15.4979 13.6449L15.9952 12.6739C16.3052 12.8635 16.6289 13.0318 16.9585 13.1749C17.3329 13.3374 17.717 13.467 18.107 13.5637L17.9822 14.6721Z" fill="url(#paint35_radial_2_3266)"/>
<path d="M24.1538 7.71041C24.6803 10.7647 22.7089 13.3432 19.4816 13.2465C15.9619 13.142 12.7736 9.97745 12.6703 6.47631C12.5747 3.25952 15.1819 1.30392 18.2648 1.83973C21.1216 2.33685 23.6644 4.87275 24.1538 7.71041Z" fill="url(#paint36_radial_2_3266)"/>
<path d="M22.0284 12.3219C22.0264 12.3064 22.0225 12.2929 22.0206 12.2774C22.0167 12.258 22.0128 12.2387 22.0089 12.2194C22.003 12.1923 21.9972 12.1671 21.9913 12.14C21.9894 12.1362 21.9894 12.1304 21.9874 12.1265C21.9816 12.1052 21.9777 12.082 21.9738 12.0607C21.966 12.0279 21.9582 11.995 21.9504 11.9621C21.9406 11.9234 21.9309 11.8847 21.9211 11.848C21.9153 11.8228 21.9075 11.7977 21.8997 11.7667C21.8938 11.7474 21.888 11.7261 21.8821 11.7048C21.8782 11.6913 21.8743 11.6758 21.8685 11.6623C21.8646 11.6468 21.8587 11.6313 21.8548 11.6158C21.849 11.6004 21.8451 11.5849 21.8392 11.5675C21.8353 11.5598 21.8334 11.552 21.8314 11.5423C21.8236 11.5211 21.8158 11.4979 21.808 11.4746C21.7983 11.4456 21.7866 11.4166 21.7749 11.3857C21.771 11.3741 21.7651 11.3625 21.7612 11.3508C21.7573 11.3392 21.7515 11.3276 21.7476 11.316C21.7378 11.2909 21.7281 11.2677 21.7164 11.2425C21.7105 11.229 21.7047 11.2174 21.7008 11.2096C21.7105 11.2154 21.7203 11.2232 21.732 11.2309C21.7632 11.2541 21.8022 11.2851 21.8392 11.3296C21.8938 11.3915 21.925 11.4514 21.9426 11.4901C21.9484 11.4089 21.9543 11.258 21.9231 11.0665C21.8997 10.9292 21.8568 10.7725 21.7807 10.6042C21.6228 10.2521 21.3985 10.0258 21.2854 9.92331C21.34 9.93298 21.4239 9.95426 21.5175 10.0046C21.5292 10.0104 21.5389 10.0162 21.5506 10.022C21.5721 10.0336 21.5896 10.0471 21.6091 10.0587C21.6189 10.0665 21.6286 10.0723 21.6384 10.08C21.6481 10.0877 21.6559 10.0935 21.6637 10.1013C21.6832 10.1167 21.6988 10.1303 21.7144 10.1438C21.7164 10.1458 21.7164 10.1458 21.7183 10.1477C21.7183 10.1458 21.7183 10.14 21.7164 10.1283C21.7164 10.1187 21.7144 10.1051 21.7125 10.0897C21.7125 10.0858 21.7125 10.0819 21.7105 10.0781C21.7086 10.0703 21.7086 10.0606 21.7066 10.051C21.7066 10.0452 21.7047 10.0413 21.7047 10.0355C21.7027 10.0258 21.7008 10.0142 21.6988 10.0026C21.6969 9.99101 21.693 9.97747 21.691 9.96587C21.6832 9.93105 21.6715 9.8943 21.6579 9.85368C21.6559 9.84594 21.652 9.8382 21.6501 9.82853C21.6481 9.82079 21.6442 9.81305 21.6423 9.80725C21.6364 9.78984 21.6286 9.77243 21.6228 9.75503C21.6189 9.74535 21.615 9.73568 21.6111 9.72794C21.5838 9.66798 21.5506 9.60415 21.5097 9.54032C21.5019 9.52871 21.496 9.5171 21.4882 9.50743C21.459 9.46294 21.4239 9.41845 21.3868 9.37396C21.3771 9.36236 21.3673 9.35075 21.3576 9.34108C21.3459 9.32754 21.3322 9.31206 21.3186 9.29852C21.3127 9.29079 21.3069 9.28498 21.2991 9.27918C21.2718 9.2521 21.2445 9.22695 21.2152 9.20181C20.7199 8.78206 20.6965 8.44549 20.56 7.83617C20.5581 7.8265 20.5561 7.81876 20.5561 7.80909C20.5366 7.64661 20.56 7.48219 20.6088 7.32744C20.6107 7.31971 20.6146 7.31197 20.6166 7.30423C20.6478 7.21138 20.6868 7.12047 20.7316 7.03729V7.03536C20.8428 6.82645 20.9832 6.64849 21.0904 6.52857C21.2191 6.38543 21.2308 6.15137 21.106 5.94246C21.0846 5.90765 21.0612 5.87089 21.0339 5.83414C20.835 5.57494 20.5854 5.48209 20.5269 5.46275C20.5503 5.48596 20.5951 5.53626 20.6224 5.60976C20.6556 5.69294 20.6497 5.7587 20.6458 5.78578C20.4235 6.00823 20.0511 5.98115 20.0511 5.98115C20.0511 5.98115 20.4333 5.33702 20.4216 4.80508C20.4177 4.58457 20.2909 4.25573 19.9165 3.82244C19.8619 3.72959 19.7625 3.66189 19.6689 3.65609C19.5597 3.64835 19.4797 3.71992 19.4797 3.83018L18.1732 5.0933C18.1732 5.0933 17.3796 4.98884 16.974 5.39505C16.5859 5.78578 15.8371 6.41637 15.8371 6.41637L16.1277 6.44926C15.8781 6.63882 15.5797 6.83999 15.2248 7.03536C14.905 7.21138 14.5911 7.35452 14.2986 7.46865C14.4195 7.60405 14.6359 7.8207 14.9596 8.00059C15.3165 8.19789 15.6324 8.25785 15.8079 8.2772C15.8196 8.43968 15.8196 8.75304 15.6538 9.07414C15.5485 9.28111 15.4101 9.42039 15.3067 9.5055C15.3438 9.52484 15.4218 9.56353 15.5232 9.56739C15.6109 9.57126 15.6733 9.54999 15.7084 9.53451C15.6441 9.7647 15.5095 10.1206 15.219 10.4765C15.1566 10.5539 15.0922 10.6235 15.0279 10.6874C15.0064 10.7086 14.983 10.7319 14.9596 10.7512C14.9167 10.7899 14.8738 10.8266 14.8329 10.8615C15.7708 11.8886 16.9876 12.6391 18.2922 12.9505C18.3097 12.9544 18.3273 12.9583 18.3448 12.9621C18.3819 12.9718 18.4189 12.9795 18.4579 12.9873C18.4657 12.9892 18.4755 12.9912 18.4833 12.9931C18.5125 12.9989 18.5398 13.0047 18.5671 13.0105C18.5944 13.0163 18.6237 13.0202 18.651 13.026C18.6763 13.0298 18.7017 13.0356 18.729 13.0395C18.7758 13.0472 18.8226 13.0531 18.8674 13.0608C18.8908 13.0647 18.9162 13.0666 18.9396 13.0705C18.963 13.0743 18.9883 13.0763 19.0117 13.0782C19.1326 13.0917 19.2535 13.1014 19.3744 13.1072C19.3978 13.1091 19.4232 13.1091 19.4466 13.1111C19.5694 13.115 19.6884 13.115 19.8073 13.1111C19.8678 13.1091 19.9263 13.1053 19.9848 13.1014C20.1603 13.0898 20.3319 13.0666 20.4996 13.0376C20.5288 13.0318 20.5561 13.0279 20.5834 13.0221C20.6263 13.0144 20.6692 13.0047 20.7102 12.995C20.7277 12.9912 20.7453 12.9873 20.7628 12.9834C20.8642 12.9583 20.9656 12.9312 21.0631 12.9002C21.1138 12.8828 21.1665 12.8674 21.2172 12.848C21.2464 12.8364 21.2776 12.8267 21.3069 12.8151C21.3225 12.8093 21.3381 12.8035 21.3537 12.7977C21.4531 12.7571 21.5526 12.7145 21.6462 12.6681C21.6676 12.6585 21.6871 12.6468 21.7086 12.6372C21.7261 12.6275 21.7456 12.6178 21.7651 12.6082C21.7866 12.5966 21.808 12.5849 21.8295 12.5733C21.847 12.5637 21.8626 12.554 21.8802 12.5463C21.9426 12.5114 22.003 12.4747 22.0615 12.436C22.042 12.3876 22.0342 12.3548 22.0284 12.3219ZM17.6838 5.58655L18.22 5.56721C17.9626 5.79159 17.7013 6.01984 17.4361 6.25002L17.6838 5.58655Z" fill="url(#paint37_radial_2_3266)"/>
<path d="M21.7281 11.225C21.7164 11.2173 21.7067 11.2096 21.6969 11.2037C21.7008 11.2115 21.7047 11.2231 21.7125 11.2366C21.8295 11.5055 21.8861 11.7163 21.9212 11.844C21.9738 12.0374 22.0167 12.2425 22.0479 12.4185C21.3342 12.8769 20.445 13.1284 19.433 13.0975C19.0449 13.0858 18.6588 13.0317 18.2786 12.9408C19.8093 12.4204 20.6498 11.1128 20.1993 9.25975C19.8542 7.84382 20.7122 7.04881 20.7219 7.02173C20.6888 7.11264 20.486 7.42987 20.5503 7.82254C20.6888 8.43185 20.7102 8.76843 21.2055 9.18818C21.7008 9.60793 21.7145 10.1399 21.7145 10.1399C21.6716 10.0992 21.6033 10.0451 21.5156 9.99673C21.42 9.94643 21.3381 9.92515 21.2835 9.91548C21.3966 10.018 21.6209 10.2443 21.7788 10.5964C21.8549 10.7647 21.8978 10.9233 21.9212 11.0606C21.9543 11.2521 21.9485 11.401 21.9426 11.4842C21.9251 11.4455 21.8939 11.3856 21.8393 11.3237C21.7983 11.2792 21.7593 11.2482 21.7281 11.225Z" fill="url(#paint38_radial_2_3266)"/>
<path d="M24.224 7.71818C23.7267 4.84764 21.1469 2.27305 18.255 1.76819C15.135 1.22271 12.4791 3.20733 12.5727 6.46667C12.6741 10.0162 15.9209 13.2388 19.4913 13.3413C22.7615 13.4361 24.7602 10.8112 24.224 7.71818ZM22.0088 12.2194C21.3048 12.6546 20.4351 12.8944 19.4387 12.8577C19.1832 12.848 18.9278 12.8229 18.6762 12.7803C17.2683 12.5405 15.9521 11.7919 14.9439 10.7415C13.8363 9.58674 13.1168 8.08183 13.0622 6.52083C12.9569 3.50521 15.3963 1.64439 18.294 2.13764C20.9948 2.59608 23.403 5.00045 23.8554 7.67949C24.183 9.61189 23.444 11.3296 22.0088 12.2194Z" fill="url(#paint39_linear_2_3266)"/>
<path d="M10.5801 7.29264C10.5801 7.28877 10.5801 7.2849 10.5781 7.28297C10.5801 7.29457 10.582 7.30812 10.584 7.31972C10.584 7.31005 10.582 7.30231 10.5801 7.29264ZM10.6659 7.78589C10.6581 7.74914 10.6522 7.71239 10.6444 7.67564C10.6464 7.68531 10.6483 7.69498 10.6503 7.70659C10.6542 7.73173 10.66 7.75881 10.6659 7.78589ZM10.6249 7.56731C10.6288 7.58472 10.6308 7.60407 10.6347 7.62148C10.6386 7.63888 10.6425 7.65823 10.6444 7.67564C10.6444 7.67177 10.6425 7.6679 10.6425 7.6621C10.6366 7.63115 10.6308 7.59826 10.6249 7.56731ZM25.3728 11.7803L25.012 11.525L24.9906 11.5095L24.2047 10.9524C24.0526 11.3006 23.8615 11.6255 23.6334 11.9215C23.5086 12.084 23.3721 12.2348 23.2278 12.3799L23.9142 13.1981L24.076 13.3916L24.2223 13.5657C24.2652 13.5192 24.3081 13.4728 24.349 13.4264C24.3724 13.3993 24.3958 13.3742 24.4173 13.3471C24.4212 13.3432 24.4251 13.3394 24.427 13.3355C24.4465 13.3123 24.466 13.2891 24.4855 13.2658C24.5089 13.2368 24.5323 13.2078 24.5557 13.1788C24.5772 13.1537 24.5967 13.1266 24.6162 13.0995C24.6201 13.0956 24.622 13.0918 24.6259 13.0879C24.6396 13.0705 24.6532 13.0531 24.6669 13.0337C24.6766 13.0202 24.6883 13.0066 24.6981 12.9912C24.7 12.9892 24.7 12.9873 24.702 12.9854C24.739 12.9351 24.7741 12.8829 24.8092 12.8306C24.8287 12.8016 24.8482 12.7707 24.8677 12.7416C24.8872 12.7126 24.9067 12.6817 24.9243 12.6507C24.9438 12.6198 24.9613 12.5908 24.9808 12.5598C24.9984 12.5289 25.0179 12.4979 25.0354 12.467C25.051 12.4399 25.0666 12.4109 25.0822 12.3838C25.1934 12.1904 25.2909 11.9892 25.3728 11.7803ZM24.5733 4.95791L24.5635 4.96177L24.2808 5.06816L23.9161 5.20743L23.6217 5.31962C23.6587 5.38152 23.6958 5.44536 23.7309 5.50726C23.92 5.85157 24.0858 6.20942 24.2203 6.57694C24.2769 6.72975 24.3256 6.8845 24.3724 7.04118L24.7897 7.03344L25.1485 7.02764L25.4878 7.02183H25.4898C25.2733 6.30807 24.9633 5.61364 24.5733 4.95791ZM19.552 0.713989V0.717858L19.515 1.04089L19.4896 1.26914L19.4311 1.78948C19.749 1.90747 20.061 2.04481 20.3593 2.20342C20.6206 2.34076 20.8761 2.49551 21.1218 2.66186L21.2875 2.34076L21.4377 2.04868L21.5722 1.78754L21.5781 1.77787C20.9385 1.33878 20.2579 0.980927 19.552 0.713989ZM18.1071 13.5637L17.9823 14.674L17.9257 15.1808C17.0131 14.97 16.1161 14.6044 15.2679 14.0957L15.498 13.6469L15.9952 12.6759C16.3053 12.8654 16.629 13.0337 16.9585 13.1769C17.3329 13.3374 17.7171 13.467 18.1071 13.5637ZM12.9298 9.37978L11.8963 9.77245L11.4186 9.95428C11.1924 9.49971 11.0052 9.03354 10.8609 8.5635C10.8511 8.53448 10.8433 8.50547 10.8355 8.47645C10.8355 8.47452 10.8336 8.47065 10.8336 8.46871C10.8219 8.42809 10.8102 8.38747 10.7985 8.34685C10.7926 8.32751 10.7887 8.30816 10.7829 8.28882C10.7751 8.2598 10.7673 8.23079 10.7595 8.19984C10.7517 8.17276 10.7458 8.14568 10.738 8.1186C10.7341 8.10699 10.7322 8.09539 10.7283 8.08185C10.7224 8.05477 10.7146 8.02769 10.7088 8.00061C10.6542 7.76655 10.6113 7.53056 10.5781 7.29458C10.5781 7.29071 10.5781 7.28684 10.5762 7.2849L11.091 7.27523L12.2239 7.25589C12.2532 7.44352 12.2902 7.63115 12.337 7.81684C12.4482 8.26948 12.6081 8.71437 12.8089 9.14379C12.8499 9.2231 12.8889 9.30047 12.9298 9.37978ZM14.523 2.00999C14.3455 2.11057 14.172 2.22083 14.0101 2.34269C13.7059 2.57288 13.431 2.83982 13.1931 3.13964L12.298 2.50711L11.8924 2.22083C12.1947 1.86492 12.5418 1.54768 12.9318 1.27108C13.1365 1.126 13.351 0.994467 13.5714 0.878407L13.8658 1.22852L14.523 2.00999Z" fill="url(#paint40_linear_2_3266)"/>
<path d="M11.4189 9.95425L11.415 9.95618L10.6915 10.3469L10.6876 10.3488C10.2684 9.50161 9.98172 8.59828 9.85302 7.66981C9.85302 7.66594 9.85302 7.66207 9.85107 7.6582L10.5784 7.28101C10.5784 7.28487 10.5784 7.28874 10.5804 7.29068C10.6057 7.4667 10.6369 7.64272 10.672 7.81875C10.672 7.82068 10.672 7.82068 10.672 7.82262C10.6837 7.88065 10.6974 7.94061 10.711 7.99864C10.7169 8.02572 10.7247 8.0528 10.7305 8.07988C10.7344 8.09149 10.7364 8.10503 10.7403 8.11664C10.7481 8.14372 10.7539 8.1708 10.7617 8.19788C10.7695 8.22689 10.7773 8.25591 10.7851 8.28686C10.791 8.3062 10.7949 8.32554 10.8007 8.34489C10.8124 8.38551 10.8241 8.42613 10.8358 8.46675C10.8358 8.46868 10.8378 8.47255 10.8378 8.47449C10.8456 8.5035 10.8553 8.53252 10.8631 8.56153C10.8807 8.61956 10.9002 8.67953 10.9197 8.73756C10.9197 8.73756 10.9197 8.73756 10.9197 8.73949C11.0542 9.14957 11.2219 9.55577 11.4189 9.95425Z" fill="#B5B5B5"/>
<path d="M17.926 15.1789L17.9221 15.1808L17.2474 15.5928L17.2416 15.5948C16.3095 15.3858 15.4105 15.0203 14.5798 14.527L14.5681 14.5038L15.2565 14.0976L15.2682 14.0898C16.1164 14.6044 17.0134 14.97 17.926 15.1789Z" fill="#B5B5B5"/>
<path d="M13.5716 0.876465C13.5268 0.899677 13.4819 0.924823 13.4371 0.949969C13.3435 1.0022 13.2518 1.05829 13.1602 1.11632C13.1231 1.13953 13.0861 1.16468 13.049 1.18983C13.0276 1.20337 13.0081 1.21691 12.9866 1.23238C12.9671 1.24592 12.9496 1.25753 12.932 1.27107C12.8969 1.29621 12.8599 1.32136 12.8248 1.34844C12.7994 1.36585 12.776 1.38519 12.7526 1.40454C12.7292 1.42388 12.7039 1.44129 12.6805 1.46063C12.6571 1.47997 12.6337 1.49932 12.6103 1.51866C12.349 1.73144 12.1111 1.96743 11.8946 2.22082L11.1965 2.5574C11.2141 2.53805 11.2297 2.51678 11.2472 2.49743C11.5748 2.12217 11.9492 1.79527 12.3607 1.5206C12.5381 1.40067 12.7234 1.29235 12.9145 1.19176L13.2655 1.02347L13.5716 0.876465Z" fill="#B5B5B5"/>
</g>
<defs>
<linearGradient id="paint0_linear_2_3266" x1="3.91338" y1="8.50643" x2="21.3119" y2="8.50643" gradientUnits="userSpaceOnUse">
<stop stop-color="#E0E0E0"/>
<stop offset="0.5531" stop-color="white"/>
<stop offset="0.9944" stop-color="#E0E0E0"/>
</linearGradient>
<radialGradient id="paint1_radial_2_3266" cx="0" cy="0" r="1" gradientUnits="userSpaceOnUse" gradientTransform="translate(16.5529 5.41918) scale(24.5152 12.1591)">
<stop stop-color="#EB1C1A"/>
<stop offset="1" stop-color="#A90216"/>
</radialGradient>
<linearGradient id="paint2_linear_2_3266" x1="2.43187" y1="10.0005" x2="21.3119" y2="10.0005" gradientUnits="userSpaceOnUse">
<stop stop-color="#E0E0E0"/>
<stop offset="0.5531" stop-color="white"/>
<stop offset="0.9944" stop-color="#E0E0E0"/>
</linearGradient>
<radialGradient id="paint3_radial_2_3266" cx="0" cy="0" r="1" gradientUnits="userSpaceOnUse" gradientTransform="translate(19.4432 7.51911) scale(13.6158 6.75318)">
<stop stop-color="white"/>
<stop offset="1" stop-color="#E0E0E0"/>
</radialGradient>
<radialGradient id="paint4_radial_2_3266" cx="0" cy="0" r="1" gradientUnits="userSpaceOnUse" gradientTransform="translate(5.54783 13.9241) scale(11.7785 5.84193)">
<stop stop-color="#A90216"/>
<stop offset="1" stop-color="#EB1C1A"/>
</radialGradient>
<radialGradient id="paint5_radial_2_3266" cx="0" cy="0" r="1" gradientUnits="userSpaceOnUse" gradientTransform="translate(15.5078 9.53151) scale(12.4088 6.15454)">
<stop stop-color="#EB1C1A"/>
<stop offset="1" stop-color="#A90216"/>
</radialGradient>
<linearGradient id="paint6_linear_2_3266" x1="4.5482" y1="10.0005" x2="19.195" y2="10.0005" gradientUnits="userSpaceOnUse">
<stop stop-color="#A90216"/>
<stop offset="1" stop-color="#EB1C1A"/>
</linearGradient>
<linearGradient id="paint7_linear_2_3266" x1="3.91648" y1="7.4726" x2="21.3149" y2="7.4726" gradientUnits="userSpaceOnUse">
<stop stop-color="#E0E0E0"/>
<stop offset="0.5531" stop-color="white"/>
<stop offset="0.9944" stop-color="#E0E0E0"/>
</linearGradient>
<radialGradient id="paint8_radial_2_3266" cx="0" cy="0" r="1" gradientUnits="userSpaceOnUse" gradientTransform="translate(16.5564 4.38535) scale(24.5152 12.1591)">
<stop stop-color="#EB1C1A"/>
<stop offset="1" stop-color="#A90216"/>
</radialGradient>
<linearGradient id="paint9_linear_2_3266" x1="2.43521" y1="8.96672" x2="21.3153" y2="8.96672" gradientUnits="userSpaceOnUse">
<stop stop-color="#E0E0E0"/>
<stop offset="0.5531" stop-color="white"/>
<stop offset="0.9944" stop-color="#E0E0E0"/>
</linearGradient>
<radialGradient id="paint10_radial_2_3266" cx="0" cy="0" r="1" gradientUnits="userSpaceOnUse" gradientTransform="translate(19.4466 6.48528) scale(13.6158 6.75318)">
<stop stop-color="white"/>
<stop offset="1" stop-color="#E0E0E0"/>
</radialGradient>
<radialGradient id="paint11_radial_2_3266" cx="0" cy="0" r="1" gradientUnits="userSpaceOnUse" gradientTransform="translate(5.55092 12.8903) scale(11.7785 5.84193)">
<stop stop-color="#A90216"/>
<stop offset="1" stop-color="#EB1C1A"/>
</radialGradient>
<radialGradient id="paint12_radial_2_3266" cx="0" cy="0" r="1" gradientUnits="userSpaceOnUse" gradientTransform="translate(15.5112 8.49768) scale(12.4088 6.15454)">
<stop stop-color="#EB1C1A"/>
<stop offset="1" stop-color="#A90216"/>
</radialGradient>
<linearGradient id="paint13_linear_2_3266" x1="4.55154" y1="8.96671" x2="19.1983" y2="8.96671" gradientUnits="userSpaceOnUse">
<stop stop-color="#A90216"/>
<stop offset="1" stop-color="#EB1C1A"/>
</linearGradient>
<linearGradient id="paint14_linear_2_3266" x1="4.55007" y1="6.46642" x2="21.9485" y2="6.46642" gradientUnits="userSpaceOnUse">
<stop stop-color="#E0E0E0"/>
<stop offset="0.5531" stop-color="white"/>
<stop offset="0.9944" stop-color="#E0E0E0"/>
</linearGradient>
<radialGradient id="paint15_radial_2_3266" cx="0" cy="0" r="1" gradientUnits="userSpaceOnUse" gradientTransform="translate(17.1896 3.37917) scale(24.5152 12.1591)">
<stop stop-color="#EB1C1A"/>
<stop offset="1" stop-color="#A90216"/>
</radialGradient>
<linearGradient id="paint16_linear_2_3266" x1="3.06856" y1="7.96054" x2="21.9486" y2="7.96054" gradientUnits="userSpaceOnUse">
<stop stop-color="#E0E0E0"/>
<stop offset="0.5531" stop-color="white"/>
<stop offset="0.9944" stop-color="#E0E0E0"/>
</linearGradient>
<radialGradient id="paint17_radial_2_3266" cx="0" cy="0" r="1" gradientUnits="userSpaceOnUse" gradientTransform="translate(20.0799 5.4791) scale(13.6158 6.75318)">
<stop stop-color="white"/>
<stop offset="1" stop-color="#E0E0E0"/>
</radialGradient>
<radialGradient id="paint18_radial_2_3266" cx="0" cy="0" r="1" gradientUnits="userSpaceOnUse" gradientTransform="translate(6.18453 11.8842) scale(11.7785 5.84193)">
<stop stop-color="#A90216"/>
<stop offset="1" stop-color="#EB1C1A"/>
</radialGradient>
<radialGradient id="paint19_radial_2_3266" cx="0" cy="0" r="1" gradientUnits="userSpaceOnUse" gradientTransform="translate(16.1445 7.49137) scale(12.4088 6.15453)">
<stop stop-color="#EB1C1A"/>
<stop offset="1" stop-color="#A90216"/>
</radialGradient>
<linearGradient id="paint20_linear_2_3266" x1="5.1849" y1="7.96052" x2="19.8317" y2="7.96052" gradientUnits="userSpaceOnUse">
<stop stop-color="#A90216"/>
<stop offset="1" stop-color="#EB1C1A"/>
</linearGradient>
<linearGradient id="paint21_linear_2_3266" x1="4.55007" y1="5.47159" x2="21.9485" y2="5.47159" gradientUnits="userSpaceOnUse">
<stop stop-color="#E0E0E0"/>
<stop offset="0.5531" stop-color="white"/>
<stop offset="0.9944" stop-color="#E0E0E0"/>
</linearGradient>
<radialGradient id="paint22_radial_2_3266" cx="0" cy="0" r="1" gradientUnits="userSpaceOnUse" gradientTransform="translate(17.1896 2.38434) scale(24.5152 12.1591)">
<stop stop-color="#EB1C1A"/>
<stop offset="1" stop-color="#A90216"/>
</radialGradient>
<linearGradient id="paint23_linear_2_3266" x1="3.06856" y1="6.96571" x2="21.9486" y2="6.96571" gradientUnits="userSpaceOnUse">
<stop stop-color="#E0E0E0"/>
<stop offset="0.5531" stop-color="white"/>
<stop offset="0.9944" stop-color="#E0E0E0"/>
</linearGradient>
<radialGradient id="paint24_radial_2_3266" cx="0" cy="0" r="1" gradientUnits="userSpaceOnUse" gradientTransform="translate(20.0799 4.48427) scale(13.6158 6.75319)">
<stop stop-color="white"/>
<stop offset="1" stop-color="#E0E0E0"/>
</radialGradient>
<radialGradient id="paint25_radial_2_3266" cx="0" cy="0" r="1" gradientUnits="userSpaceOnUse" gradientTransform="translate(6.18453 10.8893) scale(11.7785 5.84193)">
<stop stop-color="#A90216"/>
<stop offset="1" stop-color="#EB1C1A"/>
</radialGradient>
<radialGradient id="paint26_radial_2_3266" cx="0" cy="0" r="1" gradientUnits="userSpaceOnUse" gradientTransform="translate(16.1445 6.49654) scale(12.4088 6.15453)">
<stop stop-color="#EB1C1A"/>
<stop offset="1" stop-color="#A90216"/>
</radialGradient>
<linearGradient id="paint27_linear_2_3266" x1="5.1849" y1="6.96569" x2="19.8317" y2="6.96569" gradientUnits="userSpaceOnUse">
<stop stop-color="#A90216"/>
<stop offset="1" stop-color="#EB1C1A"/>
</linearGradient>
<linearGradient id="paint28_linear_2_3266" x1="1.66545" y1="4.47688" x2="19.0639" y2="4.47688" gradientUnits="userSpaceOnUse">
<stop stop-color="#E0E0E0"/>
<stop offset="0.5531" stop-color="white"/>
<stop offset="0.9944" stop-color="#E0E0E0"/>
</linearGradient>
<radialGradient id="paint29_radial_2_3266" cx="0" cy="0" r="1" gradientUnits="userSpaceOnUse" gradientTransform="translate(14.3054 1.38963) scale(24.5152 12.1591)">
<stop stop-color="#EB1C1A"/>
<stop offset="1" stop-color="#A90216"/>
</radialGradient>
<linearGradient id="paint30_linear_2_3266" x1="0.183935" y1="5.97098" x2="19.064" y2="5.97098" gradientUnits="userSpaceOnUse">
<stop stop-color="#E0E0E0"/>
<stop offset="0.5531" stop-color="white"/>
<stop offset="0.9944" stop-color="#E0E0E0"/>
</linearGradient>
<radialGradient id="paint31_radial_2_3266" cx="0" cy="0" r="1" gradientUnits="userSpaceOnUse" gradientTransform="translate(17.1953 3.48956) scale(13.6158 6.75318)">
<stop stop-color="white"/>
<stop offset="1" stop-color="#E0E0E0"/>
</radialGradient>
<radialGradient id="paint32_radial_2_3266" cx="0" cy="0" r="1" gradientUnits="userSpaceOnUse" gradientTransform="translate(3.29965 9.89467) scale(11.7785 5.84193)">
<stop stop-color="#A90216"/>
<stop offset="1" stop-color="#EB1C1A"/>
</radialGradient>
<radialGradient id="paint33_radial_2_3266" cx="0" cy="0" r="1" gradientUnits="userSpaceOnUse" gradientTransform="translate(13.2599 5.50195) scale(12.4088 6.15454)">
<stop stop-color="#EB1C1A"/>
<stop offset="1" stop-color="#A90216"/>
</radialGradient>
<linearGradient id="paint34_linear_2_3266" x1="2.30027" y1="5.97098" x2="16.947" y2="5.97098" gradientUnits="userSpaceOnUse">
<stop stop-color="#A90216"/>
<stop offset="1" stop-color="#EB1C1A"/>
</linearGradient>
<radialGradient id="paint35_radial_2_3266" cx="0" cy="0" r="1" gradientUnits="userSpaceOnUse" gradientTransform="translate(21.9438 0.376585) scale(19.7851 19.626)">
<stop stop-color="#EB1C1A"/>
<stop offset="1" stop-color="#A90216"/>
</radialGradient>
<radialGradient id="paint36_radial_2_3266" cx="0" cy="0" r="1" gradientUnits="userSpaceOnUse" gradientTransform="translate(24.5202 3.51747) scale(10.9302 10.8424)">
<stop stop-color="white"/>
<stop offset="1" stop-color="#E0E0E0"/>
</radialGradient>
<radialGradient id="paint37_radial_2_3266" cx="0" cy="0" r="1" gradientUnits="userSpaceOnUse" gradientTransform="translate(13.5398 13.7767) scale(10.3207 10.2378)">
<stop stop-color="#A90216"/>
<stop offset="1" stop-color="#EB1C1A"/>
</radialGradient>
<radialGradient id="paint38_radial_2_3266" cx="0" cy="0" r="1" gradientUnits="userSpaceOnUse" gradientTransform="translate(22.2519 6.59838) scale(10.1652 10.0835)">
<stop stop-color="#EB1C1A"/>
<stop offset="1" stop-color="#A90216"/>
</radialGradient>
<linearGradient id="paint39_linear_2_3266" x1="12.5702" y1="7.51235" x2="24.3108" y2="7.51235" gradientUnits="userSpaceOnUse">
<stop stop-color="#A90216"/>
<stop offset="1" stop-color="#EB1C1A"/>
</linearGradient>
<linearGradient id="paint40_linear_2_3266" x1="10.5789" y1="7.94674" x2="25.4878" y2="7.94674" gradientUnits="userSpaceOnUse">
<stop stop-color="#E0E0E0"/>
<stop offset="0.5531" stop-color="white"/>
<stop offset="0.9944" stop-color="#E0E0E0"/>
</linearGradient>
<clipPath id="clip0_2_3266">
<rect width="26" height="16" fill="white"/>
</clipPath>
</defs>
</svg>
