<svg width="28" height="31" viewBox="0 0 28 31" fill="none" xmlns="http://www.w3.org/2000/svg">
<ellipse cx="13.8229" cy="15.5253" rx="10.3079" ry="12.4475" transform="rotate(-15 13.8229 15.5253)" fill="#292940"/>
<ellipse cx="14.5812" cy="15.3223" rx="9.52256" ry="12.4475" transform="rotate(-15 14.5812 15.3223)" fill="#2C2C3D"/>
<path fill-rule="evenodd" clip-rule="evenodd" d="M17.8029 27.3456C22.8828 25.9845 25.5586 19.498 23.7793 12.8577C22.0001 6.21734 16.4396 1.93776 11.3596 3.29893C6.27962 4.6601 3.60388 11.1466 5.38315 17.7869C7.16241 24.4272 12.7229 28.7068 17.8029 27.3456ZM17.2645 25.3408C21.4978 24.2064 23.7276 18.801 22.2449 13.2674C20.7621 7.73385 16.1284 4.16753 11.8951 5.30184C7.66178 6.43615 5.43199 11.8416 6.91471 17.3751C8.39743 22.9087 13.0312 26.4751 17.2645 25.3408Z" fill="#35354A"/>
<path d="M19.3297 17.3319C19.0026 15.3819 17.2007 14.8176 15.5596 14.3716L15.0844 11.5379C15.8517 11.6541 16.6876 11.9265 17.5137 12.3935L17.8588 11.0014C17.009 10.4777 15.8913 10.1237 14.8303 10.0228L14.5691 8.46557L13.4037 8.41593L13.6696 10.0012C11.4879 10.1172 10.6456 11.3209 10.8856 12.7518C11.2126 14.7018 12.9885 15.2789 14.6296 15.7249L15.1001 18.5306C14.0036 18.3864 12.8695 17.9342 12.079 17.3434L11.6771 18.733C12.522 19.3958 13.9474 19.9022 15.3542 20.0457L15.6154 21.6029L16.7808 21.6525L16.5172 20.0813C18.7108 19.9519 19.5697 18.7628 19.3297 17.3319ZM12.7048 12.7458C12.6013 12.1285 12.9429 11.6416 13.9261 11.5303L14.3449 14.0274C13.4806 13.7538 12.8177 13.4191 12.7048 12.7458ZM16.2608 18.5522L15.8443 16.0691C16.737 16.3439 17.4165 16.6932 17.5318 17.3806C17.6329 17.9839 17.2724 18.4421 16.2608 18.5522Z" fill="#9B9BBC"/>
</svg>
