<svg width="38" height="32" viewBox="0 0 38 32" fill="none" xmlns="http://www.w3.org/2000/svg">
<ellipse rx="5.17287" ry="8.78859" transform="matrix(-0.371048 -0.928614 0.984237 -0.176852 14.8879 19.1688)" fill="#253915"/>
<ellipse rx="4.77875" ry="8.78859" transform="matrix(-0.371048 -0.928614 0.984237 -0.176852 14.7422 17.94)" fill="#263915"/>
<path fill-rule="evenodd" clip-rule="evenodd" d="M23.3922 16.3867C22.4129 13.9359 17.7463 12.6449 12.969 13.5034C8.19171 14.3618 5.11281 17.0444 6.09209 19.4952C7.07137 21.9461 11.738 23.237 16.5153 22.3786C21.2926 21.5202 24.3715 18.8375 23.3922 16.3867ZM21.949 16.6462C21.1329 14.6038 17.2441 13.5281 13.263 14.2434C9.28191 14.9588 6.71616 17.1943 7.53222 19.2367C8.34829 21.279 12.2371 22.3548 16.2182 21.6394C20.1993 20.9241 22.7651 18.6886 21.949 16.6462Z" fill="#50AF00"/>
<path d="M16.8086 16.2231C15.3393 16.2162 14.7692 16.9441 14.3003 17.6121L12.165 17.6019C12.316 17.2826 12.5883 16.9458 13.0037 16.6278L12.0038 16.3755C11.5446 16.6993 11.188 17.1505 11.0233 17.5965L9.84996 17.591L9.71436 18.0855L10.9089 18.0911C10.8094 19.0326 11.6279 19.4833 12.7061 19.4884C14.1754 19.4953 14.7528 18.7796 15.2217 18.1116L17.3359 18.1216C17.1362 18.5795 16.7056 19.0303 16.2018 19.3238L17.195 19.6002C17.7567 19.2889 18.252 18.7176 18.4775 18.127L19.6509 18.1325L19.7865 17.6381L18.6026 17.6324C18.6931 16.6849 17.8869 16.2282 16.8086 16.2231ZM12.856 18.7102C12.3909 18.708 12.0599 18.5253 12.0611 18.0966L13.9427 18.1055C13.6671 18.4544 13.3634 18.7126 12.856 18.7102ZM17.4504 17.627L15.5793 17.6181C15.8582 17.2572 16.1741 16.993 16.6921 16.9954C17.1466 16.9976 17.4548 17.1862 17.4504 17.627Z" fill="#50AF00"/>
<ellipse rx="5.17287" ry="8.78859" transform="matrix(-0.371048 -0.928614 0.984237 -0.176852 13.8747 16.1327)" fill="#253915"/>
<ellipse rx="4.77875" ry="8.78859" transform="matrix(-0.371048 -0.928614 0.984237 -0.176852 13.7295 14.9038)" fill="#263915"/>
<path fill-rule="evenodd" clip-rule="evenodd" d="M22.379 13.3495C21.3997 10.8987 16.7331 9.60778 11.9558 10.4662C7.17853 11.3246 4.09963 14.0073 5.07891 16.4581C6.05819 18.9089 10.7248 20.1998 15.5021 19.3414C20.2794 18.483 23.3583 15.8003 22.379 13.3495ZM20.9356 13.6093C20.1195 11.5669 16.2307 10.4912 12.2496 11.2065C8.2685 11.9218 5.70275 14.1574 6.51881 16.1997C7.33488 18.2421 11.2237 19.3179 15.2048 18.6025C19.1859 17.8872 21.7516 15.6516 20.9356 13.6093Z" fill="#50AF00"/>
<path d="M15.7955 13.1854C14.3261 13.1784 13.756 13.9063 13.2871 14.5743L11.1518 14.5642C11.3028 14.2449 11.5752 13.9081 11.9905 13.59L10.9906 13.3377C10.5314 13.6616 10.1748 14.1128 10.0101 14.5588L8.83677 14.5533L8.70117 15.0477L9.89567 15.0534C9.79626 15.9949 10.6147 16.4456 11.6929 16.4507C13.1622 16.4576 13.7396 15.7418 14.2085 15.0738L16.3227 15.0838C16.123 15.5418 15.6925 15.9926 15.1886 16.2861L16.1818 16.5625C16.7435 16.2512 17.2389 15.6799 17.4644 15.0893L18.6377 15.0948L18.7733 14.6003L17.5894 14.5947C17.6799 13.6472 16.8737 13.1905 15.7955 13.1854ZM11.8428 15.6725C11.3777 15.6703 11.0468 15.4876 11.0479 15.0589L12.9295 15.0678C12.6539 15.4167 12.3502 15.6749 11.8428 15.6725ZM16.4372 14.5893L14.5661 14.5804C14.8451 14.2194 15.161 13.9553 15.6789 13.9577C16.1335 13.9599 16.4416 14.1485 16.4372 14.5893Z" fill="#50AF00"/>
<ellipse rx="5.17287" ry="8.78859" transform="matrix(-0.371048 -0.928614 0.984237 -0.176852 11.6565 14.1066)" fill="#253915"/>
<ellipse rx="4.77875" ry="8.78859" transform="matrix(-0.371048 -0.928614 0.984237 -0.176852 11.5107 12.8775)" fill="#263915"/>
<path fill-rule="evenodd" clip-rule="evenodd" d="M20.1608 11.3238C19.1815 8.87293 14.5149 7.58202 9.73756 8.44043C4.96027 9.29883 1.88137 11.9815 2.86065 14.4323C3.83993 16.8831 8.50655 18.1741 13.2838 17.3157C18.0611 16.4572 21.14 13.7746 20.1608 11.3238ZM18.7175 11.5834C17.9014 9.54101 14.0125 8.46525 10.0315 9.18058C6.05037 9.89592 3.48462 12.1315 4.30069 14.1738C5.11676 16.2162 9.00561 17.2919 12.9867 16.5766C16.9678 15.8613 19.5335 13.6257 18.7175 11.5834Z" fill="#50AF00"/>
<path d="M13.5767 11.1591C12.1074 11.1521 11.5373 11.88 11.0683 12.548L8.93303 12.5379C9.0841 12.2186 9.35641 11.8818 9.77175 11.5637L8.7719 11.3114C8.31262 11.6353 7.95604 12.0865 7.79138 12.5325L6.61802 12.527L6.48242 13.0214L7.67692 13.0271C7.57751 13.9686 8.39593 14.4192 9.47415 14.4244C10.9435 14.4313 11.5208 13.7155 11.9898 13.0475L14.104 13.0575C13.9043 13.5155 13.4737 13.9663 12.9698 14.2598L13.9631 14.5362C14.5247 14.2249 15.0201 13.6536 15.2456 13.0629L16.419 13.0685L16.5546 12.574L15.3706 12.5684C15.4611 11.6209 14.6549 11.1642 13.5767 11.1591ZM9.62405 13.6462C9.15894 13.644 8.828 13.4612 8.82914 13.0326L10.7107 13.0415C10.4351 13.3904 10.1315 13.6486 9.62405 13.6462ZM14.2184 12.563L12.3474 12.5541C12.6263 12.1931 12.9422 11.929 13.4602 11.9314C13.9147 11.9336 14.2229 12.1222 14.2184 12.563Z" fill="#50AF00"/>
<ellipse rx="8.35652" ry="9.68312" transform="matrix(0.715311 -0.698807 0.715654 0.698455 23.0235 16.0298)" fill="#253915"/>
<ellipse rx="7.71984" ry="9.68312" transform="matrix(0.715311 -0.698807 0.715654 0.698455 23.4787 15.586)" fill="#263915"/>
<path fill-rule="evenodd" clip-rule="evenodd" d="M30.4085 22.3474C33.4582 19.368 32.828 13.9247 29.0008 10.1895C25.1736 6.45429 19.5987 5.84157 16.5489 8.82097C13.4992 11.8004 14.1294 17.2436 17.9566 20.9789C21.7838 24.7141 27.3587 25.3268 30.4085 22.3474ZM29.2518 21.219C31.7933 18.7362 31.2681 14.2001 28.0787 11.0875C24.8894 7.97478 20.2437 7.46418 17.7022 9.94701C15.1607 12.4298 15.6859 16.9659 18.8753 20.0786C22.0646 23.1913 26.7103 23.7019 29.2518 21.219Z" fill="#50AF00"/>
<path d="M27.1008 16.066C26.3192 14.6888 24.9496 14.7702 23.7218 14.8955L22.586 12.8941C23.1334 12.766 23.7719 12.7362 24.4599 12.8558L24.2894 11.7101C23.5692 11.5544 22.7185 11.6018 21.9787 11.824L21.3546 10.7242L20.5597 11.0144L21.1951 12.134C19.7673 12.8346 19.5504 13.9783 20.1239 14.9889C20.9055 16.3661 22.2614 16.3017 23.4892 16.1764L24.6138 18.158C23.8377 18.3576 22.9477 18.3356 22.2478 18.1127L22.3795 19.2726C23.1366 19.5345 24.2374 19.5154 25.2211 19.228L25.8452 20.3278L26.64 20.0377L26.0103 18.928C27.4422 18.2139 27.6744 17.0766 27.1008 16.066ZM21.3406 14.473C21.0932 14.037 21.1816 13.5742 21.808 13.2139L22.8089 14.9776C22.1511 15.0144 21.6105 14.9485 21.3406 14.473ZM25.3974 17.848L24.4021 16.0943C25.0793 16.0504 25.6352 16.1226 25.9107 16.6081C26.1525 17.0341 26.0432 17.4807 25.3974 17.848Z" fill="#50AF00"/>
</svg>
