<svg width="27" height="20" viewBox="0 0 27 20" fill="none" xmlns="http://www.w3.org/2000/svg">
<path d="M23.3333 0H3.33333C1.49167 0 0 1.49167 0 3.33333V16.6667C0 18.5 1.49167 20 3.33333 20H23.3333C25.1667 20 26.6667 18.5 26.6667 16.6667V3.33333C26.6667 1.49167 25.1667 0 23.3333 0Z" fill="#C5412B"/>
<path fill-rule="evenodd" clip-rule="evenodd" d="M12.0813 3.14351L15.8382 3.125C15.8382 3.125 15.0909 5.22912 15.0673 6.59885L12.7809 6.60999C12.7809 6.60999 12.6932 4.9096 12.0528 3.18704L12.0813 3.14351ZM12.7672 7.28488L15.1389 7.27385L15.161 8.42108H12.8003L12.7672 7.28488ZM6.89351 12.1278L6.875 8.37089C6.875 8.37089 8.87984 9.08506 10.2496 9.10867L10.2717 11.5164C10.2717 11.5164 8.6596 11.5159 6.93704 12.1563L6.89351 12.1278ZM10.9564 9.08651L12.0606 9.06442L12.0827 11.5164H11.0005L10.9564 9.08651ZM13.1364 10.3221L13.8494 9.56132L14.5979 10.2953L13.8953 11.0916L13.1364 10.3221ZM14.1681 12.326L15.8559 10.6493L16.5839 11.5164L14.9955 13.1313L14.1681 12.326ZM17.4975 16.5833L20.1337 13.9066L20.123 13.8556C18.4501 13.0949 17.1826 11.958 17.1826 11.958L15.5781 13.5869C16.5326 14.5696 17.4975 16.5833 17.4975 16.5833Z" fill="black"/>
</svg>
