<svg width="20" height="20" viewBox="0 0 20 20" fill="none" xmlns="http://www.w3.org/2000/svg">
<g clip-path="url(#clip0_1_210)">
<path d="M10 20C4.48625 20 0 15.5138 0 10C0 4.48625 4.48625 0 10 0C15.5138 0 20 4.48625 20 10C20 15.5138 15.5138 20 10 20ZM10 1.25C5.175 1.25 1.25 5.175 1.25 10C1.25 14.825 5.175 18.75 10 18.75C14.825 18.75 18.75 14.825 18.75 10C18.75 5.175 14.825 1.25 10 1.25ZM10 16C4.43937 16 4.375 11.05 4.375 11C4.375 10.6544 4.655 10.375 5 10.375H15C15.3456 10.375 15.625 10.6544 15.625 11C15.625 11.05 15.5606 16 10 16ZM5.69125 11.625C5.89437 12.7094 6.71375 14.75 10 14.75C13.2694 14.75 14.0963 12.6944 14.305 11.625H5.69125ZM15 8.5C14.6581 8.5 14.3806 8.22563 14.375 7.885C14.3663 7.6925 14.2569 7.25 13.4375 7.25C12.545 7.25 12.5 7.77063 12.5 7.875C12.5 8.22 12.2206 8.5 11.875 8.5C11.5294 8.5 11.25 8.22 11.25 7.875C11.25 7.12125 11.8325 6 13.4375 6C15.0425 6 15.625 7.12125 15.625 7.875C15.625 8.22 15.3456 8.5 15 8.5ZM8.125 8.5C7.78312 8.5 7.50562 8.22563 7.5 7.885C7.49125 7.6925 7.38188 7.25 6.5625 7.25C5.67 7.25 5.625 7.77063 5.625 7.875C5.625 8.22 5.345 8.5 5 8.5C4.655 8.5 4.375 8.22 4.375 7.875C4.375 7.12125 4.9575 6 6.5625 6C8.1675 6 8.75 7.12125 8.75 7.875C8.75 8.22 8.47 8.5 8.125 8.5Z" fill="#EA2E32"/>
</g>
<defs>
<clipPath id="clip0_1_210">
<rect width="20" height="20" fill="white"/>
</clipPath>
</defs>
</svg>
