<svg width="24" height="24" viewBox="0 0 24 24" fill="none" xmlns="http://www.w3.org/2000/svg">
<path d="M12 24C18.6169 24 24 18.6167 24 11.9997C24 5.38275 18.6168 0 12 0C5.38316 0 0 5.38296 0 12C0 18.617 5.38316 24 12 24ZM12 1.60854C17.7298 1.60854 22.3915 6.27012 22.3915 12C22.3915 17.7299 17.7298 22.3915 12 22.3915C6.27021 22.3915 1.60851 17.7299 1.60851 12C1.60851 6.27007 6.27025 1.60854 12 1.60854Z"/>
<path d="M13.8462 12C13.8462 13.0196 13.0196 13.8462 12 13.8462C10.9804 13.8462 10.1538 13.0196 10.1538 12C10.1538 10.9804 10.9804 10.1538 12 10.1538C13.0196 10.1538 13.8462 10.9804 13.8462 12Z"/>
<path fill-rule="evenodd" clip-rule="evenodd" d="M14.4366 4.1766C13.6666 3.93627 12.8481 3.80673 12 3.80673C11.1519 3.80673 10.3334 3.93627 9.56341 4.1766C9.35603 4.41868 9.23077 4.73317 9.23077 5.07692V9.23077H5.07692C4.73316 9.23077 4.41865 9.35605 4.17656 9.56344C3.93624 10.3334 3.80671 11.1519 3.80671 12C3.80671 12.8481 3.93625 13.6666 4.17657 14.4366C4.41866 14.644 4.73316 14.7692 5.07692 14.7692H9.23077V18.9231C9.23077 19.2668 9.35604 19.5813 9.56341 19.8234C10.3334 20.0637 11.1519 20.1933 12 20.1933C12.8481 20.1933 13.6666 20.0637 14.4366 19.8234C14.644 19.5813 14.7692 19.2668 14.7692 18.9231L14.7692 14.7692H18.9231C19.2669 14.7692 19.5814 14.6439 19.8235 14.4365C20.0638 13.6665 20.1933 12.8481 20.1933 12C20.1933 11.1519 20.0638 10.3335 19.8235 9.56348C19.5814 9.35607 19.2669 9.23077 18.9231 9.23077H14.7692V5.07692C14.7692 4.73317 14.644 4.41868 14.4366 4.1766ZM14.7692 12.0016C14.7684 13.5303 13.5289 14.7692 12 14.7692C10.4706 14.7692 9.23077 13.5294 9.23077 12C9.23077 10.4706 10.4706 9.23077 12 9.23077C13.5289 9.23077 14.7684 10.4697 14.7692 11.9984L14.7692 12.0016ZM10.0015 7.61538L12 4.15385L13.9985 7.61538H10.0015ZM13.9985 16.3846L12 19.8462L10.0015 16.3846H13.9985ZM19.8462 12L16.3846 10.0015V13.9985L19.8462 12ZM4.15385 12L7.61538 13.9985V10.0015L4.15385 12Z"/>
</svg>
