<svg width="15" height="18" viewBox="0 0 15 18" fill="none" xmlns="http://www.w3.org/2000/svg">
<path d="M0.9375 9.46893V15.2064C0.9375 15.7343 1.35844 16.1627 1.875 16.1627H6.5625V9.46893H0.9375Z"/>
<path d="M14.0625 5.64393H11.0963C11.3091 5.49572 11.4919 5.34845 11.6194 5.21649C12.3759 4.44097 12.3759 3.17872 11.6194 2.4032C10.8844 1.64776 9.60375 1.64968 8.86969 2.4032C8.46281 2.81917 7.38469 4.51269 7.53375 5.64393H7.46625C7.61438 4.51269 6.53625 2.81917 6.13031 2.4032C5.39531 1.64968 4.11469 1.64968 3.38063 2.4032C2.625 3.17872 2.625 4.44097 3.37969 5.21649C3.50813 5.34845 3.69094 5.49572 3.90375 5.64393H0.9375C0.420938 5.64393 0 6.07329 0 6.60018V8.03456C0 8.29848 0.21 8.51268 0.46875 8.51268H6.5625V6.60018H8.4375V8.51268H14.5312C14.79 8.51268 15 8.29848 15 8.03456V6.60018C15 6.07329 14.58 5.64393 14.0625 5.64393ZM6.50719 5.61238C6.50719 5.61238 6.46781 5.64393 6.33375 5.64393C5.68594 5.64393 4.44938 4.95735 4.04531 4.54233C3.6525 4.1388 3.6525 3.4809 4.04531 3.07736C4.23563 2.88228 4.48781 2.77518 4.75594 2.77518C5.02313 2.77518 5.27531 2.88228 5.46562 3.07736C6.0975 3.7257 6.72563 5.38192 6.50719 5.61238ZM8.66531 5.64393C8.53219 5.64393 8.49281 5.61333 8.49281 5.61238C8.27437 5.38192 8.9025 3.7257 9.53438 3.07736C9.91219 2.68817 10.5731 2.68625 10.9547 3.07736C11.3484 3.4809 11.3484 4.1388 10.9547 4.54233C10.5506 4.95735 9.31406 5.64393 8.66531 5.64393Z"/>
<path d="M8.4375 9.46893V16.1627H13.125C13.6425 16.1627 14.0625 15.7343 14.0625 15.2064V9.46893H8.4375Z"/>
</svg>
