<svg width="22" height="19" viewBox="0 0 22 19" fill="none" xmlns="http://www.w3.org/2000/svg">
<path d="M11 5.78613L3.1539 12.2544C3.1539 12.2636 3.15161 12.277 3.14702 12.2953C3.14253 12.3135 3.14014 12.3266 3.14014 12.336V17.2257C3.14014 17.4622 3.2266 17.6671 3.39947 17.8397C3.5723 18.0124 3.77695 18.0993 4.01349 18.0993H8.40708V12.0131H13.593V18.0995H17.9865C18.223 18.0995 18.428 18.0128 18.6005 17.8397C18.7734 17.6673 18.8602 17.4622 18.8602 17.2257V12.336C18.8602 12.2997 18.8552 12.2723 18.8464 12.2544L11 5.78613Z"/>
<path d="M21.8485 9.12048L18.8603 6.63697V1.06951C18.8603 0.942228 18.8194 0.837557 18.7372 0.755637C18.6558 0.673813 18.5511 0.6329 18.4236 0.6329H15.8037C15.6762 0.6329 15.5716 0.673813 15.4897 0.755637C15.4079 0.837557 15.367 0.942276 15.367 1.06951V3.73038L12.0375 0.946577C11.7468 0.710041 11.401 0.591797 11.0007 0.591797C10.6004 0.591797 10.2547 0.710041 9.96364 0.946577L0.152119 9.12048C0.0611663 9.19313 0.0113165 9.29091 0.00204435 9.41375C-0.00718001 9.53648 0.0246034 9.64369 0.0974902 9.73459L0.943503 10.7444C1.01639 10.8262 1.11179 10.8763 1.23008 10.8946C1.33929 10.9037 1.4485 10.8718 1.55771 10.7991L11.0004 2.92528L20.4432 10.799C20.5161 10.8625 20.6115 10.8942 20.7298 10.8942H20.7708C20.8889 10.8762 20.9841 10.8258 21.0573 10.7442L21.9035 9.73454C21.9762 9.64345 22.0081 9.53644 21.9986 9.41356C21.9893 9.29106 21.9392 9.19327 21.8485 9.12048Z"/>
</svg>
