<svg width="32" height="40" viewBox="0 0 32 40" fill="none" xmlns="http://www.w3.org/2000/svg">
<path d="M31.3675 25.0952C31.3675 25.2029 31.3719 25.312 31.3719 25.4198C31.3728 26.8025 31.1536 28.1768 30.7224 29.4927C30.0394 31.549 28.8813 33.4214 27.3387 34.9631C26.358 35.9497 25.2457 36.8009 24.0323 37.4933C23.6101 37.7342 23.1743 37.9579 22.7251 38.1642C20.5183 39.1671 18.1153 39.6829 15.6845 39.6758C12.3325 39.6758 9.22506 38.7201 6.67618 37.092C6.6262 37.061 6.57698 37.0284 6.52921 36.9967C2.57463 34.4079 0 30.1874 0 25.4191C0 25.3099 0 25.2022 0 25.0945C0.0910953 21.3888 1.73774 18.0316 4.37045 15.544C4.82455 18.3236 6.70412 20.4063 8.95322 20.4063C11.5425 20.4063 13.6999 18.3901 13.6403 14.2449C13.6349 13.033 13.6913 11.8215 13.8093 10.6151C14.3083 6.00577 17.9344 2.24875 22.3592 0.277344C21.9881 1.50713 21.8 2.78333 21.8007 4.06617C21.8007 6.93689 22.7346 9.60953 24.3408 11.8469C24.8228 10.7932 25.4356 9.80215 26.1653 8.89671V9.07022C26.1641 11.2025 26.6834 13.304 27.6797 15.1977C27.9195 15.6538 28.1844 16.0966 28.4732 16.5243C28.6575 16.7975 28.8517 17.0645 29.0559 17.3252C30.5585 19.5273 31.3624 22.119 31.3653 24.7713C31.3712 24.8783 31.3705 24.9868 31.3675 25.0952Z" fill="#C63A39"/>
<path d="M18.1309 19.4131C18.1309 19.4131 20.7518 15.8028 19.4682 10.5934C17.6503 3.21457 22.3661 0.277344 22.3661 0.277344C22.3661 0.277344 20.4211 6.55302 24.3501 11.8441C26.8483 15.2238 26.6896 21.065 22.3037 24.7721L18.1309 19.4131Z" fill="#B22424"/>
<path d="M27.3365 34.9633C26.3569 35.9497 25.2458 36.8009 24.0338 37.4936C23.6105 37.7345 23.1745 37.9584 22.7258 38.1651C20.5192 39.1676 18.1166 39.6835 15.686 39.6768C12.334 39.6768 9.22582 38.7211 6.67694 37.0923L6.52996 36.9969C2.57538 34.4089 0 30.1884 0 25.4194C0 25.3109 -3.18642e-07 25.2024 0.00439312 25.0948C0.0954884 21.389 1.74214 18.0325 4.37484 15.5443C-1.60917 24.4708 7.2706 41.8781 27.3365 34.9633Z" fill="#B22424"/>
<path d="M23.2266 32.9334C23.8409 32.9211 24.3339 33.4004 24.3339 33.4004C24.3589 32.7108 24.209 32.0905 23.8453 31.6409C23.2398 30.8941 22.3272 30.3454 22.0965 28.794C21.9625 27.9468 22.0519 27.0801 22.3559 26.2768C22.674 25.4411 23.458 24.6965 24.0459 23.9482C24.1819 23.7747 24.2756 23.5729 24.3201 23.3584C24.3645 23.1436 24.3584 22.9218 24.3023 22.7098C24.0547 21.8084 22.8173 21.3616 22.8173 21.3616C22.8173 21.3616 23.1509 21.8424 22.9084 22.2501C22.5675 22.8284 21.2354 22.9809 21.2354 22.9809L22.4264 20.4508C22.6363 19.9745 22.7126 19.4516 22.6472 18.9365C22.5818 18.4214 22.3772 17.9329 22.0546 17.5221L21.4257 16.7204C21.3795 16.6618 21.3212 16.6134 21.2547 16.5784C21.1882 16.5434 21.115 16.5226 21.0397 16.5173C20.9644 16.5121 20.8889 16.5226 20.8181 16.5479C20.7472 16.5733 20.6826 16.6131 20.6284 16.6648C20.4594 16.8159 20.419 17.1073 20.419 17.1073L16.4387 21.2279H16.1823C15.0367 21.2343 13.9406 21.6878 13.1345 22.4886L10.1101 25.4953L10.8398 25.4193C10.8398 25.4193 9.38418 26.9043 6.38037 28.4267C6.38037 28.4267 7.41866 29.921 9.72509 30.0171C9.72509 30.0171 10.0374 31.5584 8.46348 32.9435C8.46348 32.9435 8.97786 33.1756 9.37169 33.0158C9.37169 33.0158 9.26075 34.3727 7.42011 35.3704C7.42011 35.3704 7.8911 35.7246 8.42017 35.5764C7.91163 36.1565 7.3264 36.6671 6.68016 37.0945C9.22911 38.7226 12.3379 39.6783 15.6885 39.6783C18.1205 39.6838 20.5244 39.1666 22.7321 38.163C23.1808 37.9582 23.6167 37.7345 24.04 37.4921C24.1744 36.6825 23.8195 35.9458 23.8195 35.9458C24.1781 35.9965 24.4074 36.5386 24.4074 36.5386C25.0202 34.32 23.2266 32.9334 23.2266 32.9334ZM14.2433 24.4753L15.0008 22.6311L16.3704 22.4416L14.2433 24.4753Z" fill="#DDE9F2"/>
<path d="M24.4041 36.5424C24.4041 36.5424 24.1742 36.0002 23.8163 35.9496C23.8163 35.9496 24.1698 36.687 24.0367 37.4959C23.6146 37.737 23.1786 37.9605 22.7289 38.1668C20.5223 39.1697 18.1196 39.6856 15.6891 39.6784C14.5872 39.6792 13.4879 39.5743 12.4067 39.3654C12.4067 39.3654 15.077 37.5422 15.6891 35.283C15.6891 35.283 15.8412 36.3747 15.6891 36.7513C15.6891 36.7513 16.9139 35.6597 16.7228 33.4757C16.5854 31.9071 15.5927 29.0956 18.271 26.6485C19.8221 25.2309 23.9934 24.4739 24.1954 22.4404C24.2419 22.5263 24.2786 22.617 24.3049 22.7107C24.3612 22.9227 24.3673 23.1446 24.3228 23.3592C24.2784 23.5738 24.1845 23.7757 24.0485 23.9491C23.4607 24.698 22.6752 25.4419 22.3585 26.2777C22.0549 27.0814 21.9655 27.9483 22.0992 28.7956C22.3306 30.3463 23.2425 30.8921 23.848 31.6417C24.2153 32.0914 24.3623 32.7117 24.3373 33.4013C24.3373 33.4013 23.8436 32.9198 23.2293 32.9343C23.2264 32.9365 25.02 34.323 24.4041 36.5424Z" fill="#C7D8E9"/>
<path d="M9.63475 29.3833C10.285 29.1195 10.5591 28.4247 10.5591 28.4247C9.02852 29.324 6.38037 28.4247 6.38037 28.4247C6.38037 28.4247 7.62955 30.0152 9.72508 30.0152C11.5672 30.0152 12.274 28.6988 12.274 28.6988C12.274 28.6988 11.2226 29.4462 9.63475 29.3833Z" fill="#C7D8E9"/>
<path d="M16.2773 24.7701C14.5748 25.6513 14.1597 26.9201 14.1597 26.9201C14.4043 26.654 15.0164 26.3642 15.0164 26.3642C14.2302 27.2657 14.264 28.5568 14.264 28.5568C14.264 28.5568 14.6313 27.7124 15.1457 27.3069C15.1457 27.3069 14.9098 28.2249 15.3412 29.5479C15.3412 29.5479 15.2574 27.7406 16.4543 26.5478C16.4543 26.5478 15.8959 26.4719 15.4492 26.6439C15.4734 25.5654 16.2773 24.7701 16.2773 24.7701Z" fill="#C7D8E9"/>
<path d="M23.227 32.9317C23.8412 32.9194 24.3343 33.3987 24.3343 33.3987C24.3593 32.7091 24.2093 32.0888 23.8456 31.6392C23.2402 30.8924 22.3276 30.3437 22.0969 28.7923C21.9629 27.9452 22.0522 27.0784 22.3563 26.2751C22.6744 25.4394 23.4584 24.6948 24.0462 23.9465C24.1968 23.7544 24.2954 23.5278 24.3328 23.288C23.6142 24.4713 21.0425 26.0943 20.4584 27.0674C20.0126 27.8038 19.7651 28.6397 19.739 29.4964C19.6802 31.0622 20.4737 31.7657 20.9337 32.6049C21.2093 33.111 21.2423 33.7493 21.0903 34.4223C21.0903 34.4223 20.6942 33.8628 20.0872 33.7659C20.0872 33.7659 21.5958 35.4489 20.581 37.5251C20.581 37.5251 20.4546 36.9504 20.1108 36.8376C20.1108 36.8376 19.8227 38.6616 19.1431 39.3289C20.3812 39.0773 21.5856 38.6859 22.7324 38.1628C23.1806 37.9579 23.6167 37.734 24.0403 37.4912C24.1748 36.6822 23.8199 35.9456 23.8199 35.9456C24.1792 35.9962 24.4077 36.5384 24.4077 36.5384C25.0205 34.3183 23.227 32.9317 23.227 32.9317Z" fill="#B1C9DD"/>
</svg>
