<svg width="24" height="24" viewBox="0 0 24 24" fill="none" xmlns="http://www.w3.org/2000/svg">
<g clip-path="url(#clip0_1_202)">
<path d="M14.7725 4.38289L15.568 6.77209L11.1779 11.1414C10.7177 11.5837 10.7174 12.3269 11.1774 12.7694C11.6196 13.212 12.3628 13.2122 12.8054 12.77L17.1777 8.38296L19.5664 9.18009C19.9203 9.28638 20.3096 9.19804 20.5751 8.9327L23.6553 5.83701C24.1686 5.30632 23.9566 4.42146 23.2665 4.17348L20.5594 3.27006L19.6578 0.562305C19.4104 -0.145609 18.5256 -0.358262 17.9946 0.172426L14.8968 3.25041C14.7198 3.40961 14.5958 3.71039 14.5957 3.94044C14.5957 4.02892 14.6133 4.15279 14.631 4.24128L14.7725 4.38289ZM12.0111 6.94782C12.365 6.94794 12.7366 6.98346 13.0728 7.05436L13.7809 6.32908L13.2682 4.82477C13.2505 4.78937 13.2506 4.73628 13.2329 4.70088C12.8082 4.61226 12.3835 4.55903 11.9588 4.55888C7.88882 4.55747 4.59628 7.83004 4.59488 11.9001C4.59348 15.9524 7.86605 19.2449 11.9361 19.2463C15.9884 19.2477 19.2809 15.9575 19.2823 11.8874C19.2825 11.445 19.2118 11.0203 19.1412 10.5956C19.1058 10.5779 19.0527 10.5779 19.0173 10.5779L17.5134 10.0642L16.7876 10.7717C16.8583 11.108 16.8936 11.4619 16.8934 11.8335C16.8925 14.5941 14.6266 16.8583 11.8484 16.8574C9.07018 16.8564 6.80591 14.5906 6.80687 11.8123C6.80783 9.03412 9.05597 6.76984 11.8342 6.7708L12.0111 6.94782ZM23.442 8.34973L21.7073 10.0656C21.6365 10.1187 21.5657 10.1717 21.4949 10.2248C21.5832 10.7734 21.6537 11.3574 21.6535 11.9413C21.6517 17.2677 17.2971 21.6017 11.9706 21.5999C6.62654 21.598 2.29259 17.2434 2.29443 11.917C2.29628 6.57285 6.63322 2.2389 11.9596 2.24074C12.5436 2.24094 13.1275 2.29423 13.6938 2.4006C13.7469 2.32984 13.7823 2.24137 13.8531 2.18831L15.5702 0.454721C14.5793 0.135856 12.9691 -0.11244 11.9427 -0.112794L11.9251 -0.1128C5.28916 -0.115091 -0.0921878 5.24485 -0.0944787 11.8807C-0.0967635 18.4989 5.26318 23.8803 11.8991 23.8826C18.5173 23.8849 23.8986 18.5072 23.9009 11.8713C23.9014 10.5972 23.6894 9.37616 23.3359 8.24352L23.442 8.34973Z" fill="#58586F"/>
</g>
<defs>
<clipPath id="clip0_1_202">
<rect width="24" height="24" fill="white"/>
</clipPath>
</defs>
</svg>
