<svg width="203" height="68" viewBox="0 0 203 68" fill="none" xmlns="http://www.w3.org/2000/svg">
<path d="M102.242 42.8031C102.242 42.9889 102.249 43.1771 102.249 43.3629C102.251 45.7476 101.873 48.1179 101.129 50.3873C99.951 53.9337 97.9536 57.163 95.2933 59.8217C93.6018 61.5234 91.6835 62.9913 89.5908 64.1855C88.8627 64.601 88.1111 64.9868 87.3364 65.3426C83.5305 67.0722 79.3862 67.9619 75.1937 67.9496C69.4127 67.9496 64.0536 66.3013 59.6576 63.4935C59.5714 63.4399 59.4865 63.3838 59.4041 63.329C52.5839 58.8642 48.1436 51.5855 48.1436 43.3618C48.1436 43.1734 48.1436 42.9876 48.1436 42.8019C48.3007 36.4109 51.1406 30.6209 55.681 26.3307C56.4642 31.1245 59.7058 34.7165 63.5847 34.7165C68.0504 34.7165 71.771 31.2393 71.6684 24.0901C71.659 22.0001 71.7562 19.9107 71.9598 17.83C72.8203 9.88056 79.0741 3.40102 86.7053 0.0010376C86.0653 2.12199 85.7409 4.32298 85.7422 6.53544C85.7422 11.4864 87.3528 16.0958 90.123 19.9545C90.9541 18.1371 92.011 16.428 93.2695 14.8664V15.1657C93.2674 18.8432 94.163 22.4674 95.8813 25.7335C96.2949 26.52 96.7518 27.2837 97.2499 28.0213C97.5676 28.4926 97.9026 28.9531 98.2548 29.4027C100.846 33.2005 102.233 37.6703 102.238 42.2446C102.248 42.4291 102.247 42.6161 102.242 42.8031Z" fill="#C63A39"/>
<path d="M79.4121 33.0024C79.4121 33.0024 83.9324 26.7759 81.7185 17.7916C78.5834 5.06568 86.7165 0 86.7165 0C86.7165 0 83.3621 10.8233 90.138 19.9485C94.4466 25.7773 94.1729 35.8513 86.6087 42.2449L79.4121 33.0024Z" fill="#B22424"/>
<path d="M95.2895 59.8216C93.6 61.5228 91.6837 62.9908 89.5934 64.1854C88.8634 64.6009 88.1115 64.987 87.3377 65.3436C83.5319 67.0725 79.3883 67.9623 75.1963 67.9507C69.4153 67.9507 64.0549 66.3025 59.6589 63.4933L59.4054 63.3288C52.5852 58.8654 48.1436 51.5866 48.1436 43.3616C48.1436 43.1745 48.1436 42.9875 48.1511 42.8018C48.3082 36.4107 51.1481 30.6219 55.6886 26.3305C45.3683 41.7257 60.6828 71.7471 95.2895 59.8216Z" fill="#B22424"/>
<path d="M88.2013 56.3205C89.2607 56.2993 90.111 57.1259 90.111 57.1259C90.1541 55.9365 89.8955 54.8667 89.2683 54.0913C88.2241 52.8033 86.6501 51.857 86.2522 49.1814C86.0211 47.7204 86.1753 46.2257 86.6996 44.8401C87.2483 43.3989 88.6004 42.1146 89.6142 40.8242C89.8488 40.525 90.0105 40.1769 90.0872 39.8069C90.1638 39.4366 90.1533 39.054 90.0566 38.6884C89.6295 37.1337 87.4955 36.3632 87.4955 36.3632C87.4955 36.3632 88.0707 37.1923 87.6526 37.8955C87.0645 38.8929 84.7671 39.156 84.7671 39.156L86.8212 34.7923C87.1833 33.9708 87.3148 33.069 87.2021 32.1807C87.0893 31.2923 86.7363 30.4499 86.18 29.7415L85.0953 28.3588C85.0156 28.2577 84.9151 28.1742 84.8004 28.1139C84.6858 28.0535 84.5594 28.0176 84.4297 28.0084C84.2998 27.9995 84.1696 28.0175 84.0474 28.0612C83.9252 28.1051 83.8138 28.1737 83.7204 28.2628C83.4289 28.5234 83.3592 29.0259 83.3592 29.0259L76.4946 36.1325H76.0523C74.0766 36.1436 72.1862 36.9257 70.7959 38.3069L65.58 43.4923L66.8384 43.3613C66.8384 43.3613 64.328 45.9223 59.1475 48.548C59.1475 48.548 60.9382 51.1252 64.9159 51.2909C64.9159 51.2909 65.4545 53.9491 62.7401 56.3379C62.7401 56.3379 63.6272 56.7381 64.3064 56.4627C64.3064 56.4627 64.1151 58.8028 60.9406 60.5234C60.9406 60.5234 61.7529 61.1343 62.6654 60.8788C61.7883 61.8792 60.779 62.7598 59.6645 63.4969C64.0605 66.3048 69.4222 67.953 75.2007 67.953C79.395 67.9625 83.5409 67.0706 87.3484 65.3397C88.1224 64.9864 88.8742 64.6007 89.6041 64.1827C89.836 62.7863 89.2239 61.5158 89.2239 61.5158C89.8424 61.6032 90.2377 62.5382 90.2377 62.5382C91.2946 58.7118 88.2013 56.3205 88.2013 56.3205ZM72.7082 41.7332L74.0147 38.5526L76.3767 38.2259L72.7082 41.7332Z" fill="#DDE9F2"/>
<path d="M90.2343 62.5413C90.2343 62.5413 89.8377 61.6062 89.2205 61.519C89.2205 61.519 89.8301 62.7907 89.6006 64.1858C88.8725 64.6016 88.1207 64.9871 87.3451 65.3429C83.5395 67.0725 79.3956 67.9622 75.2038 67.9499C73.3035 67.9513 71.4077 67.7704 69.543 67.4101C69.543 67.4101 74.1482 64.2656 75.2038 60.3694C75.2038 60.3694 75.4662 62.2521 75.2038 62.9016C75.2038 62.9016 77.3162 61.019 76.9867 57.2524C76.7497 54.547 75.0377 49.6982 79.6567 45.4779C82.3319 43.0329 89.5259 41.7275 89.8744 38.2203C89.9544 38.3686 90.0177 38.5249 90.0632 38.6866C90.1602 39.0522 90.1707 39.4348 90.094 39.8049C90.0174 40.1751 89.8555 40.5233 89.621 40.8224C88.6072 42.114 87.2525 43.3969 86.7063 44.8383C86.1826 46.2244 86.0285 47.7195 86.2591 49.1807C86.6582 51.8552 88.2308 52.7965 89.2751 54.0893C89.9086 54.8649 90.1621 55.9347 90.119 57.1241C90.119 57.1241 89.2675 56.2937 88.2081 56.3186C88.203 56.3224 91.2964 58.7137 90.2343 62.5413Z" fill="#C7D8E9"/>
<path d="M64.7601 50.1966C65.8815 49.7415 66.3543 48.5434 66.3543 48.5434C63.7146 50.0943 59.1475 48.5434 59.1475 48.5434C59.1475 48.5434 61.3019 51.2863 64.9159 51.2863C68.0929 51.2863 69.312 49.0159 69.312 49.0159C69.312 49.0159 67.4985 50.3051 64.7601 50.1966Z" fill="#C7D8E9"/>
<path d="M76.2157 42.2434C73.2794 43.7632 72.5635 45.9513 72.5635 45.9513C72.9854 45.4925 74.041 44.9925 74.041 44.9925C72.6851 46.5473 72.7434 48.774 72.7434 48.774C72.7434 48.774 73.377 47.3178 74.2641 46.6184C74.2641 46.6184 73.8573 48.2017 74.6011 50.4834C74.6011 50.4834 74.4567 47.3664 76.521 45.3092C76.521 45.3092 75.5579 45.1783 74.7875 45.475C74.8293 43.6149 76.2157 42.2434 76.2157 42.2434Z" fill="#C7D8E9"/>
<path d="M88.2025 56.3194C89.2619 56.2982 90.1122 57.1248 90.1122 57.1248C90.1553 55.9354 89.8967 54.8656 89.2695 54.0902C88.2252 52.8022 86.6513 51.8559 86.2535 49.1803C86.0224 47.7194 86.1764 46.2245 86.7008 44.839C87.2496 43.3977 88.6016 42.1135 89.6154 40.8231C89.8752 40.4917 90.0452 40.1009 90.1097 39.6873C88.8702 41.7282 84.435 44.5273 83.4276 46.2054C82.6589 47.4754 82.2319 48.9172 82.187 50.3946C82.0855 53.0952 83.4541 54.3083 84.2475 55.7558C84.7227 56.6286 84.7796 57.7294 84.5174 58.8902C84.5174 58.8902 83.8343 57.9253 82.7876 57.7581C82.7876 57.7581 85.3892 60.6606 83.6392 64.2414C83.6392 64.2414 83.4212 63.2503 82.8282 63.0557C82.8282 63.0557 82.3314 66.2014 81.1592 67.3522C83.2945 66.9183 85.3716 66.2434 87.3496 65.3411C88.1226 64.9878 88.8746 64.6017 89.6052 64.1828C89.8372 62.7877 89.2251 61.5172 89.2251 61.5172C89.8447 61.6045 90.2389 62.5396 90.2389 62.5396C91.2958 58.7107 88.2025 56.3194 88.2025 56.3194Z" fill="#B1C9DD"/>
<path d="M0.962891 63.4536V21.2868H11.4999V37.1867H27.1277V21.2868H37.9015V63.4536H27.1277V46.6218H11.4999V63.4536H0.962891Z" fill="#F8F8F8"/>
<path d="M118.999 63.1624L108.226 21.2868H118.999L125.748 45.6899L136.403 21.2868H139.6L150.61 45.6899L156.708 21.2868H167.6L157.181 63.1624H147.295L137.824 40.9724L128.767 63.1624H118.999Z" fill="#F8F8F8"/>
<path d="M175.889 63.1624V21.2868H186.84V54.0767H203.001V63.1624H175.889Z" fill="#F8F8F8"/>
</svg>
