<svg width="30" height="30" viewBox="0 0 30 30" fill="none" xmlns="http://www.w3.org/2000/svg">
<path d="M8.4375 7.5H2.64844L7.53938 2.17781C7.62718 2.08235 7.73385 2.00615 7.85261 1.95403C7.97138 1.90191 8.09967 1.875 8.22938 1.875H8.4375V7.5ZM5.775 26.25C4.32274 26.2446 2.92913 25.6764 1.88719 24.6647C1.96345 25.6317 2.41063 26.5318 3.13522 27.1767C3.8598 27.8216 4.80567 28.1614 5.775 28.125H24.225C25.1943 28.1614 26.1402 27.8216 26.8648 27.1767C27.5894 26.5318 28.0366 25.6317 28.1128 24.6647C27.0709 25.6764 25.6773 26.2446 24.225 26.25H5.775ZM14.0625 7.5H22.5V6.5625H14.0625V7.5Z" fill="#FFAE39"/>
<path d="M27.1875 1.875H10.3125V8.4375C10.3125 8.68614 10.2137 8.9246 10.0379 9.10041C9.8621 9.27623 9.62364 9.375 9.375 9.375H1.875V20.2144C1.84288 21.2826 2.23517 22.3201 2.96606 23.0998C3.69695 23.8796 4.70692 24.338 5.775 24.375H24.225C25.2931 24.338 26.3031 23.8796 27.0339 23.0998C27.7648 22.3201 28.1571 21.2826 28.125 20.2144V2.8125C28.125 2.56386 28.0262 2.3254 27.8504 2.14959C27.6746 1.97377 27.4361 1.875 27.1875 1.875ZM23.4375 20.625H6.5625C6.31386 20.625 6.0754 20.5262 5.89959 20.3504C5.72377 20.1746 5.625 19.9361 5.625 19.6875C5.625 19.4389 5.72377 19.2004 5.89959 19.0246C6.0754 18.8488 6.31386 18.75 6.5625 18.75H23.4375C23.6861 18.75 23.9246 18.8488 24.1004 19.0246C24.2762 19.2004 24.375 19.4389 24.375 19.6875C24.375 19.9361 24.2762 20.1746 24.1004 20.3504C23.9246 20.5262 23.6861 20.625 23.4375 20.625ZM23.4375 16.875H6.5625C6.31386 16.875 6.0754 16.7762 5.89959 16.6004C5.72377 16.4246 5.625 16.1861 5.625 15.9375C5.625 15.6889 5.72377 15.4504 5.89959 15.2746C6.0754 15.0988 6.31386 15 6.5625 15H23.4375C23.6861 15 23.9246 15.0988 24.1004 15.2746C24.2762 15.4504 24.375 15.6889 24.375 15.9375C24.375 16.1861 24.2762 16.4246 24.1004 16.6004C23.9246 16.7762 23.6861 16.875 23.4375 16.875ZM23.4375 13.125H13.125C12.8764 13.125 12.6379 13.0262 12.4621 12.8504C12.2863 12.6746 12.1875 12.4361 12.1875 12.1875C12.1875 11.9389 12.2863 11.7004 12.4621 11.5246C12.6379 11.3488 12.8764 11.25 13.125 11.25H23.4375C23.6861 11.25 23.9246 11.3488 24.1004 11.5246C24.2762 11.7004 24.375 11.9389 24.375 12.1875C24.375 12.4361 24.2762 12.6746 24.1004 12.8504C23.9246 13.0262 23.6861 13.125 23.4375 13.125ZM24.375 8.4375C24.375 8.68614 24.2762 8.9246 24.1004 9.10041C23.9246 9.27623 23.6861 9.375 23.4375 9.375H13.125C12.8764 9.375 12.6379 9.27623 12.4621 9.10041C12.2863 8.9246 12.1875 8.68614 12.1875 8.4375V5.625C12.1875 5.37636 12.2863 5.1379 12.4621 4.96209C12.6379 4.78627 12.8764 4.6875 13.125 4.6875H23.4375C23.6861 4.6875 23.9246 4.78627 24.1004 4.96209C24.2762 5.1379 24.375 5.37636 24.375 5.625V8.4375Z" fill="#FFAE39"/>
</svg>
