<svg width="14" height="18" viewBox="0 0 14 18" fill="none" xmlns="http://www.w3.org/2000/svg">
<path d="M5.59375 18H8.40625C8.79459 18 9.10938 17.6852 9.10938 17.2969C9.10938 16.9085 8.79459 16.5938 8.40625 16.5938H5.59375C5.20541 16.5938 4.89062 16.9085 4.89062 17.2969C4.89062 17.6852 5.20541 18 5.59375 18Z" fill="#57576F"/>
<path d="M7 0C6.61166 0 6.29688 0.314789 6.29688 0.703125V1.4567C3.91486 1.79891 2.07812 3.85291 2.07812 6.32812V10.6508C2.07812 10.8986 1.9665 11.124 1.80043 11.2118C1.1043 11.5793 0.671875 12.2945 0.671875 13.0781C0.671875 14.2412 1.61814 15.1875 2.78125 15.1875H11.2188C12.3819 15.1875 13.3281 14.2412 13.3281 13.0781C13.3281 12.2945 12.8957 11.5793 12.1996 11.2118C12.0335 11.124 11.9219 10.8986 11.9219 10.6508V6.32812C11.9219 3.85291 10.0851 1.79891 7.70312 1.4567V0.703125C7.70312 0.314789 7.38834 0 7 0V0ZM10.5156 6.32812V10.6508C10.5156 11.4292 10.9093 12.1206 11.543 12.4553C11.7767 12.5787 11.9219 12.8173 11.9219 13.0781C11.9219 13.4658 11.6065 13.7812 11.2188 13.7812H2.78125C2.39355 13.7812 2.07812 13.4658 2.07812 13.0781C2.07812 12.8173 2.22332 12.5787 2.45704 12.4553C3.09073 12.1206 3.48438 11.4292 3.48438 10.6508V6.32812C3.48438 4.38961 5.06148 2.8125 7 2.8125C8.93852 2.8125 10.5156 4.38961 10.5156 6.32812Z" fill="#57576F"/>
</svg>
