<svg width="18" height="18" viewBox="0 0 18 18" fill="none" xmlns="http://www.w3.org/2000/svg">
<path d="M7.59375 18H10.4062C10.7946 18 11.1094 17.6852 11.1094 17.2969C11.1094 16.9085 10.7946 16.5938 10.4062 16.5938H7.59375C7.20541 16.5938 6.89062 16.9085 6.89062 17.2969C6.89062 17.6852 7.20541 18 7.59375 18Z"/>
<path d="M9 0C8.61166 0 8.29688 0.314789 8.29688 0.703125V1.4567C5.91486 1.79891 4.07812 3.85291 4.07812 6.32812V10.6508C4.07812 10.8986 3.9665 11.124 3.80043 11.2118C3.1043 11.5793 2.67188 12.2945 2.67188 13.0781C2.67188 14.2412 3.61814 15.1875 4.78125 15.1875H13.2188C14.3819 15.1875 15.3281 14.2412 15.3281 13.0781C15.3281 12.2945 14.8957 11.5793 14.1996 11.2118C14.0335 11.124 13.9219 10.8986 13.9219 10.6508V6.32812C13.9219 3.85291 12.0851 1.79891 9.70312 1.4567V0.703125C9.70312 0.314789 9.38834 0 9 0V0ZM12.5156 6.32812V10.6508C12.5156 11.4292 12.9093 12.1206 13.543 12.4553C13.7767 12.5787 13.9219 12.8173 13.9219 13.0781C13.9219 13.4658 13.6065 13.7812 13.2188 13.7812H4.78125C4.39355 13.7812 4.07812 13.4658 4.07812 13.0781C4.07812 12.8173 4.22332 12.5787 4.45704 12.4553C5.09073 12.1206 5.48438 11.4292 5.48438 10.6508V6.32812C5.48438 4.38961 7.06148 2.8125 9 2.8125C10.9385 2.8125 12.5156 4.38961 12.5156 6.32812Z"/>
</svg>
