<svg width="28" height="28" viewBox="0 0 28 28" fill="none" xmlns="http://www.w3.org/2000/svg">
<path d="M7.1742 1.07472C5.41261 1.07472 3.97919 2.49507 3.97919 4.23429L3.86304 20.616L5.60576 20.6285L5.72197 4.24069C5.72197 3.45587 6.37347 2.81745 7.17426 2.81745H24.6888V1.07472H7.1742Z" fill="#EA2E32"/>
<path d="M24.6888 1.07472C22.863 1.07472 21.3776 2.56009 21.3776 4.38594V22.7718C21.3776 24.1009 20.2959 25.1826 18.9668 25.1826C17.6376 25.1826 16.556 24.1009 16.556 22.7718V20.6515C16.556 20.1702 16.1659 19.7801 15.6846 19.7801H0.871391C0.390086 19.7801 0 20.1702 0 20.6515V22.7718C0 25.0621 1.86326 26.9253 4.15352 26.9253V25.1826C2.82412 25.1826 1.74273 24.1009 1.74273 22.7718V21.5228H14.8133V22.7718C14.8133 25.062 16.6765 26.9253 18.9668 26.9253C21.257 26.9253 23.1203 25.062 23.1203 22.7718V9.14939H27.1286C27.6099 9.14939 28 8.7593 28 8.278V4.38589C28 2.56009 26.5146 1.07472 24.6888 1.07472ZM26.2573 7.40666H23.1203V4.38589C23.1203 3.52089 23.8241 2.81745 24.6888 2.81745C25.5534 2.81745 26.2572 3.52095 26.2572 4.38589V7.40666H26.2573Z" fill="#EA2E32"/>
<path d="M18.7632 25.1826H3.97925V26.9253H18.7632V25.1826Z" fill="#EA2E32"/>
<path d="M12.9543 5.92534H8.4522C7.9709 5.92534 7.58081 6.31542 7.58081 6.79673C7.58081 7.27803 7.9709 7.66812 8.4522 7.66812H12.9543C13.4356 7.66812 13.8257 7.27803 13.8257 6.79673C13.8257 6.31542 13.4355 5.92534 12.9543 5.92534Z" fill="#EA2E32"/>
<path d="M18.1825 9.41078H8.4522C7.9709 9.41078 7.58081 9.80087 7.58081 10.2822C7.58081 10.7635 7.9709 11.1536 8.4522 11.1536H18.1825C18.6638 11.1536 19.0539 10.7635 19.0539 10.2822C19.0539 9.80087 18.6638 9.41078 18.1825 9.41078Z" fill="#EA2E32"/>
<path d="M18.1825 12.8962H8.4522C7.9709 12.8962 7.58081 13.2863 7.58081 13.7676C7.58081 14.2489 7.9709 14.639 8.4522 14.639H18.1825C18.6638 14.639 19.0539 14.2492 19.0539 13.7676C19.0539 13.2863 18.6638 12.8962 18.1825 12.8962Z" fill="#EA2E32"/>
<path d="M18.1825 16.3817H8.4522C7.9709 16.3817 7.58081 16.7718 7.58081 17.2531C7.58081 17.7344 7.9709 18.1245 8.4522 18.1245H18.1825C18.6638 18.1245 19.0539 17.7344 19.0539 17.2531C19.0539 16.7718 18.6638 16.3817 18.1825 16.3817Z" fill="#EA2E32"/>
</svg>
