<svg width="18" height="18" viewBox="0 0 18 18" fill="none" xmlns="http://www.w3.org/2000/svg">
<g clip-path="url(#clip0_1_249)">
<path d="M4.612 0.690887C3.47955 0.690887 2.55807 1.60397 2.55807 2.72204L2.4834 13.2532L3.60372 13.2612L3.67843 2.72615C3.67843 2.22163 4.09725 1.81121 4.61204 1.81121H15.8714V0.690887H4.612Z" fill="#6E6E8C"/>
<path d="M15.8714 0.690887C14.6976 0.690887 13.7427 1.64577 13.7427 2.81953V14.639C13.7427 15.4935 13.0474 16.1888 12.1929 16.1888C11.3385 16.1888 10.6431 15.4935 10.6431 14.639V13.2759C10.6431 12.9665 10.3924 12.7158 10.083 12.7158H0.56018C0.25077 12.7158 0 12.9665 0 13.2759V14.639C0 16.1113 1.19781 17.3091 2.67012 17.3091V16.1888C1.8155 16.1888 1.12032 15.4935 1.12032 14.639V13.8361H9.52281V14.639C9.52281 16.1113 10.7206 17.3091 12.1929 17.3091C13.6652 17.3091 14.863 16.1113 14.863 14.639V5.88174H17.4398C17.7492 5.88174 18 5.63097 18 5.32156V2.81949C18 1.64577 17.0451 0.690887 15.8714 0.690887ZM16.8797 4.76142H14.8631V2.81949C14.8631 2.26343 15.3155 1.81121 15.8714 1.81121C16.4272 1.81121 16.8796 2.26346 16.8796 2.81949V4.76142H16.8797Z" fill="#6E6E8C"/>
<path d="M12.0616 16.1888H2.55762V17.3091H12.0616V16.1888Z" fill="#6E6E8C"/>
<path d="M8.32743 3.80914H5.43323C5.12382 3.80914 4.87305 4.05991 4.87305 4.36932C4.87305 4.67873 5.12382 4.9295 5.43323 4.9295H8.32743C8.63684 4.9295 8.88761 4.67873 8.88761 4.36932C8.88761 4.05991 8.63681 3.80914 8.32743 3.80914Z" fill="#6E6E8C"/>
<path d="M11.6884 6.0498H5.43323C5.12382 6.0498 4.87305 6.30057 4.87305 6.60998C4.87305 6.91939 5.12382 7.17016 5.43323 7.17016H11.6884C11.9978 7.17016 12.2486 6.91939 12.2486 6.60998C12.2486 6.30057 11.9978 6.0498 11.6884 6.0498Z" fill="#6E6E8C"/>
<path d="M11.6884 8.29044H5.43323C5.12382 8.29044 4.87305 8.54121 4.87305 8.85062C4.87305 9.16003 5.12382 9.41079 5.43323 9.41079H11.6884C11.9978 9.41079 12.2486 9.1602 12.2486 8.85062C12.2486 8.54121 11.9978 8.29044 11.6884 8.29044Z" fill="#6E6E8C"/>
<path d="M11.6884 10.5311H5.43323C5.12382 10.5311 4.87305 10.7819 4.87305 11.0913C4.87305 11.4007 5.12382 11.6515 5.43323 11.6515H11.6884C11.9978 11.6515 12.2486 11.4007 12.2486 11.0913C12.2486 10.7819 11.9978 10.5311 11.6884 10.5311Z" fill="#6E6E8C"/>
</g>
<defs>
<clipPath id="clip0_1_249">
<rect width="18" height="18" fill="white"/>
</clipPath>
</defs>
</svg>
