<svg width="14" height="15" viewBox="0 0 14 15" fill="none" xmlns="http://www.w3.org/2000/svg">
<g clip-path="url(#clip0_1_1265)">
<path d="M13.3852 8.19381L12.8028 7.71436C12.4038 7.38594 12.4045 6.77552 12.8028 6.44775L13.3852 5.9683C13.7997 5.62708 13.9057 5.04198 13.6373 4.577L12.4872 2.58511C12.2188 2.12016 11.6589 1.91946 11.1563 2.10775L10.4499 2.37241C9.966 2.55364 9.43772 2.24796 9.35293 1.7391L9.22893 0.994965C9.14066 0.465426 8.68694 0.0810547 8.15008 0.0810547H5.85006C5.31316 0.0810547 4.85942 0.465426 4.77118 0.994992L4.64715 1.7391C4.56219 2.24887 4.0332 2.55334 3.55023 2.37243L2.8438 2.10775C2.34114 1.91946 1.78136 2.12019 1.51287 2.58511L0.362878 4.57697C0.0944448 5.04189 0.200429 5.62702 0.614933 5.96827L1.19733 6.44772C1.59633 6.77617 1.59553 7.38654 1.19733 7.71434L0.614906 8.19378C0.200429 8.53503 0.0944174 9.12016 0.362851 9.58509L1.51287 11.577C1.78134 12.0419 2.34101 12.2426 2.8438 12.0543L3.5502 11.7897C4.03416 11.6084 4.56233 11.9143 4.64712 12.423L4.77116 13.1671C4.85942 13.6967 5.31316 14.0811 5.85003 14.0811H8.15005C8.68692 14.0811 9.14066 13.6967 9.2289 13.1671L9.3529 12.423C9.43783 11.9134 9.9668 11.6087 10.4499 11.7897L11.1563 12.0544C11.6591 12.2427 12.2188 12.0419 12.4872 11.577L13.6373 9.58509C13.9057 9.12016 13.7997 8.53503 13.3852 8.19381ZM11.54 11.0301L10.8336 10.7655C9.70432 10.3424 8.47191 11.0561 8.27408 12.2432L8.15008 12.9873H5.85006L5.72603 12.2432C5.52781 11.0538 4.2936 10.3432 3.16652 10.7655L2.46009 11.0301L1.31009 9.03824L1.89249 8.55879C2.82351 7.79235 2.82157 6.36818 1.89249 5.60332L1.31009 5.12387L2.46012 3.13199L3.16652 3.39665C4.29581 3.81966 5.52819 3.10598 5.72603 1.91891L5.85003 1.1748H8.15005L8.27405 1.91891C8.4723 3.10842 9.70657 3.81878 10.8336 3.39665L11.54 3.13199L12.6903 5.1236C12.6903 5.1236 12.6902 5.12368 12.69 5.12384L12.1076 5.60329C11.1766 6.36968 11.1785 7.79388 12.1076 8.55877L12.69 9.03821L11.54 11.0301ZM7.00005 4.38313C5.51242 4.38313 4.30213 5.59342 4.30213 7.08105C4.30213 8.56869 5.51242 9.77898 7.00005 9.77898C8.48769 9.77898 9.69798 8.56869 9.69798 7.08105C9.69798 5.59342 8.48769 4.38313 7.00005 4.38313ZM7.00005 8.68523C6.11551 8.68523 5.39588 7.9656 5.39588 7.08105C5.39588 6.19651 6.11551 5.47688 7.00005 5.47688C7.8846 5.47688 8.60423 6.19651 8.60423 7.08105C8.60423 7.9656 7.8846 8.68523 7.00005 8.68523Z"/>
</g>
<defs>
<clipPath id="clip0_1_1265">
<rect width="14" height="14" fill="white" transform="translate(0 0.0810547)"/>
</clipPath>
</defs>
</svg>
