<svg width="13" height="13" viewBox="0 0 13 13" fill="none" xmlns="http://www.w3.org/2000/svg">
<path d="M11.6088 6.27781L12.3762 6.69205C12.4235 6.71756 12.4627 6.75367 12.4899 6.79687C12.5171 6.84006 12.5314 6.88887 12.5314 6.93853C12.5314 6.98818 12.5171 7.03699 12.4899 7.08019C12.4627 7.12339 12.4235 7.1595 12.3762 7.18501L6.4488 10.3858L0.521449 7.18501C0.474111 7.1595 0.434927 7.12339 0.407719 7.08019C0.380512 7.03699 0.366211 6.98818 0.366211 6.93853C0.366211 6.88887 0.380512 6.84006 0.407719 6.79687C0.434927 6.75367 0.474111 6.71756 0.521449 6.69205L1.28878 6.27781L6.4488 9.06433L11.6088 6.27781ZM11.6088 8.97815L12.3762 9.39239C12.4235 9.4179 12.4627 9.45401 12.4899 9.49721C12.5171 9.54041 12.5314 9.58922 12.5314 9.63887C12.5314 9.68853 12.5171 9.73734 12.4899 9.78053C12.4627 9.82373 12.4235 9.85984 12.3762 9.88535L6.77757 12.9086C6.67828 12.9623 6.56463 12.9906 6.4488 12.9906C6.33297 12.9906 6.21932 12.9623 6.12003 12.9086L0.521449 9.88535C0.474111 9.85984 0.434927 9.82373 0.407719 9.78053C0.380512 9.73734 0.366211 9.68853 0.366211 9.63887C0.366211 9.58922 0.380512 9.54041 0.407719 9.49721C0.434927 9.45401 0.474111 9.4179 0.521449 9.39239L1.28878 8.97815L6.4488 11.7647L11.6088 8.97815ZM6.77693 0.997196L12.3762 4.02043C12.4235 4.04594 12.4627 4.08205 12.4899 4.12525C12.5171 4.16845 12.5314 4.21726 12.5314 4.26691C12.5314 4.31657 12.5171 4.36537 12.4899 4.40857C12.4627 4.45177 12.4235 4.48788 12.3762 4.51339L6.4488 7.71416L0.521449 4.51339C0.474111 4.48788 0.434927 4.45177 0.407719 4.40857C0.380512 4.36537 0.366211 4.31657 0.366211 4.26691C0.366211 4.21726 0.380512 4.16845 0.407719 4.12525C0.434927 4.08205 0.474111 4.04594 0.521449 4.02043L6.12003 0.997196C6.21932 0.943509 6.33297 0.915146 6.4488 0.915146C6.56463 0.915146 6.67828 0.943509 6.77757 0.997196H6.77693Z" fill="#6E6E8C"/>
</svg>
