<svg width="13" height="15" viewBox="0 0 13 15" fill="none" xmlns="http://www.w3.org/2000/svg">
<path d="M0 14.0811H12.2597V0.0810547H0V14.0811ZM6.38122 3.60039H9.90055V4.76061H6.38122V3.60039ZM6.38122 7.08105H9.90055V8.24128H6.38122V7.08105ZM6.38122 10.5617H9.90055V11.7219H6.38122V10.5617ZM2.73058 2.61014L3.41778 3.29734L4.75702 1.51226L5.68497 2.20793L3.54355 5.06374L1.9103 3.4305L2.73058 2.61014ZM2.73058 6.09081L3.41778 6.77801L4.75702 4.99293L5.68497 5.6886L3.54355 8.5444L1.9103 6.91116L2.73058 6.09081ZM2.73058 9.57147L3.41778 10.2587L4.75702 8.47359L5.68497 9.16926L3.54355 12.0251L1.9103 10.3918L2.73058 9.57147Z"/>
</svg>
