<svg width="188" height="188" viewBox="0 0 188 188" fill="none" xmlns="http://www.w3.org/2000/svg">
<g filter="url(#filter0_f_5_9406)">
<path d="M96.7887 52.0182C113.569 49.1716 129.48 60.4673 132.327 77.2478L135.639 96.7723C138.485 113.553 127.19 129.464 110.409 132.31L90.8847 135.622C74.1042 138.469 58.1933 127.173 55.3467 110.393L52.0346 90.8683C49.188 74.0878 60.4837 58.1769 77.2642 55.3303L96.7887 52.0182Z" stroke="#FFAE39" stroke-width="0.71138"/>
</g>
<path d="M96.0289 47.1895C115.638 43.8623 134.232 57.0616 137.559 76.6709L140.807 95.8129C144.135 115.422 130.935 134.016 111.326 137.343L92.1839 140.591C72.5745 143.919 53.9806 130.719 50.6534 111.11L47.4055 91.9679C44.0782 72.3585 57.2775 53.7647 76.8869 50.4374L96.0289 47.1895Z" stroke="#FFAE39" stroke-width="0.71138"/>
<path d="M127.232 53.1497C145.496 61.0266 153.916 82.2175 146.039 100.481L134.508 127.216C126.631 145.48 105.44 153.9 87.1768 146.023L60.4414 134.492C42.1779 126.616 33.7578 105.425 41.6347 87.1611L53.1654 60.4256C61.0423 42.1622 82.2332 33.7421 100.497 41.619L127.232 53.1497Z" stroke="#FFAE39" stroke-opacity="0.24" stroke-width="0.71138"/>
<path d="M77.2546 42.5247C93.6008 31.1934 116.038 35.2589 127.369 51.6052L145.136 77.2346C156.467 93.5809 152.401 116.018 136.055 127.349L110.426 145.116C94.0794 156.447 71.6423 152.382 60.311 136.035L42.5446 110.406C31.2133 94.0595 35.2788 71.6223 51.6251 60.2911L77.2546 42.5247Z" stroke="#FFAE39" stroke-opacity="0.12" stroke-width="0.71138"/>
<defs>
<filter id="filter0_f_5_9406" x="25.2618" y="25.2454" width="137.15" height="137.15" filterUnits="userSpaceOnUse" color-interpolation-filters="sRGB">
<feFlood flood-opacity="0" result="BackgroundImageFix"/>
<feBlend mode="normal" in="SourceGraphic" in2="BackgroundImageFix" result="shape"/>
<feGaussianBlur stdDeviation="12.989" result="effect1_foregroundBlur_5_9406"/>
</filter>
</defs>
</svg>
