<svg width="20" height="20" viewBox="0 0 20 20" fill="none" xmlns="http://www.w3.org/2000/svg">
<mask id="mask0_1_1578" style="mask-type:alpha" maskUnits="userSpaceOnUse" x="0" y="0" width="20" height="20">
<rect width="20" height="20" rx="10" fill="#D9D9D9"/>
</mask>
<g mask="url(#mask0_1_1578)">
<mask id="mask1_1_1578" style="mask-type:alpha" maskUnits="userSpaceOnUse" x="-4" y="0" width="28" height="20">
<rect x="-3.33301" width="26.6667" height="20" fill="white"/>
</mask>
<g mask="url(#mask1_1_1578)">
<path fill-rule="evenodd" clip-rule="evenodd" d="M-3.33252 0V20H23.3341V0H-3.33252Z" fill="#2E42A5"/>
<mask id="mask2_1_1578" style="mask-type:alpha" maskUnits="userSpaceOnUse" x="-4" y="0" width="28" height="20">
<path fill-rule="evenodd" clip-rule="evenodd" d="M-3.33252 0V20H23.3341V0H-3.33252Z" fill="white"/>
</mask>
<g mask="url(#mask2_1_1578)">
<mask id="mask3_1_1578" style="mask-type:alpha" maskUnits="userSpaceOnUse" x="-4" y="0" width="28" height="20">
<rect x="-3.33203" width="26.6667" height="20" fill="white"/>
</mask>
<g mask="url(#mask3_1_1578)">
<path d="M-6.30176 18.5708L-0.433683 21.0525L23.4673 2.69781L26.5626 -0.990093L20.2876 -1.81956L10.5389 6.09L2.69223 11.4192L-6.30176 18.5708Z" fill="white"/>
<path d="M-5.49854 20.3081L-2.50902 21.7483L25.451 -1.33416H21.2534L-5.49854 20.3081Z" fill="#F50100"/>
<path d="M26.3022 18.5708L20.4342 21.0525L-3.46686 2.69781L-6.56213 -0.990093L-0.287073 -1.81956L9.46159 6.09L17.3083 11.4192L26.3022 18.5708Z" fill="white"/>
<path d="M26.1016 19.8186L23.112 21.2588L11.2064 11.376L7.6766 10.2718L-6.86043 -0.97752H-2.6628L11.8661 10.0048L15.7252 11.3288L26.1016 19.8186Z" fill="#F50100"/>
<mask id="path-10-inside-1_1_1578" fill="white">
<path fill-rule="evenodd" clip-rule="evenodd" d="M13.1485 -1.66699H6.85217V6.66675H-4.97705V13.3334H6.85217V21.6663H13.1485V13.3334H25.0229V6.66675H13.1485V-1.66699Z"/>
</mask>
<path fill-rule="evenodd" clip-rule="evenodd" d="M13.1485 -1.66699H6.85217V6.66675H-4.97705V13.3334H6.85217V21.6663H13.1485V13.3334H25.0229V6.66675H13.1485V-1.66699Z" fill="#F50100"/>
<path d="M6.85217 -1.66699V-3.16699H5.35217V-1.66699H6.85217ZM13.1485 -1.66699H14.6485V-3.16699H13.1485V-1.66699ZM6.85217 6.66675V8.16675H8.35217V6.66675H6.85217ZM-4.97705 6.66675V5.16675H-6.47705V6.66675H-4.97705ZM-4.97705 13.3334H-6.47705V14.8334H-4.97705V13.3334ZM6.85217 13.3334H8.35217V11.8334H6.85217V13.3334ZM6.85217 21.6663H5.35217V23.1663H6.85217V21.6663ZM13.1485 21.6663V23.1663H14.6485V21.6663H13.1485ZM13.1485 13.3334V11.8334H11.6485V13.3334H13.1485ZM25.0229 13.3334V14.8334H26.5229V13.3334H25.0229ZM25.0229 6.66675H26.5229V5.16675H25.0229V6.66675ZM13.1485 6.66675H11.6485V8.16675H13.1485V6.66675ZM6.85217 -0.166992H13.1485V-3.16699H6.85217V-0.166992ZM8.35217 6.66675V-1.66699H5.35217V6.66675H8.35217ZM-4.97705 8.16675H6.85217V5.16675H-4.97705V8.16675ZM-3.47705 13.3334V6.66675H-6.47705V13.3334H-3.47705ZM6.85217 11.8334H-4.97705V14.8334H6.85217V11.8334ZM8.35217 21.6663V13.3334H5.35217V21.6663H8.35217ZM13.1485 20.1663H6.85217V23.1663H13.1485V20.1663ZM11.6485 13.3334V21.6663H14.6485V13.3334H11.6485ZM25.0229 11.8334H13.1485V14.8334H25.0229V11.8334ZM23.5229 6.66675V13.3334H26.5229V6.66675H23.5229ZM13.1485 8.16675H25.0229V5.16675H13.1485V8.16675ZM11.6485 -1.66699V6.66675H14.6485V-1.66699H11.6485Z" fill="white" mask="url(#path-10-inside-1_1_1578)"/>
</g>
</g>
</g>
</g>
</svg>
