<svg width="20" height="20" viewBox="0 0 20 20" fill="none" xmlns="http://www.w3.org/2000/svg">
<mask id="mask0_1_1779" style="mask-type:alpha" maskUnits="userSpaceOnUse" x="0" y="0" width="20" height="20">
<rect width="20" height="20" rx="10" fill="#D9D9D9"/>
</mask>
<g mask="url(#mask0_1_1779)">
<mask id="mask1_1_1779" style="mask-type:alpha" maskUnits="userSpaceOnUse" x="-3" y="-1" width="28" height="21">
<rect x="-2.50049" y="-0.300243" width="27" height="20.25" fill="white"/>
</mask>
<g mask="url(#mask1_1_1779)">
<path fill-rule="evenodd" clip-rule="evenodd" d="M4.24951 -0.300243H24.4995V19.9498H4.24951V-0.300243Z" fill="#EF0000"/>
<path fill-rule="evenodd" clip-rule="evenodd" d="M-2.50049 -0.300243H7.62451V19.9498H-2.50049V-0.300243Z" fill="#2F8D00"/>
<mask id="mask2_1_1779" style="mask-type:alpha" maskUnits="userSpaceOnUse" x="3" y="3" width="9" height="11">
<path fill-rule="evenodd" clip-rule="evenodd" d="M7.544 13.0173C5.08323 13.0173 3.08838 10.9984 3.08838 8.50796C3.08838 6.01754 5.08323 3.99865 7.544 3.99865C10.0048 3.99865 11.9996 6.01754 11.9996 8.50796C11.9996 10.9984 10.0048 13.0173 7.544 13.0173Z" fill="white"/>
</mask>
<g mask="url(#mask2_1_1779)">
<path fill-rule="evenodd" clip-rule="evenodd" d="M7.26904 3.88696H7.84662V5.44573H7.26904V3.88696Z" fill="#FFE017"/>
<path fill-rule="evenodd" clip-rule="evenodd" d="M7.26904 11.6814H7.84662V13.1289H7.26904V11.6814Z" fill="#FFE017"/>
<path d="M3.15953 8.7411L2.99805 8.32681C4.77999 7.61541 6.12492 7.15663 7.03749 6.94987C8.3764 6.64652 9.84754 6.42208 11.451 6.27639L11.4904 6.71997C9.90528 6.86399 8.45301 7.08555 7.13363 7.38448C6.24823 7.58508 4.92197 8.03749 3.15953 8.7411Z" fill="#FFE017"/>
<path d="M11.7232 6.00331L11.5921 6.42847C10.2454 6.0033 9.14829 5.82054 8.305 5.87715L8.27588 5.43276C9.18129 5.37199 10.329 5.56318 11.7232 6.00331Z" fill="#FFE017"/>
<path d="M12.1897 8.38075L11.9407 8.748C11.2542 8.27134 10.4083 8.03192 9.39746 8.03192V7.58655C10.4934 7.58655 11.426 7.85055 12.1897 8.38075Z" fill="#FFE017"/>
<path d="M11.8163 8.51396L11.93 8.94418C10.4499 9.3451 9.06029 9.57256 7.76105 9.62613C6.45286 9.68006 4.92812 9.45178 3.18555 8.94303L3.30752 8.51511C5.00775 9.0115 6.48672 9.23293 7.74314 9.18113C9.00852 9.12896 10.3663 8.90672 11.8163 8.51396Z" fill="#FFE017"/>
<path d="M11.649 10.6075L10.9534 11.3207C9.63144 9.99997 8.46766 9.05565 7.46916 8.48825C6.45359 7.91116 5.1292 7.32516 3.49805 6.73262L3.83255 5.78947C5.51181 6.39948 6.88492 7.00704 7.95392 7.61449C9.03998 8.23165 10.2693 9.22913 11.649 10.6075Z" fill="#FFE017"/>
<path d="M3.82042 11.0118L3.55713 10.6549C3.5939 10.6271 3.6595 10.5808 3.7499 10.5221C3.89914 10.4251 4.06487 10.3283 4.24318 10.2379C4.7343 9.98874 5.22694 9.83319 5.69682 9.8189C5.71979 9.8182 5.74268 9.81785 5.76546 9.81785V10.2632C5.74711 10.2632 5.72863 10.2635 5.71003 10.2641C5.31406 10.2761 4.87922 10.4134 4.44038 10.636C4.2768 10.719 4.1244 10.808 3.98762 10.8969C3.94001 10.9278 3.89788 10.9564 3.86179 10.9819C3.84074 10.9968 3.82677 11.007 3.82042 11.0118Z" fill="#FFE017"/>
<path d="M4.02539 11.1673L4.13621 10.7363C5.60334 11.1227 6.7344 11.3152 7.52378 11.3152C8.3102 11.3152 9.48072 11.0881 11.0277 10.6323L11.1507 11.0599C9.56713 11.5265 8.36068 11.7606 7.52378 11.7606C6.68982 11.7606 5.52557 11.5624 4.02539 11.1673Z" fill="#FFE017"/>
<path d="M3.45312 7.17742L4.15031 6.46588L5.17108 7.4903L4.4739 8.20184L3.45312 7.17742Z" fill="#FFE017"/>
<path d="M9.23682 10.7305L9.75539 9.87683L11.3747 10.8844L10.8561 11.738L9.23682 10.7305Z" fill="#FFE017"/>
</g>
<path fill-rule="evenodd" clip-rule="evenodd" d="M3.08838 8.50796C3.08838 10.9984 5.08323 13.0173 7.544 13.0173C10.0048 13.0173 11.9996 10.9984 11.9996 8.50796C11.9996 6.01754 10.0048 3.99865 7.544 3.99865C5.08323 3.99865 3.08838 6.01754 3.08838 8.50796ZM11.4496 8.56322C11.4496 10.7154 9.72561 12.4601 7.59902 12.4601C5.47243 12.4601 3.74848 10.7154 3.74848 8.56322C3.74848 6.411 5.47243 4.66629 7.59902 4.66629C9.72561 4.66629 11.4496 6.411 11.4496 8.56322Z" fill="#F9E813"/>
<path d="M5.09033 5.72797V9.34403C5.32837 10.7753 6.13032 11.491 7.49618 11.491C8.86204 11.491 9.66399 10.7753 9.90203 9.34403V5.72797H5.09033Z" fill="white"/>
<path d="M4.76025 5.39415H10.232V9.37215L10.2275 9.39968C9.96314 10.989 9.02609 11.8252 7.49615 11.8252C5.9662 11.8252 5.02915 10.989 4.76483 9.39968L4.76025 9.37215V5.39415Z" fill="#C51918"/>
<path d="M6.01221 6.6102H8.98081V9.17517C8.98081 9.17517 8.76052 10.4997 7.49651 10.4997C6.2325 10.4997 6.01221 9.17517 6.01221 9.17517V6.6102Z" fill="#F7FCFF"/>
<path fill-rule="evenodd" clip-rule="evenodd" d="M5.28955 5.6691H5.70708V5.94745H5.28955V5.6691Z" fill="#F9E813"/>
<path fill-rule="evenodd" clip-rule="evenodd" d="M5.06885 5.78078H5.83896V5.91996H5.06885V5.78078Z" fill="#060101"/>
<path fill-rule="evenodd" clip-rule="evenodd" d="M5.06885 5.89122H5.48638V6.0304H5.06885V5.89122Z" fill="#F9E813"/>
<path fill-rule="evenodd" clip-rule="evenodd" d="M5.50977 5.89122H5.92729V6.0304H5.50977V5.89122Z" fill="#F9E813"/>
<path fill-rule="evenodd" clip-rule="evenodd" d="M5.06885 6.22629H5.3472V6.64382H5.06885V6.22629Z" fill="#F9E813"/>
<path fill-rule="evenodd" clip-rule="evenodd" d="M5.61914 6.22629H5.89749V6.64382H5.61914V6.22629Z" fill="#F9E813"/>
<path fill-rule="evenodd" clip-rule="evenodd" d="M5.39893 6.22629H5.5381V6.64382H5.39893V6.22629Z" fill="#F9E813"/>
<path fill-rule="evenodd" clip-rule="evenodd" d="M5.06885 6.1146H5.83896V6.25378H5.06885V6.1146Z" fill="#060101"/>
<path fill-rule="evenodd" clip-rule="evenodd" d="M5.06885 6.44842H5.83896V6.58759H5.06885V6.44842Z" fill="#060101"/>
<path fill-rule="evenodd" clip-rule="evenodd" d="M5.17871 6.00166H5.31789V6.14083H5.17871V6.00166Z" fill="#F9E813"/>
<path fill-rule="evenodd" clip-rule="evenodd" d="M5.61914 6.00166H5.75832V6.14083H5.61914V6.00166Z" fill="#F9E813"/>
<path fill-rule="evenodd" clip-rule="evenodd" d="M5.39893 5.89122H5.5381V6.16957H5.39893V5.89122Z" fill="#F9E813"/>
<path fill-rule="evenodd" clip-rule="evenodd" d="M7.37939 5.66921H7.79692V5.94756H7.37939V5.66921Z" fill="#F9E813"/>
<path fill-rule="evenodd" clip-rule="evenodd" d="M7.15918 5.7809H7.92929V5.92008H7.15918V5.7809Z" fill="#060101"/>
<path fill-rule="evenodd" clip-rule="evenodd" d="M7.15918 5.89133H7.57671V6.03051H7.15918V5.89133Z" fill="#F9E813"/>
<path fill-rule="evenodd" clip-rule="evenodd" d="M7.59961 5.89133H8.01714V6.03051H7.59961V5.89133Z" fill="#F9E813"/>
<path fill-rule="evenodd" clip-rule="evenodd" d="M7.15918 6.22641H7.43753V6.64393H7.15918V6.22641Z" fill="#F9E813"/>
<path fill-rule="evenodd" clip-rule="evenodd" d="M7.70947 6.22641H7.98782V6.64393H7.70947V6.22641Z" fill="#F9E813"/>
<path fill-rule="evenodd" clip-rule="evenodd" d="M7.48926 6.22641H7.62843V6.64393H7.48926V6.22641Z" fill="#F9E813"/>
<path fill-rule="evenodd" clip-rule="evenodd" d="M7.15918 6.11472H7.92929V6.25389H7.15918V6.11472Z" fill="#060101"/>
<path fill-rule="evenodd" clip-rule="evenodd" d="M7.15918 6.44853H7.92929V6.58771H7.15918V6.44853Z" fill="#060101"/>
<path fill-rule="evenodd" clip-rule="evenodd" d="M7.26904 6.00177H7.40822V6.14095H7.26904V6.00177Z" fill="#F9E813"/>
<path fill-rule="evenodd" clip-rule="evenodd" d="M7.70947 6.00177H7.84865V6.14095H7.70947V6.00177Z" fill="#F9E813"/>
<path fill-rule="evenodd" clip-rule="evenodd" d="M7.48926 5.89133H7.62843V6.16969H7.48926V5.89133Z" fill="#F9E813"/>
<path fill-rule="evenodd" clip-rule="evenodd" d="M9.35986 5.66921H9.77739V5.94756H9.35986V5.66921Z" fill="#F9E813"/>
<path fill-rule="evenodd" clip-rule="evenodd" d="M9.13965 5.7809H9.90976V5.92008H9.13965V5.7809Z" fill="#060101"/>
<path fill-rule="evenodd" clip-rule="evenodd" d="M9.13965 5.89133H9.55718V6.03051H9.13965V5.89133Z" fill="#F9E813"/>
<path fill-rule="evenodd" clip-rule="evenodd" d="M9.58008 5.89133H9.99761V6.03051H9.58008V5.89133Z" fill="#F9E813"/>
<path fill-rule="evenodd" clip-rule="evenodd" d="M9.13965 6.22641H9.418V6.64393H9.13965V6.22641Z" fill="#F9E813"/>
<path fill-rule="evenodd" clip-rule="evenodd" d="M9.68994 6.22641H9.96829V6.64393H9.68994V6.22641Z" fill="#F9E813"/>
<path fill-rule="evenodd" clip-rule="evenodd" d="M9.46973 6.22641H9.6089V6.64393H9.46973V6.22641Z" fill="#F9E813"/>
<path fill-rule="evenodd" clip-rule="evenodd" d="M9.13965 6.11472H9.90976V6.25389H9.13965V6.11472Z" fill="#060101"/>
<path fill-rule="evenodd" clip-rule="evenodd" d="M9.13965 6.44853H9.90976V6.58771H9.13965V6.44853Z" fill="#060101"/>
<path fill-rule="evenodd" clip-rule="evenodd" d="M9.24951 6.00177H9.38869V6.14095H9.24951V6.00177Z" fill="#F9E813"/>
<path fill-rule="evenodd" clip-rule="evenodd" d="M9.68994 6.00177H9.82912V6.14095H9.68994V6.00177Z" fill="#F9E813"/>
<path fill-rule="evenodd" clip-rule="evenodd" d="M9.46973 5.89133H9.6089V6.16969H9.46973V5.89133Z" fill="#F9E813"/>
<path fill-rule="evenodd" clip-rule="evenodd" d="M9.35938 7.67416H9.7769V7.95252H9.35938V7.67416Z" fill="#F9E813"/>
<path fill-rule="evenodd" clip-rule="evenodd" d="M9.13916 7.78585H9.90927V7.92503H9.13916V7.78585Z" fill="#060101"/>
<path fill-rule="evenodd" clip-rule="evenodd" d="M9.13916 7.89629H9.55669V8.03547H9.13916V7.89629Z" fill="#F9E813"/>
<path fill-rule="evenodd" clip-rule="evenodd" d="M9.57959 7.89629H9.99712V8.03547H9.57959V7.89629Z" fill="#F9E813"/>
<path fill-rule="evenodd" clip-rule="evenodd" d="M9.13916 8.23136H9.41751V8.64889H9.13916V8.23136Z" fill="#F9E813"/>
<path fill-rule="evenodd" clip-rule="evenodd" d="M9.68945 8.23136H9.96781V8.64889H9.68945V8.23136Z" fill="#F9E813"/>
<path fill-rule="evenodd" clip-rule="evenodd" d="M9.46924 8.23136H9.60841V8.64889H9.46924V8.23136Z" fill="#F9E813"/>
<path fill-rule="evenodd" clip-rule="evenodd" d="M9.13916 8.12093H9.90927V8.2601H9.13916V8.12093Z" fill="#060101"/>
<path fill-rule="evenodd" clip-rule="evenodd" d="M9.13916 8.45349H9.90927V8.59266H9.13916V8.45349Z" fill="#060101"/>
<path fill-rule="evenodd" clip-rule="evenodd" d="M9.24902 8.00798H9.3882V8.14716H9.24902V8.00798Z" fill="#F9E813"/>
<path fill-rule="evenodd" clip-rule="evenodd" d="M9.68945 8.00798H9.82863V8.14716H9.68945V8.00798Z" fill="#F9E813"/>
<path fill-rule="evenodd" clip-rule="evenodd" d="M9.46924 7.89629H9.60841V8.17464H9.46924V7.89629Z" fill="#F9E813"/>
<path fill-rule="evenodd" clip-rule="evenodd" d="M5.28955 7.67416H5.70708V7.95252H5.28955V7.67416Z" fill="#F9E813"/>
<path fill-rule="evenodd" clip-rule="evenodd" d="M5.06934 7.78585H5.83944V7.92503H5.06934V7.78585Z" fill="#060101"/>
<path fill-rule="evenodd" clip-rule="evenodd" d="M5.06934 7.89629H5.48686V8.03547H5.06934V7.89629Z" fill="#F9E813"/>
<path fill-rule="evenodd" clip-rule="evenodd" d="M5.50977 7.89629H5.92729V8.03547H5.50977V7.89629Z" fill="#F9E813"/>
<path fill-rule="evenodd" clip-rule="evenodd" d="M5.06934 8.23136H5.34769V8.64889H5.06934V8.23136Z" fill="#F9E813"/>
<path fill-rule="evenodd" clip-rule="evenodd" d="M5.61963 8.23136H5.89798V8.64889H5.61963V8.23136Z" fill="#F9E813"/>
<path fill-rule="evenodd" clip-rule="evenodd" d="M5.39941 8.23136H5.53859V8.64889H5.39941V8.23136Z" fill="#F9E813"/>
<path fill-rule="evenodd" clip-rule="evenodd" d="M5.06934 8.12093H5.83944V8.2601H5.06934V8.12093Z" fill="#060101"/>
<path fill-rule="evenodd" clip-rule="evenodd" d="M5.06934 8.45349H5.83944V8.59266H5.06934V8.45349Z" fill="#060101"/>
<path fill-rule="evenodd" clip-rule="evenodd" d="M5.1792 8.00798H5.31838V8.14716H5.1792V8.00798Z" fill="#F9E813"/>
<path fill-rule="evenodd" clip-rule="evenodd" d="M5.61963 8.00798H5.7588V8.14716H5.61963V8.00798Z" fill="#F9E813"/>
<path fill-rule="evenodd" clip-rule="evenodd" d="M5.39941 7.89629H5.53859V8.17464H5.39941V7.89629Z" fill="#F9E813"/>
<path fill-rule="evenodd" clip-rule="evenodd" d="M5.55713 10.1852L5.82551 9.86538L6.03874 10.0443L5.77036 10.3641L5.55713 10.1852Z" fill="#F9E813"/>
<path fill-rule="evenodd" clip-rule="evenodd" d="M5.50049 10.4249L5.9955 9.83498L6.10212 9.92444L5.6071 10.5144L5.50049 10.4249Z" fill="#060101"/>
<path fill-rule="evenodd" clip-rule="evenodd" d="M5.58594 10.4977L5.85432 10.1779L5.96093 10.2673L5.69255 10.5872L5.58594 10.4977Z" fill="#F9E813"/>
<path fill-rule="evenodd" clip-rule="evenodd" d="M5.86816 10.1614L6.13655 9.84153L6.24316 9.93099L5.97478 10.2508L5.86816 10.1614Z" fill="#F9E813"/>
<path fill-rule="evenodd" clip-rule="evenodd" d="M5.84131 10.7123L6.02023 10.4991L6.34008 10.7675L6.16115 10.9807L5.84131 10.7123Z" fill="#F9E813"/>
<path fill-rule="evenodd" clip-rule="evenodd" d="M6.19531 10.2906L6.37423 10.0774L6.69408 10.3458L6.51516 10.559L6.19531 10.2906Z" fill="#F9E813"/>
<path fill-rule="evenodd" clip-rule="evenodd" d="M6.0542 10.4601L6.14366 10.3534L6.4635 10.6218L6.37404 10.7284L6.0542 10.4601Z" fill="#F9E813"/>
<path fill-rule="evenodd" clip-rule="evenodd" d="M5.75684 10.6408L6.25185 10.0508L6.35847 10.1403L5.86345 10.7302L5.75684 10.6408Z" fill="#060101"/>
<path fill-rule="evenodd" clip-rule="evenodd" d="M6.0127 10.8554L6.50771 10.2654L6.61433 10.3549L6.11931 10.9448L6.0127 10.8554Z" fill="#060101"/>
<path fill-rule="evenodd" clip-rule="evenodd" d="M5.7417 10.4852L5.83116 10.3785L5.93777 10.468L5.84831 10.5746L5.7417 10.4852Z" fill="#F9E813"/>
<path fill-rule="evenodd" clip-rule="evenodd" d="M6.02441 10.1476L6.11387 10.041L6.22049 10.1304L6.13103 10.237L6.02441 10.1476Z" fill="#F9E813"/>
<path fill-rule="evenodd" clip-rule="evenodd" d="M5.79785 10.2455L5.88731 10.1388L6.10054 10.3178L6.01108 10.4244L5.79785 10.2455Z" fill="#F9E813"/>
<path fill-rule="evenodd" clip-rule="evenodd" d="M9.31982 9.93369L9.58821 10.2535L9.37498 10.4325L9.10659 10.1126L9.31982 9.93369Z" fill="#F9E813"/>
<path fill-rule="evenodd" clip-rule="evenodd" d="M9.09277 9.83581L9.58779 10.4257L9.48117 10.5152L8.98616 9.92527L9.09277 9.83581Z" fill="#060101"/>
<path fill-rule="evenodd" clip-rule="evenodd" d="M9.00781 9.9086L9.27619 10.2284L9.16958 10.3179L8.9012 9.99806L9.00781 9.9086Z" fill="#F9E813"/>
<path fill-rule="evenodd" clip-rule="evenodd" d="M9.29053 10.2449L9.55891 10.5648L9.45229 10.6542L9.18391 10.3344L9.29053 10.2449Z" fill="#F9E813"/>
<path fill-rule="evenodd" clip-rule="evenodd" d="M8.75195 10.1232L8.93087 10.3364L8.61103 10.6048L8.43211 10.3916L8.75195 10.1232Z" fill="#F9E813"/>
<path fill-rule="evenodd" clip-rule="evenodd" d="M9.10596 10.5449L9.28488 10.7581L8.96503 11.0265L8.78611 10.8132L9.10596 10.5449Z" fill="#F9E813"/>
<path fill-rule="evenodd" clip-rule="evenodd" d="M8.96484 10.3754L9.0543 10.482L8.73446 10.7504L8.645 10.6438L8.96484 10.3754Z" fill="#F9E813"/>
<path fill-rule="evenodd" clip-rule="evenodd" d="M8.8374 10.0504L9.33242 10.6403L9.2258 10.7298L8.73079 10.1399L8.8374 10.0504Z" fill="#060101"/>
<path fill-rule="evenodd" clip-rule="evenodd" d="M8.58105 10.265L9.07607 10.8549L8.96946 10.9444L8.47444 10.3545L8.58105 10.265Z" fill="#060101"/>
<path fill-rule="evenodd" clip-rule="evenodd" d="M8.99365 10.063L9.08311 10.1696L8.9765 10.259L8.88704 10.1524L8.99365 10.063Z" fill="#F9E813"/>
<path fill-rule="evenodd" clip-rule="evenodd" d="M9.27588 10.4018L9.36534 10.5084L9.25872 10.5979L9.16926 10.4913L9.27588 10.4018Z" fill="#F9E813"/>
<path fill-rule="evenodd" clip-rule="evenodd" d="M9.22021 10.1608L9.30968 10.2675L9.09645 10.4464L9.00698 10.3398L9.22021 10.1608Z" fill="#F9E813"/>
<path fill-rule="evenodd" clip-rule="evenodd" d="M7.92129 6.89632H7.15869V7.45165C7.15869 7.45165 7.21528 7.73843 7.53999 7.73843C7.8647 7.73843 7.92129 7.45165 7.92129 7.45165V6.89632ZM7.48839 7.11801C7.48839 7.17951 7.43914 7.22935 7.37838 7.22935C7.31762 7.22935 7.26836 7.17951 7.26836 7.11801C7.26836 7.05652 7.31762 7.00667 7.37838 7.00667C7.43914 7.00667 7.48839 7.05652 7.48839 7.11801ZM7.37838 7.67612C7.43914 7.67612 7.48839 7.62627 7.48839 7.56478C7.48839 7.50328 7.43914 7.45343 7.37838 7.45343C7.31762 7.45343 7.26836 7.50328 7.26836 7.56478C7.26836 7.62627 7.31762 7.67612 7.37838 7.67612ZM7.81844 7.56478C7.81844 7.62627 7.76919 7.67612 7.70843 7.67612C7.64767 7.67612 7.59841 7.62627 7.59841 7.56478C7.59841 7.50328 7.64767 7.45343 7.70843 7.45343C7.76919 7.45343 7.81844 7.50328 7.81844 7.56478ZM7.54403 7.45148C7.60479 7.45148 7.65404 7.40163 7.65404 7.34014C7.65404 7.27865 7.60479 7.2288 7.54403 7.2288C7.48327 7.2288 7.43401 7.27865 7.43401 7.34014C7.43401 7.40163 7.48327 7.45148 7.54403 7.45148ZM7.81844 7.11801C7.81844 7.17951 7.76919 7.22935 7.70843 7.22935C7.64767 7.22935 7.59841 7.17951 7.59841 7.11801C7.59841 7.05652 7.64767 7.00667 7.70843 7.00667C7.76919 7.00667 7.81844 7.05652 7.81844 7.11801Z" fill="#013399"/>
<path fill-rule="evenodd" clip-rule="evenodd" d="M7.92129 8.1199H7.15869V8.67523C7.15869 8.67523 7.21528 8.962 7.53999 8.962C7.8647 8.962 7.92129 8.67523 7.92129 8.67523V8.1199ZM7.48839 8.34153C7.48839 8.40302 7.43914 8.45287 7.37838 8.45287C7.31762 8.45287 7.26836 8.40302 7.26836 8.34153C7.26836 8.28004 7.31762 8.23019 7.37838 8.23019C7.43914 8.23019 7.48839 8.28004 7.48839 8.34153ZM7.37838 8.89963C7.43914 8.89963 7.48839 8.84978 7.48839 8.78829C7.48839 8.7268 7.43914 8.67695 7.37838 8.67695C7.31762 8.67695 7.26836 8.7268 7.26836 8.78829C7.26836 8.84978 7.31762 8.89963 7.37838 8.89963ZM7.81844 8.78829C7.81844 8.84978 7.76919 8.89963 7.70843 8.89963C7.64767 8.89963 7.59841 8.84978 7.59841 8.78829C7.59841 8.7268 7.64767 8.67695 7.70843 8.67695C7.76919 8.67695 7.81844 8.7268 7.81844 8.78829ZM7.54403 8.675C7.60479 8.675 7.65404 8.62515 7.65404 8.56366C7.65404 8.50217 7.60479 8.45232 7.54403 8.45232C7.48327 8.45232 7.43401 8.50217 7.43401 8.56366C7.43401 8.62515 7.48327 8.675 7.54403 8.675ZM7.81844 8.34153C7.81844 8.40302 7.76919 8.45287 7.70843 8.45287C7.64767 8.45287 7.59841 8.40302 7.59841 8.34153C7.59841 8.28004 7.64767 8.23019 7.70843 8.23019C7.76919 8.23019 7.81844 8.28004 7.81844 8.34153Z" fill="#013399"/>
<path fill-rule="evenodd" clip-rule="evenodd" d="M8.91104 8.1199H8.14844V8.67523C8.14844 8.67523 8.20503 8.962 8.52974 8.962C8.85445 8.962 8.91104 8.67523 8.91104 8.67523V8.1199ZM8.47806 8.34153C8.47806 8.40302 8.4288 8.45287 8.36804 8.45287C8.30728 8.45287 8.25803 8.40302 8.25803 8.34153C8.25803 8.28004 8.30728 8.23019 8.36804 8.23019C8.4288 8.23019 8.47806 8.28004 8.47806 8.34153ZM8.36804 8.89963C8.4288 8.89963 8.47806 8.84978 8.47806 8.78829C8.47806 8.7268 8.4288 8.67695 8.36804 8.67695C8.30728 8.67695 8.25803 8.7268 8.25803 8.78829C8.25803 8.84978 8.30728 8.89963 8.36804 8.89963ZM8.80811 8.78829C8.80811 8.84978 8.75885 8.89963 8.69809 8.89963C8.63733 8.89963 8.58808 8.84978 8.58808 8.78829C8.58808 8.7268 8.63733 8.67695 8.69809 8.67695C8.75885 8.67695 8.80811 8.7268 8.80811 8.78829ZM8.53307 8.675C8.59383 8.675 8.64308 8.62515 8.64308 8.56366C8.64308 8.50217 8.59383 8.45232 8.53307 8.45232C8.47231 8.45232 8.42305 8.50217 8.42305 8.56366C8.42305 8.62515 8.47231 8.675 8.53307 8.675ZM8.80811 8.34153C8.80811 8.40302 8.75885 8.45287 8.69809 8.45287C8.63733 8.45287 8.58808 8.40302 8.58808 8.34153C8.58808 8.28004 8.63733 8.23019 8.69809 8.23019C8.75885 8.23019 8.80811 8.28004 8.80811 8.34153Z" fill="#013399"/>
<path fill-rule="evenodd" clip-rule="evenodd" d="M6.93203 8.1199H6.16943V8.67523C6.16943 8.67523 6.22602 8.962 6.55073 8.962C6.87544 8.962 6.93203 8.67523 6.93203 8.67523V8.1199ZM6.49949 8.34153C6.49949 8.40302 6.45024 8.45287 6.38948 8.45287C6.32872 8.45287 6.27946 8.40302 6.27946 8.34153C6.27946 8.28004 6.32872 8.23019 6.38948 8.23019C6.45024 8.23019 6.49949 8.28004 6.49949 8.34153ZM6.38948 8.89963C6.45024 8.89963 6.49949 8.84978 6.49949 8.78829C6.49949 8.7268 6.45024 8.67695 6.38948 8.67695C6.32872 8.67695 6.27946 8.7268 6.27946 8.78829C6.27946 8.84978 6.32872 8.89963 6.38948 8.89963ZM6.82954 8.78829C6.82954 8.84978 6.78029 8.89963 6.71953 8.89963C6.65877 8.89963 6.60951 8.84978 6.60951 8.78829C6.60951 8.7268 6.65877 8.67695 6.71953 8.67695C6.78029 8.67695 6.82954 8.7268 6.82954 8.78829ZM6.5545 8.675C6.61526 8.675 6.66452 8.62515 6.66452 8.56366C6.66452 8.50217 6.61526 8.45232 6.5545 8.45232C6.49374 8.45232 6.44449 8.50217 6.44449 8.56366C6.44449 8.62515 6.49374 8.675 6.5545 8.675ZM6.82954 8.34153C6.82954 8.40302 6.78029 8.45287 6.71953 8.45287C6.65877 8.45287 6.60951 8.40302 6.60951 8.34153C6.60951 8.28004 6.65877 8.23019 6.71953 8.23019C6.78029 8.23019 6.82954 8.28004 6.82954 8.34153Z" fill="#013399"/>
<path fill-rule="evenodd" clip-rule="evenodd" d="M7.92178 9.34473H7.15918V9.90005C7.15918 9.90005 7.21577 10.1868 7.54048 10.1868C7.86519 10.1868 7.92178 9.90005 7.92178 9.90005V9.34473ZM7.48902 9.56658C7.48902 9.62807 7.43976 9.67792 7.379 9.67792C7.31824 9.67792 7.26899 9.62807 7.26899 9.56658C7.26899 9.50509 7.31824 9.45524 7.379 9.45524C7.43976 9.45524 7.48902 9.50509 7.48902 9.56658ZM7.379 10.1247C7.43976 10.1247 7.48902 10.0748 7.48902 10.0133C7.48902 9.95185 7.43976 9.902 7.379 9.902C7.31824 9.902 7.26899 9.95185 7.26899 10.0133C7.26899 10.0748 7.31824 10.1247 7.379 10.1247ZM7.81907 10.0133C7.81907 10.0748 7.76982 10.1247 7.70906 10.1247C7.6483 10.1247 7.59904 10.0748 7.59904 10.0133C7.59904 9.95185 7.6483 9.902 7.70906 9.902C7.76982 9.902 7.81907 9.95185 7.81907 10.0133ZM7.54466 9.9013C7.60542 9.9013 7.65467 9.85145 7.65467 9.78996C7.65467 9.72847 7.60542 9.67862 7.54466 9.67862C7.4839 9.67862 7.43464 9.72847 7.43464 9.78996C7.43464 9.85145 7.4839 9.9013 7.54466 9.9013ZM7.81907 9.56658C7.81907 9.62807 7.76982 9.67792 7.70906 9.67792C7.6483 9.67792 7.59904 9.62807 7.59904 9.56658C7.59904 9.50509 7.6483 9.45524 7.70906 9.45524C7.76982 9.45524 7.81907 9.50509 7.81907 9.56658Z" fill="#013399"/>
</g>
</g>
</svg>
