<svg width="20" height="20" viewBox="0 0 20 20" fill="none" xmlns="http://www.w3.org/2000/svg">
<mask id="mask0_1_1607" style="mask-type:alpha" maskUnits="userSpaceOnUse" x="0" y="0" width="20" height="20">
<rect width="20" height="20" rx="10" fill="#D9D9D9"/>
</mask>
<g mask="url(#mask0_1_1607)">
<mask id="mask1_1_1607" style="mask-type:alpha" maskUnits="userSpaceOnUse" x="-4" y="0" width="28" height="20">
<rect x="-3.33301" width="26.6667" height="20" fill="white"/>
</mask>
<g mask="url(#mask1_1_1607)">
<path fill-rule="evenodd" clip-rule="evenodd" d="M-3.33252 0V20H23.3341V0H-3.33252Z" fill="#2E42A5"/>
<mask id="mask2_1_1607" style="mask-type:alpha" maskUnits="userSpaceOnUse" x="-4" y="0" width="28" height="20">
<path fill-rule="evenodd" clip-rule="evenodd" d="M-3.33252 0V20H23.3341V0H-3.33252Z" fill="white"/>
</mask>
<g mask="url(#mask2_1_1607)">
<mask id="mask3_1_1607" style="mask-type:alpha" maskUnits="userSpaceOnUse" x="-4" y="0" width="28" height="20">
<rect x="-3.33203" width="26.6667" height="20" fill="white"/>
</mask>
<g mask="url(#mask3_1_1607)">
<path d="M-6.30176 18.5708L-0.433683 21.0525L23.4673 2.69781L26.5626 -0.990093L20.2876 -1.81956L10.5389 6.09L2.69223 11.4192L-6.30176 18.5708Z" fill="white"/>
<path d="M-5.49854 20.3081L-2.50902 21.7483L25.451 -1.33416H21.2534L-5.49854 20.3081Z" fill="#F50100"/>
<path d="M26.3022 18.5708L20.4342 21.0525L-3.46686 2.69781L-6.56213 -0.990093L-0.287073 -1.81956L9.46159 6.09L17.3083 11.4192L26.3022 18.5708Z" fill="white"/>
<path d="M26.1016 19.8186L23.112 21.2588L11.2064 11.376L7.6766 10.2718L-6.86043 -0.97752H-2.6628L11.8661 10.0048L15.7252 11.3288L26.1016 19.8186Z" fill="#F50100"/>
<mask id="path-10-inside-1_1_1607" fill="white">
<path fill-rule="evenodd" clip-rule="evenodd" d="M13.1485 -1.66699H6.85217V6.66675H-4.97705V13.3334H6.85217V21.6663H13.1485V13.3334H25.0229V6.66675H13.1485V-1.66699Z"/>
</mask>
<path fill-rule="evenodd" clip-rule="evenodd" d="M13.1485 -1.66699H6.85217V6.66675H-4.97705V13.3334H6.85217V21.6663H13.1485V13.3334H25.0229V6.66675H13.1485V-1.66699Z" fill="#F50100"/>
<path d="M6.85217 -1.66699V-3.16699H5.35217V-1.66699H6.85217ZM13.1485 -1.66699H14.6485V-3.16699H13.1485V-1.66699ZM6.85217 6.66675V8.16675H8.35217V6.66675H6.85217ZM-4.97705 6.66675V5.16675H-6.47705V6.66675H-4.97705ZM-4.97705 13.3334H-6.47705V14.8334H-4.97705V13.3334ZM6.85217 13.3334H8.35217V11.8334H6.85217V13.3334ZM6.85217 21.6663H5.35217V23.1663H6.85217V21.6663ZM13.1485 21.6663V23.1663H14.6485V21.6663H13.1485ZM13.1485 13.3334V11.8334H11.6485V13.3334H13.1485ZM25.0229 13.3334V14.8334H26.5229V13.3334H25.0229ZM25.0229 6.66675H26.5229V5.16675H25.0229V6.66675ZM13.1485 6.66675H11.6485V8.16675H13.1485V6.66675ZM6.85217 -0.166992H13.1485V-3.16699H6.85217V-0.166992ZM8.35217 6.66675V-1.66699H5.35217V6.66675H8.35217ZM-4.97705 8.16675H6.85217V5.16675H-4.97705V8.16675ZM-3.47705 13.3334V6.66675H-6.47705V13.3334H-3.47705ZM6.85217 11.8334H-4.97705V14.8334H6.85217V11.8334ZM8.35217 21.6663V13.3334H5.35217V21.6663H8.35217ZM13.1485 20.1663H6.85217V23.1663H13.1485V20.1663ZM11.6485 13.3334V21.6663H14.6485V13.3334H11.6485ZM25.0229 11.8334H13.1485V14.8334H25.0229V11.8334ZM23.5229 6.66675V13.3334H26.5229V6.66675H23.5229ZM13.1485 8.16675H25.0229V5.16675H13.1485V8.16675ZM11.6485 -1.66699V6.66675H14.6485V-1.66699H11.6485Z" fill="white" mask="url(#path-10-inside-1_1_1607)"/>
</g>
</g>
</g>
<mask id="mask4_1_1607" style="mask-type:alpha" maskUnits="userSpaceOnUse" x="-1" y="0" width="27" height="21">
<rect x="-0.666504" y="0.066864" width="26.6665" height="19.9999" fill="white"/>
</mask>
<g mask="url(#mask4_1_1607)">
<path fill-rule="evenodd" clip-rule="evenodd" d="M-0.666504 0.066864V20.0005H25.9116V0.066864H-0.666504Z" fill="#FFB400"/>
<mask id="mask5_1_1607" style="mask-type:alpha" maskUnits="userSpaceOnUse" x="-1" y="0" width="27" height="21">
<path fill-rule="evenodd" clip-rule="evenodd" d="M-0.666504 0.066864V20.0667H26V0.066864H-0.666504Z" fill="white"/>
</mask>
<g mask="url(#mask5_1_1607)">
<path fill-rule="evenodd" clip-rule="evenodd" d="M-0.666504 0.066864V5.06679H25.9998V0.066864H-0.666504Z" fill="#C51918"/>
<path fill-rule="evenodd" clip-rule="evenodd" d="M-0.666504 15.0666V20.0666H25.9998V15.0666H-0.666504Z" fill="#C51918"/>
<rect x="1.56885" y="9.11975" width="0.64078" height="3.33206" fill="#F1F9FF"/>
<path fill-rule="evenodd" clip-rule="evenodd" d="M2.46639 8.54361H1.31299V8.864H1.50484V9.12084H2.27378V8.864H2.46639V8.54361Z" fill="#C88A02"/>
<path fill-rule="evenodd" clip-rule="evenodd" d="M2.27416 12.6438H2.46639V12.9642H1.31299V12.6438H1.50522V12.3875H2.27416V12.6438Z" fill="#C88A02"/>
<path fill-rule="evenodd" clip-rule="evenodd" d="M1.88946 8.60746C2.02891 8.60746 2.04308 8.55495 2.12535 8.47653C2.18923 8.41563 2.33801 8.34011 2.33801 8.25503C2.33801 8.06039 2.13719 7.9026 1.88946 7.9026C1.64174 7.9026 1.44092 8.06039 1.44092 8.25503C1.44092 8.34981 1.54337 8.41319 1.62084 8.47653C1.70246 8.54326 1.76237 8.60746 1.88946 8.60746Z" fill="#AD1619"/>
<path fill-rule="evenodd" clip-rule="evenodd" d="M1.3125 12.9656H2.4659V13.4782C2.4659 13.4782 2.32173 13.4141 2.17755 13.4141C2.03338 13.4141 1.8892 13.4782 1.8892 13.4782C1.8892 13.4782 1.74503 13.4141 1.60085 13.4141C1.45668 13.4141 1.3125 13.4782 1.3125 13.4782V12.9656Z" fill="#005BBF"/>
<mask id="mask6_1_1607" style="mask-type:alpha" maskUnits="userSpaceOnUse" x="1" y="12" width="2" height="2">
<path fill-rule="evenodd" clip-rule="evenodd" d="M1.3125 12.9656H2.4659V13.4782C2.4659 13.4782 2.32173 13.4141 2.17755 13.4141C2.03338 13.4141 1.8892 13.4782 1.8892 13.4782C1.8892 13.4782 1.74503 13.4141 1.60085 13.4141C1.45668 13.4141 1.3125 13.4782 1.3125 13.4782V12.9656Z" fill="white"/>
</mask>
<g mask="url(#mask6_1_1607)">
<path d="M1.30203 13.3769L1.27686 13.3156C1.38074 13.2693 1.485 13.2461 1.58941 13.2461C1.65687 13.2461 1.69209 13.2555 1.75198 13.2822C1.80458 13.3056 1.83185 13.3129 1.88938 13.3129C1.9469 13.3129 1.97417 13.3056 2.02677 13.2822C2.08666 13.2555 2.12188 13.2461 2.18934 13.2461C2.29376 13.2461 2.39801 13.2693 2.5019 13.3156L2.47672 13.3769C2.38063 13.3342 2.28491 13.3129 2.18934 13.3129C2.13182 13.3129 2.10455 13.3202 2.05195 13.3436C1.99206 13.3702 1.95683 13.3796 1.88938 13.3796C1.82192 13.3796 1.78669 13.3702 1.72681 13.3436C1.6742 13.3202 1.64694 13.3129 1.58941 13.3129C1.49384 13.3129 1.39812 13.3342 1.30203 13.3769Z" fill="white"/>
<path d="M1.30203 13.1851L1.27686 13.1237C1.38074 13.0775 1.485 13.0543 1.58941 13.0543C1.65687 13.0543 1.69209 13.0637 1.75198 13.0903C1.80458 13.1137 1.83185 13.121 1.88938 13.121C1.9469 13.121 1.97417 13.1137 2.02677 13.0903C2.08666 13.0637 2.12188 13.0543 2.18934 13.0543C2.29376 13.0543 2.39801 13.0775 2.5019 13.1237L2.47672 13.1851C2.38063 13.1423 2.28491 13.121 2.18934 13.121C2.13182 13.121 2.10455 13.1283 2.05195 13.1517C1.99206 13.1783 1.95683 13.1878 1.88938 13.1878C1.82192 13.1878 1.78669 13.1783 1.72681 13.1517C1.6742 13.1283 1.64694 13.121 1.58941 13.121C1.49384 13.121 1.39812 13.1423 1.30203 13.1851Z" fill="white"/>
</g>
<rect x="7.84912" y="9.11975" width="0.64078" height="3.33206" fill="#F1F9FF"/>
<path fill-rule="evenodd" clip-rule="evenodd" d="M8.7452 8.54361H7.5918V8.864H7.78417V9.12084H8.5531V8.864H8.7452V8.54361Z" fill="#C88A02"/>
<path fill-rule="evenodd" clip-rule="evenodd" d="M8.55345 12.6438H8.74569V12.9642H7.59229V12.6438H7.78452V12.3875H8.55345V12.6438Z" fill="#C88A02"/>
<path fill-rule="evenodd" clip-rule="evenodd" d="M8.16925 8.60746C8.30869 8.60746 8.32287 8.55495 8.40514 8.47653C8.46902 8.41563 8.61779 8.34011 8.61779 8.25503C8.61779 8.06039 8.41697 7.9026 8.16925 7.9026C7.92152 7.9026 7.7207 8.06039 7.7207 8.25503C7.7207 8.34981 7.82316 8.41319 7.90063 8.47653C7.98224 8.54326 8.04216 8.60746 8.16925 8.60746Z" fill="#AD1619"/>
<path fill-rule="evenodd" clip-rule="evenodd" d="M7.59277 12.9656H8.74618V13.4782C8.74618 13.4782 8.602 13.4141 8.45783 13.4141C8.31365 13.4141 8.16948 13.4782 8.16948 13.4782C8.16948 13.4782 8.0253 13.4141 7.88112 13.4141C7.73695 13.4141 7.59277 13.4782 7.59277 13.4782V12.9656Z" fill="#005BBF"/>
<mask id="mask7_1_1607" style="mask-type:alpha" maskUnits="userSpaceOnUse" x="7" y="12" width="2" height="2">
<path fill-rule="evenodd" clip-rule="evenodd" d="M7.59277 12.9656H8.74618V13.4782C8.74618 13.4782 8.602 13.4141 8.45783 13.4141C8.31365 13.4141 8.16948 13.4782 8.16948 13.4782C8.16948 13.4782 8.0253 13.4141 7.88112 13.4141C7.73695 13.4141 7.59277 13.4782 7.59277 13.4782V12.9656Z" fill="white"/>
</mask>
<g mask="url(#mask7_1_1607)">
<path d="M7.5823 13.3769L7.55713 13.3156C7.66101 13.2693 7.76527 13.2461 7.86968 13.2461C7.93714 13.2461 7.97237 13.2555 8.03225 13.2822C8.08486 13.3056 8.11212 13.3129 8.16965 13.3129C8.22718 13.3129 8.25444 13.3056 8.30705 13.2822C8.36693 13.2555 8.40216 13.2461 8.46962 13.2461C8.57403 13.2461 8.67828 13.2693 8.78217 13.3156L8.757 13.3769C8.6609 13.3342 8.56518 13.3129 8.46962 13.3129C8.41209 13.3129 8.38482 13.3202 8.33222 13.3436C8.27233 13.3702 8.23711 13.3796 8.16965 13.3796C8.10219 13.3796 8.06696 13.3702 8.00708 13.3436C7.95448 13.3202 7.92721 13.3129 7.86968 13.3129C7.77412 13.3129 7.6784 13.3342 7.5823 13.3769Z" fill="white"/>
<path d="M7.5823 13.1851L7.55713 13.1237C7.66101 13.0775 7.76527 13.0543 7.86968 13.0543C7.93714 13.0543 7.97237 13.0637 8.03225 13.0903C8.08486 13.1137 8.11212 13.121 8.16965 13.121C8.22718 13.121 8.25444 13.1137 8.30705 13.0903C8.36693 13.0637 8.40216 13.0543 8.46962 13.0543C8.57403 13.0543 8.67828 13.0775 8.78217 13.1237L8.757 13.1851C8.6609 13.1423 8.56518 13.121 8.46962 13.121C8.41209 13.121 8.38482 13.1283 8.33222 13.1517C8.27233 13.1783 8.23711 13.1878 8.16965 13.1878C8.10219 13.1878 8.06696 13.1783 8.00708 13.1517C7.95448 13.1283 7.92721 13.121 7.86968 13.121C7.77412 13.121 7.6784 13.1423 7.5823 13.1851Z" fill="white"/>
</g>
<path fill-rule="evenodd" clip-rule="evenodd" d="M1.55786 12.2131C1.67338 12.073 1.73799 11.9456 1.73799 11.8102C1.73799 11.7249 1.71259 11.6512 1.66811 11.591L1.67562 11.5876C1.67493 11.5879 1.80236 11.5324 1.84672 11.5111C1.9292 11.4716 2.00185 11.4297 2.0727 11.3782C2.11792 11.3453 2.17852 11.3095 2.2709 11.2598L2.3577 11.2137L2.38115 11.2012C2.42604 11.1773 2.45948 11.1589 2.49054 11.1409C2.58732 11.0848 2.65128 11.0384 2.7002 10.9763C2.81607 10.8294 2.79201 10.6302 2.62964 10.5197C2.5501 10.4655 2.44275 10.4344 2.2854 10.41L2.06035 10.3751C1.98505 10.3633 1.91787 10.3522 1.85796 10.3418C2.25191 10.2762 2.81444 10.3003 3.06188 10.4281L3.29706 9.97258C2.79282 9.71224 1.64392 9.73882 1.21475 10.0344C0.899968 10.2512 0.942209 10.5789 1.26972 10.72C1.40658 10.7789 1.58498 10.818 1.91513 10.8711C1.8598 10.9032 1.81393 10.9325 1.7712 10.9636C1.72785 10.9951 1.68142 11.0219 1.62509 11.0489C1.59816 11.0618 1.51845 11.0968 1.48187 11.1129L1.48185 11.1129L1.48182 11.1129L1.46343 11.121C1.19666 11.2423 1.06719 11.4101 1.10588 11.713L1.12682 11.877L1.16439 11.8885L1.55786 12.2131ZM1.22774 11.7886L1.22692 11.7909L1.22755 11.7893L1.22774 11.7886ZM8.26213 11.8106C8.26213 11.9459 8.32674 12.0733 8.44226 12.2134L8.83573 11.8888L8.8733 11.8773L8.89424 11.7133C8.93293 11.4104 8.80346 11.2426 8.53669 11.1213L8.5183 11.1132C8.48174 11.0971 8.40197 11.0621 8.37503 11.0492C8.3187 11.0222 8.27227 10.9954 8.22892 10.9639C8.18619 10.9328 8.14032 10.9035 8.08499 10.8714C8.41514 10.8184 8.59354 10.7792 8.7304 10.7203C9.05791 10.5792 9.10015 10.2515 8.78537 10.0347C8.3562 9.73914 7.2073 9.71255 6.70306 9.97289L6.93824 10.4284C7.18568 10.3006 7.74821 10.2765 8.14216 10.3421C8.08225 10.3526 8.01507 10.3636 7.93977 10.3754L7.71472 10.4103C7.55737 10.4348 7.45002 10.4658 7.37048 10.52C7.20811 10.6305 7.18405 10.8297 7.29992 10.9766C7.34884 11.0387 7.4128 11.0851 7.50958 11.1412C7.54065 11.1592 7.57408 11.1776 7.61897 11.2015L7.64245 11.214L7.72922 11.2602C7.8216 11.3098 7.8822 11.3456 7.92742 11.3785C7.99827 11.43 8.07092 11.4719 8.1534 11.5114C8.19776 11.5327 8.32519 11.5882 8.3245 11.5879L8.33202 11.5913C8.28753 11.6515 8.26213 11.7252 8.26213 11.8106Z" fill="#AD1619"/>
<path d="M2.09255 10.3379L2.28168 10.377V10.659C2.08024 10.8197 1.56885 11.0906 1.56885 11.0906V10.3379H2.09255Z" fill="#F1F9FF"/>
<path d="M8.03783 10.3379L7.84869 10.377V10.659C8.05013 10.8197 8.56152 11.0906 8.56152 11.0906V10.3379H8.03783Z" fill="#F1F9FF"/>
<path fill-rule="evenodd" clip-rule="evenodd" d="M4.00273 6.91803C3.46167 6.91803 2.96729 7.27284 2.96729 7.27284V7.36666L3.61357 8.01575C3.61357 8.01575 3.79548 8.64048 5.06943 8.49369V8.4955C5.06943 8.4955 5.91294 8.47247 5.97221 8.45276C5.99573 8.44494 6.02012 8.43782 6.04504 8.43054C6.21026 8.38231 6.39887 8.32724 6.51114 8.01599L7.15743 7.3669V7.27308C6.82784 7.03654 6.48269 6.91826 6.12199 6.91826C5.7762 6.76524 5.4262 6.70584 5.07199 6.74005C5.0721 6.73881 5.07215 6.73817 5.07215 6.73817C4.53952 6.68606 4.00273 6.91803 4.00273 6.91803ZM5.06943 6.76958C5.05079 6.98877 4.94636 8.28701 5.06943 8.48913V6.76958Z" fill="#AD1619"/>
<path fill-rule="evenodd" clip-rule="evenodd" d="M3.46071 7.90637L3.46105 7.90479L3.00635 7.47699L3.05026 7.43032L3.47693 7.83176L3.48794 7.78114C3.55774 7.79631 3.60876 7.80189 3.63849 7.79873V7.71166L3.73307 7.76284C3.77959 7.78801 3.84621 7.79478 3.93395 7.78051C3.9984 7.77002 4.04188 7.69517 4.0561 7.53568L4.08481 7.21371L4.1811 7.52229C4.22467 7.66192 4.29114 7.72347 4.38577 7.72347C4.47819 7.72347 4.51534 7.68959 4.51944 7.60418L4.53107 7.36196L4.64061 7.57831C4.68008 7.65625 4.7345 7.69162 4.81188 7.69162C4.92256 7.69162 4.99649 7.59935 4.99649 7.45458H4.99847H5.12465H5.12663C5.12663 7.59935 5.20056 7.69162 5.31124 7.69162C5.38862 7.69162 5.44305 7.65625 5.48251 7.57831L5.59205 7.36196L5.60368 7.60418C5.60778 7.68959 5.64493 7.72347 5.73736 7.72347C5.83199 7.72347 5.89846 7.66192 5.94203 7.52229L6.03832 7.21371L6.06702 7.53568C6.08124 7.69517 6.12473 7.77002 6.18917 7.78051C6.27691 7.79478 6.34354 7.78801 6.39005 7.76284L6.48463 7.71166V7.79873C6.51437 7.80189 6.56538 7.79631 6.63518 7.78114L6.65547 7.87446L7.12754 7.43032L7.17144 7.47699L6.5837 8.02996C6.49795 8.18788 6.45477 8.29212 6.45477 8.33542C6.45477 8.40148 6.28291 8.44068 5.94749 8.48096C5.6848 8.5125 5.37478 8.53367 5.12116 8.53684V8.53726L5.0889 8.53715L5.05664 8.53726V8.53684C4.80301 8.53367 4.493 8.5125 4.2303 8.48096C3.89489 8.44068 3.72303 8.40148 3.72303 8.33542C3.72303 8.32726 3.72149 8.31694 3.71843 8.3045C3.68435 8.26134 3.66044 8.19036 3.64458 8.12647C3.62982 8.09696 3.61299 8.06476 3.59409 8.02996L3.46333 7.90693L3.46071 7.90637ZM6.61063 7.91664C6.50557 7.93526 6.42971 7.93341 6.38948 7.90065C6.32658 7.91895 6.25282 7.9207 6.16859 7.907C6.07863 7.89236 6.01598 7.83252 5.97829 7.73326C5.92896 7.7961 5.86657 7.83483 5.79181 7.84726C6.20214 7.90542 6.48964 7.98723 6.48964 7.98723C6.48964 7.98723 6.48259 8.04763 6.46547 8.11879C6.48362 8.08161 6.50508 8.04034 6.52987 7.99482L6.53605 7.98681L6.61063 7.91664ZM5.59923 7.82302C5.56337 7.80529 5.53475 7.77953 5.51409 7.74629C5.48341 7.77338 5.4485 7.79317 5.40972 7.80534C5.47448 7.81029 5.53779 7.81628 5.59923 7.82302ZM5.18429 7.79292C5.13424 7.76988 5.09263 7.73291 5.06156 7.6855C5.03072 7.73256 4.98949 7.76934 4.93992 7.79242C4.9693 7.79154 4.99885 7.79093 5.02853 7.7906V7.79031L5.05408 7.79038L5.07963 7.79031V7.7906C5.11473 7.79099 5.14963 7.79178 5.18429 7.79292ZM3.63685 7.98221L3.57688 7.92578C3.64889 7.93299 3.70217 7.92628 3.73364 7.90065C3.79654 7.91895 3.87031 7.9207 3.95453 7.907C4.04449 7.89236 4.10714 7.83252 4.14484 7.73326C4.1927 7.79423 4.25286 7.83251 4.32469 7.84608C3.97083 7.89576 3.70677 7.96341 3.63685 7.98221ZM4.71055 7.80443C4.64825 7.80905 4.58726 7.81465 4.52796 7.82096C4.56192 7.80332 4.58915 7.77827 4.60904 7.74629C4.63896 7.77272 4.67291 7.79219 4.71055 7.80443ZM6.28654 8.33646C6.33128 8.3574 6.36718 8.33665 6.39558 8.29669C6.39315 8.30772 6.39162 8.3177 6.391 8.32665C6.38725 8.32911 6.38148 8.33207 6.37392 8.33525C6.35281 8.34412 6.32058 8.35358 6.27865 8.36314C6.19622 8.38195 6.0789 8.40064 5.93985 8.41733C5.66837 8.44993 5.34555 8.47138 5.0889 8.47307C4.83224 8.47138 4.50942 8.44993 4.23794 8.41733C4.09889 8.40064 3.98157 8.38195 3.89915 8.36314C3.86376 8.35507 3.83528 8.34708 3.81457 8.33945L3.82163 8.33646C3.96165 8.27094 4.88778 8.20946 5.05408 8.19888C5.22038 8.20946 6.14652 8.27094 6.28654 8.33646ZM6.46334 8.32461L6.46237 8.32573L6.46295 8.32492L6.46334 8.32461Z" fill="#C88A02"/>
<path fill-rule="evenodd" clip-rule="evenodd" d="M5.06137 6.30265C5.16754 6.30265 5.25361 6.21658 5.25361 6.11042C5.25361 6.00425 5.16754 5.91818 5.06137 5.91818C4.95521 5.91818 4.86914 6.00425 4.86914 6.11042C4.86914 6.21658 4.95521 6.30265 5.06137 6.30265Z" fill="#005BBF"/>
<path fill-rule="evenodd" clip-rule="evenodd" d="M4.93625 7.24702C4.94036 7.26816 4.94679 7.28784 4.9549 7.30537C4.93004 7.29584 4.9005 7.29032 4.86881 7.29032C4.78034 7.29032 4.70862 7.33336 4.70862 7.38644C4.70862 7.43952 4.78034 7.48256 4.86881 7.48256C4.95729 7.48256 5.02901 7.43952 5.02901 7.38644L5.02893 7.38342L5.02947 7.3836L5.02941 7.38644C5.02941 7.43952 5.10113 7.48256 5.1896 7.48256C5.27807 7.48256 5.3498 7.43952 5.3498 7.38644C5.3498 7.33336 5.27807 7.29032 5.1896 7.29032C5.16722 7.29032 5.1459 7.29308 5.12655 7.29805C5.13122 7.27175 5.13103 7.24157 5.12495 7.21034C5.10807 7.12349 5.05215 7.0613 5.00004 7.07142C4.94793 7.08155 4.91937 7.16017 4.93625 7.24702ZM3.99346 7.36908C3.98539 7.35161 3.97901 7.33201 3.97492 7.31097C3.95804 7.22412 3.98659 7.1455 4.0387 7.13538C4.09081 7.12525 4.14674 7.18744 4.16362 7.27429C4.16969 7.30553 4.16989 7.3357 4.16522 7.362C4.18457 7.35703 4.20588 7.35427 4.22827 7.35427C4.31674 7.35427 4.38846 7.39731 4.38846 7.45039C4.38846 7.50348 4.31674 7.54651 4.22827 7.54651C4.14125 7.54651 4.07045 7.50489 4.06813 7.45301C4.06581 7.50489 3.995 7.54651 3.90799 7.54651C3.81952 7.54651 3.7478 7.50348 3.7478 7.45039C3.7478 7.39731 3.81952 7.35427 3.90799 7.35427C3.93942 7.35427 3.96873 7.3597 3.99346 7.36908ZM4.06812 7.44755L4.06813 7.44777L4.06814 7.44756L4.06812 7.44755ZM6.00066 7.42803C5.99328 7.4806 5.91626 7.51323 5.82865 7.50092C5.74104 7.48861 5.676 7.43601 5.68339 7.38344C5.69078 7.33087 5.76779 7.29824 5.85541 7.31056C5.88663 7.31494 5.91498 7.32445 5.93822 7.33724C5.9326 7.31872 5.92897 7.29831 5.92784 7.27676C5.92321 7.1884 5.96243 7.11453 6.01544 7.11175C6.06845 7.10897 6.11518 7.17834 6.11981 7.2667C6.1215 7.29892 6.11735 7.32922 6.10883 7.35485C6.12875 7.35258 6.15033 7.35281 6.17258 7.35594C6.2602 7.36825 6.32523 7.42085 6.31784 7.47342C6.31046 7.52598 6.23344 7.55862 6.14583 7.5463C6.05822 7.53399 5.99318 7.48139 6.00057 7.42883L6.00123 7.42503L6.00102 7.42493L6.00066 7.42803ZM6.61079 7.68173C6.68891 7.72327 6.77244 7.71894 6.79736 7.67207L6.79865 7.66949C6.80645 7.67789 6.81571 7.68399 6.82631 7.68723C6.87707 7.70275 6.9392 7.64675 6.96506 7.56214C6.99093 7.47753 6.97075 7.39636 6.91998 7.38084C6.86922 7.36532 6.8071 7.42133 6.78123 7.50593C6.77495 7.52648 6.77138 7.54682 6.77031 7.56607C6.7528 7.54585 6.72919 7.52697 6.70104 7.512C6.62293 7.47046 6.5394 7.47479 6.51447 7.52166C6.48955 7.56853 6.53268 7.6402 6.61079 7.68173ZM3.46658 7.70133C3.38847 7.74287 3.30494 7.73854 3.28002 7.69167C3.27963 7.69094 3.27925 7.6902 3.2789 7.68946C3.27118 7.69766 3.26203 7.70364 3.25158 7.70683C3.20082 7.72235 3.1387 7.66634 3.11283 7.58174C3.08696 7.49713 3.10715 7.41596 3.15791 7.40044C3.20867 7.38492 3.2708 7.44092 3.29666 7.52553C3.30288 7.54588 3.30644 7.56603 3.30755 7.58511C3.32502 7.5651 3.34845 7.54643 3.37634 7.5316C3.45445 7.49006 3.53798 7.49439 3.5629 7.54126C3.58782 7.58813 3.5447 7.65979 3.46658 7.70133Z" fill="#C88A02"/>
<path fill-rule="evenodd" clip-rule="evenodd" d="M4.99056 5.57544H5.12406V5.65899H5.21116V5.79248H5.12406V6.06023H5.21116V6.19373H4.90186V6.06023H4.99056V5.79248H4.90186V5.65899H4.99056V5.57544Z" fill="#C88A02"/>
<rect x="4.96582" y="6.30086" width="0.256312" height="0.833014" fill="#C88A02"/>
<path d="M3.93384 6.43943L3.93272 6.5035C3.36454 6.49358 3.03863 6.57649 2.9559 6.74175C2.87037 6.91261 2.88627 7.1203 3.00612 7.36701L2.94848 7.39501C2.82061 7.13178 2.80315 6.90374 2.8986 6.71307C2.99685 6.51681 3.34163 6.42909 3.93384 6.43943Z" fill="white"/>
<path d="M4.04371 7.00828L4.01086 7.06329C3.88712 6.98941 3.8252 6.86333 3.8252 6.68957C3.8252 6.43985 3.95383 6.29342 4.23838 6.1932C4.41999 6.12924 4.66807 6.15547 4.98332 6.26977L4.96148 6.33001C4.65884 6.22028 4.42467 6.19553 4.25967 6.25364C3.99867 6.34556 3.88927 6.4701 3.88927 6.68957C3.88927 6.84205 3.94071 6.94678 4.04371 7.00828Z" fill="white"/>
<path d="M3.08668 7.26926L2.96576 7.31173C2.8403 6.95452 2.87613 6.71193 3.0905 6.60729C3.2794 6.51508 3.5547 6.47755 3.91776 6.49227L3.91258 6.62032C3.56882 6.60639 3.31308 6.64125 3.14672 6.72246C3.00584 6.79123 2.98007 6.96572 3.08668 7.26926Z" fill="#C88A02"/>
<path d="M4.49945 6.35429C4.20644 6.35429 4.08612 6.42565 4.01737 6.63636C3.97357 6.77064 4.01605 6.88525 4.15381 6.99222L4.07521 7.09344C3.89686 6.95494 3.83397 6.78532 3.89554 6.59661C3.98314 6.32809 4.15504 6.22614 4.49945 6.22614C4.72518 6.22614 4.90103 6.28544 5.02347 6.40614L5.04256 6.42496V7.04283H4.91441V6.47973C4.81878 6.39668 4.68142 6.35429 4.49945 6.35429Z" fill="#C88A02"/>
<path d="M6.16968 6.50442L6.1708 6.56849C6.73897 6.55857 7.06489 6.64148 7.14762 6.80674C7.23315 6.97759 7.21725 7.18529 7.0974 7.432L7.15503 7.46C7.28291 7.19677 7.30037 6.96872 7.20492 6.77806C7.10666 6.58179 6.76189 6.49408 6.16968 6.50442Z" fill="white"/>
<path d="M5.96899 7.02169L6.00184 7.0767C6.12557 7.00282 6.1875 6.87674 6.1875 6.70299C6.1875 6.45327 6.05886 6.30683 5.77431 6.20662C5.59271 6.14266 5.34463 6.16888 5.02938 6.28318L5.05122 6.34342C5.35385 6.2337 5.58802 6.20894 5.75303 6.26705C6.01402 6.35897 6.12342 6.48351 6.12342 6.70299C6.12342 6.85547 6.07198 6.96019 5.96899 7.02169Z" fill="white"/>
<path d="M7.05688 7.33321L7.17779 7.37568C7.30325 7.01847 7.26742 6.77588 7.05305 6.67124C6.86416 6.57903 6.58886 6.5415 6.22579 6.55622L6.23098 6.68427C6.57473 6.67034 6.83047 6.7052 6.99683 6.78641C7.13772 6.85518 7.16349 7.02967 7.05688 7.33321Z" fill="#C88A02"/>
<path d="M5.63629 6.36461C5.9293 6.36461 6.04963 6.43597 6.11837 6.64668C6.16218 6.78095 6.11969 6.89556 5.98193 7.00254L6.06053 7.10376C6.23888 6.96526 6.30177 6.79563 6.2402 6.60693C6.1526 6.3384 5.9807 6.23645 5.63629 6.23645C5.41056 6.23645 5.23471 6.29576 5.11227 6.41645L5.09318 6.43527V7.05315H5.22134V6.49005C5.31696 6.40699 5.45432 6.36461 5.63629 6.36461Z" fill="#C88A02"/>
<path opacity="0.3" fill-rule="evenodd" clip-rule="evenodd" d="M2.979 8.54416H7.14407V12.2863C7.14407 12.2863 6.83468 13.5422 5.06154 13.5422C3.28839 13.5422 2.979 12.2532 2.979 12.2532V8.54416Z" fill="#E1E5E8"/>
<mask id="mask8_1_1607" style="mask-type:alpha" maskUnits="userSpaceOnUse" x="2" y="8" width="6" height="6">
<path fill-rule="evenodd" clip-rule="evenodd" d="M2.979 8.54416H7.14407V12.2863C7.14407 12.2863 6.83468 13.5422 5.06154 13.5422C3.28839 13.5422 2.979 12.2532 2.979 12.2532V8.54416Z" fill="white"/>
</mask>
<g mask="url(#mask8_1_1607)">
<rect x="2.979" y="10.8505" width="2.11457" height="2.49904" fill="#FFC034"/>
<rect x="3.23535" y="10.9795" width="0.256312" height="2.37088" fill="#AD1619"/>
<rect x="4.13232" y="10.9795" width="0.256312" height="2.37088" fill="#AD1619"/>
<rect x="3.68408" y="10.9795" width="0.256312" height="2.37088" fill="#AD1619"/>
<rect x="4.58105" y="10.9795" width="0.256312" height="2.37088" fill="#AD1619"/>
<rect x="2.979" y="8.48021" width="2.11457" height="2.43496" fill="#AD1619"/>
<rect x="5.0293" y="10.7866" width="2.11457" height="2.43496" fill="#AD1619"/>
<rect x="5.0293" y="8.54416" width="2.24273" height="2.37088" fill="#F1F9FF"/>
<path fill-rule="evenodd" clip-rule="evenodd" d="M3.87594 8.73705H4.06817V9.26929H4.19621V9.00213H4.38844V9.26929H4.58065V9.60154H4.38855V10.1986H4.58065V10.5309H3.42725V10.1986H3.61962V9.60154H3.42725V9.26929H3.55566V9.00213H3.7479V9.26929H3.87594V8.73705Z" fill="#C88A02"/>
<path d="M6.12891 8.84761L6.26013 8.70714L6.53563 8.96449L6.40441 9.10497L6.12891 8.84761Z" fill="#C88A02"/>
<path fill-rule="evenodd" clip-rule="evenodd" d="M6.91933 12.4788V11.0759H5.31738V12.467L5.31993 12.4779C5.40102 12.8234 5.67718 12.9982 6.11836 12.9982C6.55911 12.9982 6.83523 12.8279 6.91666 12.4899L6.91933 12.4788ZM6.11849 12.8056C5.76452 12.8056 5.57121 12.6864 5.50975 12.444V11.2677H6.72723V12.4551C6.66594 12.6896 6.47261 12.8056 6.11849 12.8056Z" fill="#FFC034"/>
<path fill-rule="evenodd" clip-rule="evenodd" d="M6.18459 11.192H6.0511V11.8281L5.525 11.2559L5.43066 11.3426L5.90571 11.8593H5.47553V12.0516H5.80678H5.91836L5.43108 12.5815L5.52542 12.6683L6.0511 12.0965V12.839H6.18459V12.1626L6.64949 12.6683L6.74383 12.5815L6.25655 12.0516H6.80051V11.8593H6.2692L6.74425 11.3426L6.64991 11.2559L6.18459 11.762V11.192Z" fill="#FFC034"/>
<path fill-rule="evenodd" clip-rule="evenodd" d="M6.41766 13.2231C6.41766 13.2231 5.06047 13.3298 5.06047 12.4545C5.06047 12.4545 5.04752 13.2231 3.63037 13.2231V13.9141H6.41766V13.2231Z" fill="#F1F9FF"/>
<path fill-rule="evenodd" clip-rule="evenodd" d="M5.06164 11.3631C5.32706 11.3631 5.54222 11.1336 5.54222 10.8505C5.54222 10.5674 5.32706 10.3379 5.06164 10.3379C4.79622 10.3379 4.58105 10.5674 4.58105 10.8505C4.58105 11.1336 4.79622 11.3631 5.06164 11.3631Z" fill="#005BBF" stroke="#AD1619" stroke-width="0.667479"/>
</g>
</g>
</g>
</g>
</svg>
