<svg width="92" height="96" viewBox="0 0 92 96" fill="none" xmlns="http://www.w3.org/2000/svg">
<path d="M87.1065 49.0705C86.6744 46.615 86.0651 44.2065 85.3006 41.845C84.0487 37.9796 82.3759 34.2553 80.3485 30.7424C76.4931 24.0456 71.3526 18.0655 65.4034 13.3308C62.2128 10.7813 58.7895 8.59606 55.1889 6.83375C51.4997 5.02444 47.6333 3.67334 43.6561 2.86268C35.7127 1.2531 28.1682 1.92278 21.6429 4.54275C21.377 4.64848 21.1111 4.76597 20.8452 4.88346C20.8341 4.88346 20.8341 4.89521 20.823 4.89521C20.5018 5.03619 20.1694 5.18892 19.8481 5.34166C19.1723 5.65887 18.5076 5.99959 17.854 6.3638C16.7683 6.96299 15.7158 7.63266 14.7076 8.36108C12.3701 10.0412 10.243 12.0267 8.38175 14.2942C8.28204 14.4117 8.18233 14.5292 8.0937 14.6584C6.35436 16.8319 4.85875 19.2639 3.6401 21.9309C1.33575 26.9711 0.0395508 32.822 0.0395508 39.2955C0.0395508 41.4103 0.172489 43.5251 0.449454 45.6398C0.449454 45.6633 0.449458 45.6868 0.460537 45.7103C1.19173 51.3497 2.82028 56.8246 5.20219 61.9823C10.0325 72.4504 17.8761 81.4147 27.3151 87.3831C32.0457 90.3673 37.1419 92.5878 42.4374 93.8684C45.8053 94.679 49.2397 95.102 52.6962 95.102C60.5399 95.102 67.3865 92.8345 72.9036 88.9809V88.9927L76.0389 86.8896L75.6955 86.8074C77.8226 84.9511 79.6948 82.8246 81.3013 80.4866C82.9852 78.0193 84.37 75.3171 85.4336 72.4269C85.8324 71.3343 86.1869 70.2064 86.4971 69.0668C86.9403 67.422 87.2726 65.7302 87.5164 64.0031C87.9152 61.1247 88.026 58.1287 87.8487 55.0388C87.6936 53.065 87.461 51.0795 87.1065 49.0705ZM12.0599 58.4695L9.34559 59.5738C9.19049 59.2331 9.02431 58.8807 8.86921 58.5399C8.75842 58.2815 8.63656 58.023 8.52577 57.7528C8.4593 57.6 8.39283 57.4473 8.33744 57.2946C8.27096 57.1418 8.21557 56.9891 8.1491 56.8364C7.96076 56.3782 7.78351 55.92 7.60625 55.45C7.55086 55.2973 7.49546 55.1445 7.44007 54.9918C7.36252 54.7686 7.27389 54.5454 7.19634 54.3221C7.12987 54.1459 7.07447 53.9697 7.008 53.7934C6.95261 53.6525 6.90829 53.5115 6.86398 53.3588C6.84182 53.2883 6.81966 53.206 6.78643 53.1355C6.6978 52.877 6.62025 52.6186 6.5427 52.3601C6.53162 52.3366 6.52055 52.3131 6.52055 52.2896C6.50947 52.2544 6.49838 52.2309 6.4873 52.1956C6.37652 51.8432 6.27681 51.479 6.16603 51.1265C6.11063 50.9503 6.06632 50.774 6.02201 50.5978C6.02201 50.586 6.01092 50.5625 6.01092 50.5508C5.94445 50.3041 5.87798 50.0573 5.81151 49.8106C5.77827 49.6931 5.75612 49.5756 5.72288 49.4582C5.67857 49.2819 5.63425 49.1057 5.58994 48.9177C5.54562 48.7532 5.51239 48.5888 5.46808 48.4243C5.44592 48.3538 5.43484 48.2833 5.41268 48.2011C5.37945 48.0366 5.33513 47.8721 5.3019 47.7076C5.26866 47.5314 5.22435 47.3551 5.19111 47.1789C5.16895 47.0497 5.13572 46.9322 5.11356 46.803C5.0914 46.6737 5.05816 46.5445 5.03601 46.4152C4.99169 46.192 4.95846 45.9688 4.91414 45.7456C4.91414 45.7221 4.90306 45.6986 4.90306 45.6633C4.8809 45.4988 4.84767 45.3461 4.81443 45.1816C4.79228 45.0524 4.77012 44.9232 4.74797 44.7939C4.73689 44.6999 4.71473 44.6177 4.70365 44.5237C4.68149 44.371 4.65934 44.2182 4.63718 44.0655C4.6261 43.9715 4.61502 43.8893 4.60394 43.7953C4.60394 43.7483 4.59286 43.713 4.58179 43.666C4.58179 43.6308 4.5707 43.5955 4.5707 43.572C4.5707 43.5251 4.55962 43.4663 4.54854 43.4193C4.54854 43.3958 4.54855 43.3723 4.53747 43.3606L7.46223 43.3018L13.8989 43.1843C14.0651 44.324 14.2756 45.4636 14.5415 46.5915C15.1729 49.3407 16.0814 52.0429 17.2225 54.6511C17.433 55.1328 17.6656 55.6145 17.8872 56.0962L12.0599 58.4695ZM46.6362 88.229L46.315 91.3072C41.1302 90.0266 36.034 87.806 31.2148 84.7161L32.5221 81.9904L35.3471 76.0926C37.1086 77.2439 38.9477 78.2661 40.82 79.1355C42.9471 80.1224 45.1295 80.9095 47.3453 81.497L46.6362 88.229Z" fill="#890707"/>
<path d="M79.6383 45.7056C79.3059 43.5908 78.7852 41.5113 78.1094 39.5023C77.4558 37.552 76.647 35.6487 75.7164 33.8276C74.8301 32.1006 73.822 30.444 72.7141 28.8579C71.5287 27.1661 70.2214 25.5565 68.8144 24.0527C67.3299 22.4666 65.7235 21.0098 64.0395 19.6822C62.4442 18.4368 60.7603 17.3089 59.0209 16.3338C57.4034 15.4291 55.7306 14.642 54.0023 14.0075C52.1965 13.3378 50.3463 12.8209 48.4519 12.4802C46.4356 12.116 44.4747 11.975 42.5691 12.022C40.6969 12.069 38.891 12.3157 37.1628 12.7387C35.501 13.1499 33.9167 13.7256 32.4211 14.4657C30.7925 15.2646 29.2748 16.2515 27.89 17.4147C26.4165 18.66 25.087 20.0934 23.9459 21.7029C22.8492 23.242 21.9186 24.9338 21.1763 26.7784C20.4894 28.4937 19.9466 30.3383 19.6142 32.2886C19.2597 34.3328 19.1046 36.4946 19.1821 38.7621C19.2597 41.1706 19.6031 43.5791 20.1681 45.9523C20.7331 48.2786 21.5087 50.5696 22.4946 52.7784C23.4363 54.8931 24.5553 56.9257 25.8293 58.8524C27.0147 60.65 28.3331 62.3536 29.7622 63.9514C29.9949 64.2099 30.2275 64.4566 30.4602 64.7151C32.2549 66.6184 34.2158 68.3454 36.2986 69.861C38.2485 71.2826 40.3091 72.5162 42.4473 73.5266C44.4082 74.4548 46.4134 75.1949 48.463 75.7236C49.4157 75.9703 50.3796 76.1701 51.3434 76.3346C52.5178 76.5225 53.6921 76.64 54.8664 76.687C57.1154 76.7693 59.2536 76.593 61.2699 76.1583C63.2197 75.7471 65.0477 75.1127 66.7427 74.2903C67.6733 73.8321 68.5596 73.3269 69.4016 72.7512C69.9998 72.3517 70.587 71.917 71.1409 71.4588C72.559 70.284 73.833 68.9564 74.9409 67.476C76.0931 65.9369 77.0569 64.2334 77.8435 62.4006C78.5636 60.7088 79.1175 58.8994 79.4942 57.0079C79.8377 55.2808 80.026 53.4833 80.0592 51.627C80.0814 49.7119 79.9485 47.7381 79.6383 45.7056Z" fill="#E01E43"/>
<path d="M90.4618 46.954C90.1516 45.2035 89.7527 43.4764 89.2653 41.7729C88.0245 37.4023 86.2408 33.1963 84.0251 29.2487C79.7709 21.6825 73.866 14.9975 67.0194 9.96902C63.4299 7.32556 59.5746 5.12854 55.553 3.48372C52.872 2.39109 50.1134 1.53343 47.3105 0.95774C37.794 -1.0043 28.8646 0.358552 21.597 4.45886C21.3533 4.59985 21.1096 4.74084 20.8658 4.88182C20.7329 4.96406 20.5889 5.0463 20.4559 5.12854C20.0682 5.37527 19.6804 5.62199 19.2927 5.88046C19.2816 5.89221 19.2705 5.89221 19.2594 5.90396C19.049 6.04495 18.8385 6.19768 18.628 6.35041C18.5172 6.43265 18.3953 6.51489 18.2845 6.59713C18.1737 6.67938 18.063 6.76162 17.9632 6.84386C17.7638 6.9966 17.5533 7.14933 17.3539 7.31381C17.2099 7.4313 17.077 7.53703 16.944 7.65452C16.8111 7.77201 16.667 7.87775 16.5341 7.99524C16.4012 8.11272 16.2682 8.23021 16.1353 8.3477C14.7948 9.53432 13.5429 10.8267 12.3796 12.2483C12.2799 12.3775 12.1802 12.495 12.0805 12.6242C10.3744 14.7743 8.90093 17.1828 7.70444 19.8262C5.43332 24.8194 4.15928 30.6351 4.18144 37.0734C4.18144 39.1764 4.32546 41.2794 4.60242 43.3707L7.52718 43.3119L13.9639 43.1945C14.13 44.3341 14.3405 45.4737 14.6064 46.6016C15.2379 49.3508 16.1463 52.053 17.2874 54.6612C17.4979 55.1429 17.7306 55.6246 17.9522 56.1063L12.0805 58.4913L9.36623 59.5957C9.21113 59.255 9.04495 58.9025 8.88985 58.5618C8.77907 58.3033 8.6572 58.0449 8.54642 57.7746C8.47995 57.6219 8.41347 57.4692 8.35808 57.3164C8.29161 57.1637 8.22513 57.011 8.16974 56.8582C7.9814 56.4 7.80415 55.9418 7.62689 55.4719C7.5715 55.3192 7.51611 55.1664 7.46071 55.0137C7.38316 54.7905 7.29453 54.5672 7.21698 54.344C7.15051 54.1678 7.09512 53.9915 7.02864 53.8153C6.97325 53.6743 6.92894 53.5333 6.88462 53.3806C6.86247 53.3101 6.84031 53.2279 6.80707 53.1574C6.71844 52.8989 6.64089 52.6404 6.56334 52.382C6.55226 52.3585 6.54118 52.335 6.54118 52.3115C7.30561 54.8022 8.2473 57.2459 9.34408 59.6192C14.1411 69.9816 21.874 78.8519 31.1579 84.7967C35.8885 87.8279 40.9957 90.0719 46.3024 91.3643C49.637 92.175 53.0382 92.6096 56.4615 92.6214C63.1751 92.6331 69.1576 90.9766 74.1762 88.0629C74.1762 88.0629 74.1762 88.0629 74.1873 88.0629C75.0846 87.5342 75.9598 86.9703 76.8018 86.3711C78.7517 84.9612 80.5353 83.3516 82.1196 81.5658C82.3633 81.2839 82.607 81.0019 82.8507 80.7199C82.9837 80.5554 83.1166 80.4027 83.2385 80.2382C83.2607 80.2147 83.2828 80.1912 83.2939 80.1677C83.4047 80.0268 83.5155 79.8858 83.6263 79.7448C83.7592 79.5686 83.8921 79.3923 84.0251 79.2161C84.1469 79.0634 84.2577 78.8989 84.3685 78.7344C84.3907 78.7109 84.4017 78.6874 84.4239 78.6639C84.5015 78.5582 84.579 78.4524 84.6566 78.3349C84.7119 78.2527 84.7784 78.1704 84.8338 78.0765C84.8449 78.0647 84.8449 78.053 84.856 78.0412C85.0665 77.7357 85.2659 77.4185 85.4653 77.1013C85.5761 76.9251 85.6869 76.7371 85.7977 76.5609C85.9084 76.3846 86.0192 76.1967 86.1189 76.0087C86.2297 75.8207 86.3294 75.6445 86.4402 75.4565C86.5399 75.2685 86.6507 75.0805 86.7504 74.8925C86.839 74.7281 86.9277 74.5518 87.0163 74.3874C87.6256 73.2007 88.1685 71.9789 88.6449 70.71C88.7113 70.5338 88.7778 70.3458 88.8443 70.1696C89.8081 67.5261 90.495 64.7181 90.8827 61.8045C91.2705 58.9495 91.3813 55.9653 91.1929 52.8989C91.06 50.9134 90.8163 48.9513 90.4618 46.954ZM46.6347 88.2274L46.3134 91.3055C41.1286 90.0249 36.0325 87.8044 31.2133 84.7145L32.5206 81.9888L35.3456 76.0909C37.1071 77.2423 38.9462 78.2644 40.8184 79.1338C42.9455 80.1207 45.128 80.9079 47.3438 81.4953L46.6347 88.2274Z" fill="url(#paint0_radial_72_1178)"/>
<path d="M81.6984 45.9453C84.6896 64.4966 73.4891 80.1577 55.154 79.5702C35.1571 78.9358 17.0435 59.7149 16.4564 38.4496C15.9135 18.9115 30.7256 7.0335 48.2409 10.2879C64.4711 13.3073 78.9177 28.7099 81.6984 45.9453Z" fill="url(#paint1_radial_72_1178)"/>
<path d="M69.6227 73.9517C69.6117 73.8577 69.5895 73.7755 69.5784 73.6815C69.5563 73.564 69.5341 73.4465 69.5119 73.329C69.4787 73.1646 69.4455 73.0118 69.4122 72.8473C69.4012 72.8238 69.4012 72.7886 69.3901 72.7651C69.3568 72.6359 69.3347 72.4949 69.3125 72.3656C69.2682 72.1659 69.2239 71.9662 69.1796 71.7664C69.1242 71.5315 69.0688 71.2965 69.0134 71.0733C68.9802 70.9205 68.9359 70.7678 68.8915 70.5798C68.8583 70.4623 68.8251 70.3331 68.7918 70.2039C68.7697 70.1216 68.7475 70.0276 68.7143 69.9454C68.6921 69.8514 68.6589 69.7574 68.6367 69.6634C68.6035 69.5694 68.5813 69.4754 68.5481 69.3697C68.526 69.3227 68.5149 69.2757 68.5038 69.217C68.4595 69.0877 68.4152 68.9468 68.3708 68.8058C68.3154 68.6295 68.249 68.4533 68.1825 68.2653C68.1604 68.1948 68.1271 68.1243 68.105 68.0538C68.0828 67.9834 68.0496 67.9129 68.0274 67.8424C67.972 67.6896 67.9166 67.5487 67.8502 67.3959C67.8169 67.3137 67.7837 67.2432 67.7615 67.1962C67.8169 67.2314 67.8723 67.2784 67.9388 67.3254C68.116 67.4664 68.3376 67.6544 68.5481 67.9246C68.8583 68.3006 69.0356 68.6648 69.1353 68.8998C69.1685 68.4063 69.2017 67.4899 69.0245 66.3268C68.8915 65.4926 68.6478 64.541 68.2158 63.5188C67.3184 61.3806 66.0443 60.006 65.4018 59.3833C65.712 59.442 66.1884 59.5713 66.7201 59.8767C66.7866 59.912 66.842 59.9472 66.9085 59.9825C67.0303 60.053 67.13 60.1352 67.2408 60.2057C67.2962 60.2527 67.3516 60.2879 67.407 60.3349C67.4624 60.3819 67.5067 60.4172 67.551 60.4642C67.6618 60.5582 67.7504 60.6404 67.8391 60.7226C67.8502 60.7344 67.8501 60.7344 67.8612 60.7461C67.8612 60.7344 67.8612 60.6991 67.8502 60.6286C67.8502 60.5699 67.8391 60.4877 67.828 60.3937C67.828 60.3702 67.828 60.3467 67.8169 60.3232C67.8058 60.2762 67.8058 60.2174 67.7948 60.1587C67.7948 60.1234 67.7837 60.1 67.7837 60.0647C67.7726 60.006 67.7615 59.9355 67.7504 59.865C67.7394 59.7945 67.7172 59.7122 67.7061 59.6418C67.6618 59.4303 67.5953 59.207 67.5178 58.9603C67.5067 58.9133 67.4846 58.8663 67.4735 58.8076C67.4624 58.7606 67.4402 58.7136 67.4292 58.6784C67.3959 58.5726 67.3516 58.4669 67.3184 58.3611C67.2962 58.3024 67.2741 58.2437 67.2519 58.1967C67.0968 57.8324 66.9085 57.4447 66.6758 57.057C66.6315 56.9865 66.5983 56.916 66.554 56.8573C66.3878 56.5871 66.1884 56.3169 65.9779 56.0466C65.9225 55.9761 65.8671 55.9057 65.8117 55.8469C65.7452 55.7647 65.6677 55.6707 65.5901 55.5884C65.5569 55.5414 65.5236 55.5062 65.4793 55.471C65.3242 55.3065 65.1691 55.1537 65.0029 55.001C62.189 52.4515 62.056 50.4072 61.2805 46.7064C61.2694 46.6477 61.2584 46.6007 61.2584 46.5419C61.1476 45.555 61.2805 44.5564 61.5575 43.6165C61.5686 43.5695 61.5907 43.5225 61.6018 43.4755C61.7791 42.9116 62.0006 42.3594 62.2554 41.8542V41.8424C62.8869 40.5736 63.6846 39.4927 64.2939 38.7642C65.0251 37.8948 65.0916 36.4732 64.3825 35.2044C64.2607 34.9929 64.1277 34.7697 63.9726 34.5465C62.8426 32.9721 61.4245 32.4082 61.0922 32.2907C61.2251 32.4317 61.4799 32.7371 61.635 33.1836C61.8234 33.6888 61.7901 34.0883 61.768 34.2527C60.505 35.6038 58.389 35.4394 58.389 35.4394C58.389 35.4394 60.5604 31.527 60.4939 28.2961C60.4718 26.9568 59.7517 24.9595 57.6246 22.3278C57.3144 21.7638 56.7494 21.3526 56.2176 21.3174C55.5972 21.2704 55.143 21.7051 55.143 22.3748L47.7203 30.0467C47.7203 30.0467 43.2113 29.4123 40.9069 31.8795C38.7023 34.2527 34.4481 38.0828 34.4481 38.0828L36.0988 38.2825C34.6807 39.4339 32.9857 40.6558 30.9694 41.8424C29.1525 42.9115 27.3688 43.781 25.707 44.4741C26.3939 45.2965 27.6236 46.6124 29.4627 47.705C31.4901 48.9034 33.2848 49.2676 34.2819 49.3851C34.3484 50.372 34.3484 52.2753 33.4067 54.2256C32.8084 55.4827 32.0219 56.3286 31.4347 56.8456C31.6452 56.963 32.0883 57.198 32.6644 57.2215C33.163 57.245 33.5175 57.1158 33.7169 57.0218C33.3513 58.4199 32.5869 60.5816 30.9362 62.7434C30.5816 63.2134 30.216 63.6363 29.8504 64.024C29.7286 64.1533 29.5956 64.2943 29.4627 64.4117C29.219 64.6467 28.9752 64.8699 28.7426 65.0814C34.0714 71.32 40.9845 75.8785 48.3961 77.77C48.4958 77.7935 48.5955 77.817 48.6952 77.8405C48.9057 77.8993 49.1162 77.9463 49.3378 77.9933C49.3821 78.005 49.4375 78.0168 49.4818 78.0285C49.648 78.0638 49.8031 78.099 49.9582 78.1343C50.1133 78.1695 50.2794 78.193 50.4345 78.2283C50.5786 78.2518 50.7226 78.287 50.8777 78.3105C51.1436 78.3575 51.4095 78.3927 51.6643 78.4397C51.7972 78.4632 51.9412 78.475 52.0742 78.4985C52.2071 78.522 52.3512 78.5337 52.4841 78.5455C53.171 78.6277 53.8578 78.6864 54.5447 78.7217C54.6777 78.7334 54.8217 78.7335 54.9546 78.7452C55.6526 78.7687 56.3284 78.7687 57.0042 78.7452C57.3476 78.7335 57.68 78.71 58.0123 78.6865C59.0094 78.616 59.9843 78.475 60.9371 78.2987C61.1033 78.2635 61.2584 78.24 61.4135 78.2048C61.6572 78.1578 61.9009 78.099 62.1336 78.0403C62.2333 78.0168 62.333 77.9933 62.4327 77.9698C63.0088 77.8171 63.5849 77.6526 64.1388 77.4646C64.4269 77.3588 64.726 77.2649 65.014 77.1474C65.1802 77.0769 65.3575 77.0181 65.5236 76.9476C65.6123 76.9124 65.7009 76.8771 65.7895 76.8419C66.3545 76.5952 66.9195 76.3367 67.4513 76.0547C67.5732 75.996 67.684 75.9255 67.8058 75.8668C67.9055 75.808 68.0163 75.7493 68.1271 75.6905C68.249 75.62 68.3709 75.5495 68.4927 75.479C68.5924 75.4203 68.6811 75.3616 68.7808 75.3146C69.1353 75.1031 69.4787 74.8799 69.8111 74.6449C69.7003 74.3512 69.656 74.1514 69.6227 73.9517ZM44.9395 33.0426L47.9862 32.9251C46.5238 34.288 45.0392 35.6743 43.5326 37.0724L44.9395 33.0426Z" fill="url(#paint2_radial_72_1178)"/>
<path d="M67.9145 67.2735C67.848 67.2265 67.7927 67.1796 67.7373 67.1443C67.7594 67.1913 67.7816 67.2618 67.8259 67.344C68.4906 68.9771 68.8119 70.2577 69.0113 71.0331C69.3104 72.208 69.5542 73.4534 69.7314 74.5225C65.6766 77.307 60.6248 78.8343 54.875 78.6463C52.6703 78.5758 50.4767 78.2469 48.3164 77.6947C57.0131 74.5343 61.788 66.5921 59.2289 55.3368C57.2679 46.7368 62.1426 41.908 62.1979 41.7435C62.0096 42.2957 60.8574 44.2225 61.223 46.6075C62.0096 50.3084 62.1315 52.3526 64.9455 54.9021C67.7594 57.4516 67.837 60.6825 67.837 60.6825C67.5932 60.4358 67.2055 60.1068 66.7069 59.8131C66.1641 59.5076 65.6988 59.3784 65.3886 59.3196C66.0312 59.9423 67.3052 61.3169 68.2026 63.4552C68.6346 64.4773 68.8784 65.4407 69.0113 66.2749C69.1996 67.438 69.1664 68.3427 69.1332 68.8479C69.0335 68.6129 68.8562 68.2487 68.546 67.8727C68.3134 67.6025 68.0918 67.4145 67.9145 67.2735Z" fill="url(#paint3_radial_72_1178)"/>
<path d="M82.0976 45.9933C79.2725 28.5581 64.6155 12.9206 48.1859 9.85415C30.4601 6.54101 15.371 18.5952 15.9028 38.3918C16.4789 59.9508 34.9248 79.5242 55.2098 80.1469C73.7886 80.7225 85.1442 64.7795 82.0976 45.9933ZM69.5123 73.3326C65.5129 75.9761 60.5718 77.4329 54.9106 77.2097C53.4593 77.1509 52.008 76.9982 50.5789 76.7397C42.5801 75.2829 35.1021 70.7361 29.3744 64.3566C23.0817 57.3426 18.9937 48.202 18.6835 38.7208C18.0853 20.4045 31.9447 9.10223 48.4075 12.0982C63.7514 14.8826 77.4335 29.4863 80.0037 45.7583C81.8649 57.4953 77.6661 67.9282 69.5123 73.3326Z" fill="url(#paint4_linear_72_1178)"/>
<path d="M4.58075 43.4049C4.58075 43.3814 4.58075 43.3579 4.56967 43.3462C4.58075 43.4167 4.59183 43.4989 4.6029 43.5694C4.6029 43.5106 4.59183 43.4636 4.58075 43.4049ZM5.06821 46.4008C5.02389 46.1776 4.99066 45.9544 4.94635 45.7312C4.95742 45.7899 4.9685 45.8486 4.97958 45.9191C5.00174 46.0719 5.03497 46.2363 5.06821 46.4008ZM4.83556 45.0732C4.85772 45.179 4.8688 45.2965 4.89095 45.4022C4.91311 45.5079 4.93527 45.6254 4.94635 45.7312C4.94635 45.7077 4.93526 45.6842 4.93526 45.6489C4.90203 45.4609 4.8688 45.2612 4.83556 45.0732ZM88.6232 70.662L86.5736 69.1111L86.4518 69.0172L81.9871 65.6335C81.1229 67.7483 80.0373 69.7221 78.7411 71.5196C78.032 72.5065 77.2565 73.4229 76.4367 74.3041L80.3364 79.2738L81.2559 80.4487L82.0868 81.5061C82.3305 81.2241 82.5742 80.9421 82.8069 80.6601C82.9398 80.4957 83.0728 80.3429 83.1947 80.1785C83.2168 80.155 83.239 80.1315 83.25 80.108C83.3608 79.967 83.4716 79.826 83.5824 79.685C83.7153 79.5088 83.8483 79.3325 83.9812 79.1563C84.1031 79.0036 84.2139 78.8391 84.3247 78.6746C84.3468 78.6511 84.3579 78.6276 84.3801 78.6041C84.4576 78.4984 84.5352 78.3927 84.6127 78.2752C84.6681 78.1929 84.7346 78.1107 84.79 78.0167C84.8011 78.0049 84.8011 77.9932 84.8121 77.9814C85.0226 77.676 85.222 77.3588 85.4215 77.0415C85.5322 76.8653 85.643 76.6773 85.7538 76.5011C85.8646 76.3249 85.9754 76.1369 86.0751 75.9489C86.1859 75.7609 86.2856 75.5847 86.3964 75.3967C86.4961 75.2087 86.6069 75.0208 86.7066 74.8328C86.7952 74.6683 86.8838 74.4921 86.9725 74.3276C87.6039 73.1527 88.1579 71.9308 88.6232 70.662ZM84.0809 29.2242L84.0255 29.2477L82.4191 29.8939L80.3475 30.7398L78.6746 31.4212C78.8851 31.7972 79.0956 32.1849 79.295 32.5608C80.3696 34.6521 81.3113 36.8256 82.0757 39.0579C82.397 39.986 82.674 40.9259 82.9398 41.8776L85.3107 41.8306L87.3491 41.7953L89.2768 41.7601H89.2879C88.0582 37.4248 86.2967 33.207 84.0809 29.2242ZM55.5535 3.44745V3.47095L55.343 5.43299L55.199 6.81934L54.8666 9.97974C56.6724 10.6964 58.445 11.5306 60.14 12.494C61.6246 13.3281 63.0759 14.268 64.4718 15.2784L65.4135 13.3281L66.2665 11.5541L67.0309 9.968L67.0642 9.90925C63.4304 7.24229 59.564 5.06877 55.5535 3.44745ZM47.3442 81.4943L46.6352 88.2381L46.3139 91.3163C41.1291 90.0356 36.033 87.8151 31.2138 84.7252L32.521 81.9995L35.3461 76.1016C37.1076 77.253 38.9466 78.2752 40.8189 79.1446C42.946 80.1197 45.1285 80.9069 47.3442 81.4943ZM17.9305 56.0818L12.0588 58.4668L9.34456 59.5712C8.05944 56.8102 6.99589 53.9788 6.17607 51.1238C6.12068 50.9476 6.07636 50.7714 6.03205 50.5951C6.03205 50.5834 6.02097 50.5599 6.02097 50.5481C5.9545 50.3014 5.88802 50.0547 5.82155 49.808C5.78832 49.6905 5.76616 49.573 5.73292 49.4555C5.68861 49.2793 5.64429 49.103 5.59998 48.9151C5.55567 48.7506 5.52243 48.5861 5.47812 48.4216C5.45596 48.3511 5.44488 48.2806 5.42272 48.1984C5.38949 48.0339 5.34517 47.8694 5.31194 47.7049C5.00174 46.2833 4.75801 44.85 4.56967 43.4167C4.56967 43.3932 4.56967 43.3697 4.55859 43.3579L7.48335 43.2992L13.92 43.1817C14.0862 44.3213 14.2967 45.4609 14.5626 46.5888C15.1941 49.338 16.1025 52.0402 17.2436 54.6485C17.4763 55.1302 17.6978 55.6001 17.9305 56.0818ZM26.9817 11.3191C25.9736 11.93 24.9876 12.5997 24.0681 13.3399C22.3398 14.738 20.7777 16.3593 19.4261 18.1804L14.341 14.3385L12.0367 12.5997C13.7539 10.438 15.7258 8.51115 17.9416 6.83108C19.1048 5.94993 20.3235 5.15102 21.5754 4.44609L23.2482 6.57261L26.9817 11.3191Z" fill="url(#paint5_linear_72_1178)"/>
<path d="M9.34618 59.5707L9.32403 59.5825L5.21385 61.9557L5.1917 61.9675C2.80979 56.8215 1.18123 51.3349 0.450041 45.6955C0.450041 45.672 0.450043 45.6485 0.438965 45.625L4.57129 43.334C4.57129 43.3575 4.5713 43.381 4.58237 43.3927C4.7264 44.4619 4.90365 45.531 5.10306 46.6001C5.10306 46.6119 5.10306 46.6119 5.10306 46.6236C5.16954 46.9761 5.24709 47.3403 5.32464 47.6928C5.35787 47.8572 5.40219 48.0217 5.43542 48.1862C5.45758 48.2567 5.46866 48.3389 5.49082 48.4094C5.53513 48.5739 5.56837 48.7384 5.61269 48.9029C5.657 49.0791 5.70132 49.2553 5.74563 49.4433C5.77887 49.5608 5.80102 49.6783 5.83426 49.7958C5.90073 50.0425 5.9672 50.2892 6.03367 50.536C6.03367 50.5477 6.04475 50.5712 6.04475 50.5829C6.08906 50.7592 6.14446 50.9354 6.18878 51.1116C6.28848 51.4641 6.39927 51.8283 6.51005 52.1808C6.51005 52.1808 6.51005 52.1808 6.51005 52.1925C7.27448 54.6833 8.22724 57.1505 9.34618 59.5707Z" fill="#B5B5B5"/>
<path d="M46.3147 91.3036L46.2925 91.3154L42.4593 93.8179L42.4261 93.8296C37.1305 92.5608 32.0233 90.3402 27.3038 87.3443L27.2373 87.2033L31.1481 84.7361L31.2145 84.6891C36.0337 87.8143 41.1299 90.0348 46.3147 91.3036Z" fill="#B5B5B5"/>
<path d="M21.5758 4.4389C21.321 4.57989 21.0662 4.73262 20.8114 4.88535C20.2796 5.20257 19.7589 5.54328 19.2382 5.89574C19.0277 6.03673 18.8172 6.18946 18.6067 6.34219C18.4849 6.42444 18.3741 6.50668 18.2522 6.60067C18.1414 6.68291 18.0417 6.7534 17.942 6.83564C17.7426 6.98838 17.5321 7.14111 17.3327 7.30559C17.1887 7.41133 17.0557 7.52882 16.9228 7.64631C16.7898 7.7638 16.6458 7.86953 16.5129 7.98702C16.3799 8.1045 16.247 8.22199 16.114 8.33948C14.6295 9.63184 13.2779 11.0652 12.0482 12.6043L8.08203 14.6486C8.18174 14.5311 8.27037 14.4018 8.37007 14.2843C10.2313 12.0051 12.3584 10.0196 14.696 8.35123C15.7041 7.62281 16.7566 6.96488 17.8423 6.35395L19.8365 5.33181L21.5758 4.4389Z" fill="#B5B5B5"/>
<defs>
<radialGradient id="paint0_radial_72_1178" cx="0" cy="0" r="1" gradientUnits="userSpaceOnUse" gradientTransform="translate(69.1417 1.39934) scale(112.406 119.205)">
<stop stop-color="#EB1C1A"/>
<stop offset="1" stop-color="#A90216"/>
</radialGradient>
<radialGradient id="paint1_radial_72_1178" cx="0" cy="0" r="1" gradientUnits="userSpaceOnUse" gradientTransform="translate(83.7801 20.4782) scale(62.0983 65.8544)">
<stop stop-color="white"/>
<stop offset="1" stop-color="#E0E0E0"/>
</radialGradient>
<radialGradient id="paint2_radial_72_1178" cx="0" cy="0" r="1" gradientUnits="userSpaceOnUse" gradientTransform="translate(21.3963 82.7881) scale(58.6357 62.1824)">
<stop stop-color="#A90216"/>
<stop offset="1" stop-color="#EB1C1A"/>
</radialGradient>
<radialGradient id="paint3_radial_72_1178" cx="0" cy="0" r="1" gradientUnits="userSpaceOnUse" gradientTransform="translate(70.8901 39.1722) scale(57.752 61.2451)">
<stop stop-color="#EB1C1A"/>
<stop offset="1" stop-color="#A90216"/>
</radialGradient>
<linearGradient id="paint4_linear_72_1178" x1="15.8887" y1="44.7431" x2="82.5907" y2="44.7431" gradientUnits="userSpaceOnUse">
<stop stop-color="#A90216"/>
<stop offset="1" stop-color="#EB1C1A"/>
</linearGradient>
<linearGradient id="paint5_linear_72_1178" x1="4.57387" y1="47.3778" x2="89.2765" y2="47.3778" gradientUnits="userSpaceOnUse">
<stop stop-color="#E0E0E0"/>
<stop offset="0.5531" stop-color="white"/>
<stop offset="0.9944" stop-color="#E0E0E0"/>
</linearGradient>
</defs>
</svg>
