<svg width="220" height="220" viewBox="0 0 220 220" fill="none" xmlns="http://www.w3.org/2000/svg">
<g filter="url(#filter0_f_72_1110)">
<path d="M151.033 65.9541L163.185 137.589C164.263 143.945 159.984 149.971 153.628 151.05L81.9937 163.201C75.6377 164.28 69.611 160.001 68.5328 153.645L56.3809 82.0106C55.3027 75.6546 59.5812 69.6279 65.9372 68.5497L137.572 56.3978C143.928 55.3196 149.954 59.5981 151.033 65.9541Z" stroke="#EA2E32" stroke-width="0.269452"/>
</g>
<path d="M156.49 61.2159L169.948 140.527C171.208 147.955 166.208 154.998 158.781 156.258L79.4693 169.715C72.0418 170.976 64.9989 165.976 63.7387 158.549L50.2814 79.237C49.0211 71.8094 54.0207 64.7666 61.4482 63.5063L140.76 50.0491C148.187 48.7888 155.23 53.7883 156.49 61.2159Z" stroke="#EA2E32" stroke-width="0.269452"/>
<path d="M182.647 91.2264L146.287 175.533C143.303 182.451 135.276 185.64 128.359 182.656L44.0522 146.296C37.1345 143.312 33.9452 135.286 36.9288 128.368L73.2893 44.0615C76.2728 37.1438 84.2994 33.9545 91.2171 36.938L175.524 73.2986C182.441 76.2821 185.631 84.3087 182.647 91.2264Z" stroke="#EA2E32" stroke-opacity="0.24" stroke-width="0.269452"/>
<path d="M132.887 36.4588L186.575 113.908C190.867 120.1 189.327 128.598 183.136 132.89L105.686 186.578C99.4949 190.87 90.9964 189.33 86.7044 183.139L33.0163 105.689C28.7243 99.4979 30.2642 90.9993 36.4558 86.7073L113.905 33.0193C120.097 28.7273 128.595 30.2672 132.887 36.4588Z" stroke="#EA2E32" stroke-opacity="0.12" stroke-width="0.269452"/>
<defs>
<filter id="filter0_f_72_1110" x="46.2403" y="46.257" width="127.085" height="127.085" filterUnits="userSpaceOnUse" color-interpolation-filters="sRGB">
<feFlood flood-opacity="0" result="BackgroundImageFix"/>
<feBlend mode="normal" in="SourceGraphic" in2="BackgroundImageFix" result="shape"/>
<feGaussianBlur stdDeviation="4.91989" result="effect1_foregroundBlur_72_1110"/>
</filter>
</defs>
</svg>
