<svg width="66" height="27" viewBox="0 0 66 27" fill="none" xmlns="http://www.w3.org/2000/svg">
<g filter="url(#filter0_dd_72_952)">
<rect y="1" width="66" height="25" rx="4" fill="#1B111A"/>
<rect y="1" width="66" height="25" rx="4" fill="url(#paint0_linear_72_952)" fill-opacity="0.04"/>
</g>
<mask id="mask0_72_952" style="mask-type:alpha" maskUnits="userSpaceOnUse" x="0" y="1" width="66" height="25">
<rect y="1" width="66" height="25" rx="4" fill="url(#paint1_linear_72_952)"/>
</mask>
<g mask="url(#mask0_72_952)">
<path fill-rule="evenodd" clip-rule="evenodd" d="M173.358 -45.6605C174.689 -46.9878 174.689 -49.1397 173.358 -50.467V-50.467C172.028 -51.7943 169.871 -51.7943 168.54 -50.467L42.7784 74.9825C41.4478 76.3098 41.4478 78.4617 42.7784 79.789V79.789C44.109 81.1163 46.2663 81.1163 47.5968 79.789L173.358 -45.6605ZM154.085 -64.8864C155.415 -66.2137 155.415 -68.3656 154.085 -69.6929V-69.6929C152.754 -71.0202 150.597 -71.0202 149.266 -69.6929L23.5045 55.7566C22.1739 57.0839 22.1739 59.2358 23.5045 60.5631V60.5631C24.8351 61.8904 26.9924 61.8904 28.323 60.5631L154.085 -64.8864ZM115.537 -103.338C116.868 -104.666 116.868 -106.817 115.537 -108.145V-108.145C114.206 -109.472 112.049 -109.472 110.719 -108.145L-15.0431 17.3048C-16.3736 18.6321 -16.3737 20.784 -15.0431 22.1113V22.1113C-13.7125 23.4385 -11.5552 23.4385 -10.2246 22.1113L115.537 -103.338ZM72.1709 -146.597C73.5015 -147.924 75.6588 -147.924 76.9894 -146.597V-146.597C78.32 -145.269 78.32 -143.117 76.9894 -141.79L-48.7722 -16.3406C-50.1028 -15.0133 -52.2601 -15.0133 -53.5907 -16.3406V-16.3406C-54.9212 -17.6678 -54.9212 -19.8198 -53.5907 -21.1471L72.1709 -146.597ZM81.8078 -136.983C83.1384 -138.311 85.2957 -138.311 86.6262 -136.983V-136.983C87.9568 -135.656 87.9568 -133.504 86.6262 -132.177L-39.1354 -6.72727C-40.4659 -5.4 -42.6232 -5.4 -43.9538 -6.72727V-6.72727C-45.2844 -8.05455 -45.2844 -10.2065 -43.9538 -11.5338L81.8078 -136.983ZM96.2631 -122.564C97.5937 -123.891 97.5937 -126.043 96.2631 -127.371V-127.371C94.9325 -128.698 92.7752 -128.698 91.4446 -127.371L-34.3169 -1.92115C-35.6475 -0.593869 -35.6475 1.55807 -34.3169 2.88535V2.88535C-32.9864 4.21263 -30.8291 4.21263 -29.4985 2.88535L96.2631 -122.564ZM101.082 -117.757C102.412 -119.085 104.57 -119.085 105.9 -117.757V-117.757C107.231 -116.43 107.231 -114.278 105.9 -112.951L-19.8615 12.4986C-21.1921 13.8259 -23.3494 13.8259 -24.6799 12.4986V12.4986C-26.0105 11.1714 -26.0105 9.01943 -24.6799 7.69215L101.082 -117.757ZM120.355 -98.5315C121.686 -99.8587 123.843 -99.8587 125.174 -98.5315V-98.5315C126.504 -97.2042 126.504 -95.0522 125.174 -93.725L-0.587762 31.7246C-1.91834 33.0518 -4.07563 33.0518 -5.40621 31.7246V31.7246C-6.73679 30.3973 -6.73679 28.2453 -5.40621 26.9181L120.355 -98.5315ZM134.811 -84.1123C136.141 -85.4396 136.141 -87.5916 134.811 -88.9188V-88.9188C133.48 -90.2461 131.323 -90.2461 129.992 -88.9188L4.23065 36.5307C2.90007 37.858 2.90007 40.0099 4.23065 41.3372V41.3372C5.56122 42.6645 7.71852 42.6645 9.0491 41.3372L134.811 -84.1123ZM139.629 -79.3055C140.96 -80.6328 143.117 -80.6328 144.448 -79.3055V-79.3055C145.778 -77.9783 145.778 -75.8263 144.448 -74.499L18.6861 50.9505C17.3555 52.2778 15.1982 52.2778 13.8677 50.9505V50.9505C12.5371 49.6232 12.5371 47.4713 13.8677 46.144L139.629 -79.3055ZM158.903 -60.0796C160.234 -61.4069 162.391 -61.4069 163.722 -60.0796V-60.0796C165.052 -58.7523 165.052 -56.6004 163.722 -55.2731L37.96 70.1764C36.6294 71.5037 34.4721 71.5037 33.1415 70.1764V70.1764C31.811 68.8491 31.811 66.6972 33.1415 65.3699L158.903 -60.0796ZM178.177 -40.8537C179.507 -42.181 181.665 -42.181 182.995 -40.8537V-40.8537C184.326 -39.5264 184.326 -37.3745 182.995 -36.0472L57.2337 89.4023C55.9031 90.7296 53.7458 90.7296 52.4153 89.4023V89.4023C51.0847 88.075 51.0847 85.9231 52.4153 84.5958L178.177 -40.8537ZM192.632 -26.4339C193.963 -27.7612 193.963 -29.9131 192.632 -31.2404V-31.2404C191.302 -32.5677 189.144 -32.5677 187.814 -31.2404L62.0521 94.2091C60.7215 95.5364 60.7215 97.6883 62.0521 99.0156V99.0156C63.3827 100.343 65.54 100.343 66.8706 99.0156L192.632 -26.4339ZM197.451 -21.6278C198.781 -22.9551 200.938 -22.9551 202.269 -21.6278V-21.6278C203.6 -20.3005 203.6 -18.1486 202.269 -16.8213L76.5074 108.628C75.1768 109.956 73.0195 109.956 71.689 108.628V108.628C70.3584 107.301 70.3584 105.149 71.689 103.822L197.451 -21.6278ZM211.906 -7.20801C213.237 -8.53528 213.237 -10.6872 211.906 -12.0145V-12.0145C210.575 -13.3418 208.418 -13.3418 207.088 -12.0145L81.326 113.435C79.9954 114.762 79.9954 116.914 81.326 118.242V118.242C82.6566 119.569 84.8139 119.569 86.1444 118.242L211.906 -7.20801ZM216.724 -2.40187C218.055 -3.72915 220.212 -3.72915 221.543 -2.40187V-2.40187C222.873 -1.0746 222.873 1.07735 221.543 2.40462L95.7813 127.854C94.4507 129.181 92.2934 129.181 90.9628 127.854V127.854C89.6323 126.527 89.6323 124.375 90.9628 123.048L216.724 -2.40187ZM231.18 12.0179C232.51 10.6906 232.51 8.5387 231.18 7.21143V7.21143C229.849 5.88415 227.692 5.88415 226.361 7.21143L100.6 132.661C99.2691 133.988 99.2691 136.14 100.6 137.467V137.467C101.93 138.795 104.088 138.795 105.418 137.467L231.18 12.0179Z" fill="#EA2E32" fill-opacity="0.04"/>
</g>
<defs>
<filter id="filter0_dd_72_952" x="0" y="0" width="66" height="27" filterUnits="userSpaceOnUse" color-interpolation-filters="sRGB">
<feFlood flood-opacity="0" result="BackgroundImageFix"/>
<feColorMatrix in="SourceAlpha" type="matrix" values="0 0 0 0 0 0 0 0 0 0 0 0 0 0 0 0 0 0 127 0" result="hardAlpha"/>
<feOffset dy="1"/>
<feComposite in2="hardAlpha" operator="out"/>
<feColorMatrix type="matrix" values="0 0 0 0 0 0 0 0 0 0 0 0 0 0 0 0 0 0 0.08 0"/>
<feBlend mode="normal" in2="BackgroundImageFix" result="effect1_dropShadow_72_952"/>
<feColorMatrix in="SourceAlpha" type="matrix" values="0 0 0 0 0 0 0 0 0 0 0 0 0 0 0 0 0 0 127 0" result="hardAlpha"/>
<feOffset dy="-1"/>
<feComposite in2="hardAlpha" operator="out"/>
<feColorMatrix type="matrix" values="0 0 0 0 0.191667 0 0 0 0 0.106215 0 0 0 0 0.106215 0 0 0 1 0"/>
<feBlend mode="normal" in2="effect1_dropShadow_72_952" result="effect2_dropShadow_72_952"/>
<feBlend mode="normal" in="SourceGraphic" in2="effect2_dropShadow_72_952" result="shape"/>
</filter>
<linearGradient id="paint0_linear_72_952" x1="66" y1="13.5" x2="6.56321e-08" y2="13.5" gradientUnits="userSpaceOnUse">
<stop stop-color="#EA2E32" stop-opacity="0"/>
<stop offset="1" stop-color="#EA2E32"/>
</linearGradient>
<linearGradient id="paint1_linear_72_952" x1="0" y1="1" x2="66" y2="1" gradientUnits="userSpaceOnUse">
<stop stop-color="#4B69FF"/>
<stop offset="1" stop-color="#8846FF"/>
</linearGradient>
</defs>
</svg>
