<svg width="25" height="25" viewBox="0 0 25 25" fill="none" xmlns="http://www.w3.org/2000/svg">
<g clip-path="url(#clip0_10_9548)">
<path d="M15.3203 4.58948C10.872 4.58948 7.26904 8.19243 7.26904 12.6408C7.26904 17.0891 10.872 20.692 15.3203 20.692C19.7687 20.692 23.3716 17.0891 23.3716 12.6408C23.3716 8.19243 19.7687 4.58948 15.3203 4.58948ZM15.3203 18.6792C11.9891 18.6792 9.28186 15.972 9.28186 12.6408C9.28186 9.30954 11.9891 6.6023 15.3203 6.6023C18.6515 6.6023 21.3588 9.30954 21.3588 12.6408C21.3588 15.972 18.6515 18.6792 15.3203 18.6792Z"/>
<path d="M3.24329 12.6408C3.24329 10.0141 4.92399 7.77985 7.26893 6.95459V4.8512C3.79681 5.7469 1.23047 8.8869 1.23047 12.6408C1.23047 16.3947 3.79681 19.5347 7.26893 20.4304V18.327C4.92399 17.5018 3.24329 15.2675 3.24329 12.6408Z"/>
</g>
<defs>
<clipPath id="clip0_10_9548">
<rect width="24.1538" height="24.1538" fill="white" transform="translate(0.224121 0.564087)"/>
</clipPath>
</defs>
</svg>
