<svg width="16" height="19" viewBox="0 0 16 19" fill="none" xmlns="http://www.w3.org/2000/svg">
<path d="M7.96074 0.775879L2.2041 6.53966C0.461467 8.36194 0.447148 11.3316 2.17208 13.1725C3.37547 14.4569 5.17031 14.8966 6.78591 14.3029V16.4488H2.78695L2.58523 18.9311H13.3362L13.1345 16.4488H9.13556V14.3302C10.741 14.9201 12.5243 14.481 13.7174 13.202C15.4488 11.3428 15.4372 8.35659 13.6915 6.51236L7.96074 0.775879ZM12.0444 11.4545V11.4496C11.224 12.2906 9.91954 12.2906 9.09914 11.4496L7.96074 10.2407L6.82351 11.4545C5.98065 12.2976 4.65038 12.2592 3.8523 11.3688C3.08617 10.514 3.0847 9.17612 3.84885 8.31944L7.96074 4.19642L12.0444 8.29213C12.8613 9.16968 12.8613 10.577 12.0444 11.4545Z"/>
</svg>
