<svg width="16" height="16" viewBox="0 0 16 16" fill="none" xmlns="http://www.w3.org/2000/svg">
<path d="M10.126 0.589807L10.2322 0.297282C9.68213 0.137998 9.11257 0.0379584 8.53097 0V1.92133C8.70036 1.93611 8.86777 1.9578 9.03293 1.98618C9.26028 1.42374 9.64224 0.940636 10.126 0.589807Z"/>
<path fill-rule="evenodd" clip-rule="evenodd" d="M8.80405 3.02692C8.54218 2.98455 8.27361 2.96253 8 2.96253C5.22832 2.96253 2.97345 5.2223 2.97345 8C3.24952 14.6829 12.7515 14.681 13.0265 7.99996C13.0265 7.40792 12.9241 6.83941 12.7361 6.31129C12.4997 6.36704 12.2533 6.39653 12 6.39653C10.2327 6.39653 8.8 4.96073 8.8 3.18958C8.8 3.13503 8.80136 3.0808 8.80405 3.02692ZM9.9469 9.34806H11.0089V6.65195H9.9469V7.46787H8.53097V6.08434H9.34513V5.02009H6.65487V6.08434H7.46903V7.46787H6.0885V6.65195H5.02655V9.34806H6.0885V8.53213H7.46903V9.95113H6.65487V11.0154H9.34513V9.95113H8.53097V8.53213H9.9469V9.34806Z"/>
<path d="M13.7158 5.89703C13.7786 6.06801 13.8339 6.24256 13.8814 6.42029L15.7717 6.08647C15.635 5.52242 15.4372 4.97752 15.1819 4.45887L14.8489 4.65157C14.5881 5.16091 14.1953 5.59119 13.7158 5.89703Z"/>
<path d="M7.46903 1.92133V0C6.88743 0.0379584 6.31788 0.137998 5.76779 0.297282L6.42443 2.10545C6.76212 2.01463 7.11115 1.95255 7.46903 1.92133Z"/>
<path d="M5.4269 2.47049C5.10478 2.62161 4.79788 2.80005 4.50938 3.00333L3.27469 1.52862C3.74301 1.18345 4.24389 0.893264 4.76956 0.660547L5.4269 2.47049Z"/>
<path d="M3.01487 4.50109C3.21841 4.21055 3.44673 3.93845 3.69664 3.688L2.4623 2.21365C2.04358 2.61604 1.66828 3.06441 1.35044 3.53794L3.01487 4.50109Z"/>
<path d="M2.48212 5.42167C2.3331 5.74059 2.21097 6.07441 2.11858 6.42029L0.228319 6.08647C0.364956 5.52242 0.562832 4.97752 0.818053 4.45887L2.48212 5.42167Z"/>
<path d="M0.0456637 7.13476C-0.0152212 7.70446 -0.0152212 8.29551 0.0456637 8.86524L1.93451 8.53142C1.90389 8.18199 1.90389 7.81801 1.93451 7.46858L0.0456637 7.13476Z"/>
<path d="M0.818053 11.5411L2.48212 10.5783C2.3331 10.2594 2.21097 9.92559 2.11858 9.57971L0.228319 9.91353C0.364956 10.4776 0.562832 11.0225 0.818053 11.5411Z"/>
<path d="M2.4623 13.7864L3.69664 12.312C3.44673 12.0615 3.21841 11.7895 3.01487 11.4989L1.35044 12.4621C1.66828 12.9356 2.04354 13.3839 2.4623 13.7864Z"/>
<path d="M5.4269 13.5295L4.76956 15.3395C4.24389 15.1067 3.74301 14.8165 3.27469 14.4714L4.50938 12.9967C4.79788 13.1999 5.10478 13.3784 5.4269 13.5295Z"/>
<path d="M7.46903 16V14.0787C7.11115 14.0474 6.76212 13.9854 6.42443 13.8945L5.76779 15.7027C6.31788 15.862 6.88743 15.962 7.46903 16Z"/>
<path d="M9.57558 13.8945L10.2322 15.7027C9.68213 15.862 9.11257 15.962 8.53097 16V14.0787C8.88885 14.0474 9.23788 13.9854 9.57558 13.8945Z"/>
<path d="M12.7253 14.4714L11.4906 12.9967C11.2021 13.1999 10.8952 13.3784 10.5731 13.5295L11.2304 15.3395C11.7561 15.1067 12.257 14.8165 12.7253 14.4714Z"/>
<path d="M12.9851 11.4989L14.6496 12.4621C14.3317 12.9356 13.9564 13.384 13.5377 13.7864L12.3034 12.312C12.5533 12.0615 12.7816 11.7895 12.9851 11.4989Z"/>
<path d="M15.7717 9.91353L13.8814 9.57971C13.789 9.92559 13.6669 10.2594 13.5179 10.5783L15.1819 11.5411C15.4372 11.0225 15.635 10.4776 15.7717 9.91353Z"/>
<path d="M16 8C16 8.29125 15.9848 8.57967 15.9543 8.86524L14.0655 8.53142C14.0961 8.18199 14.0961 7.81801 14.0655 7.46858L15.9543 7.13476C15.9848 7.42034 16 7.70875 16 8Z"/>
<path d="M13.6 3.18958C13.6 4.07516 12.8837 4.79306 12 4.79306C11.1163 4.79306 10.4 4.07516 10.4 3.18958C10.4 2.30401 11.1163 1.5861 12 1.5861C12.8837 1.5861 13.6 2.30401 13.6 3.18958Z"/>
</svg>
