<svg width="16" height="16" viewBox="0 0 16 16" fill="none" xmlns="http://www.w3.org/2000/svg">
<path fill-rule="evenodd" clip-rule="evenodd" d="M2.49002 13.8349C0.955928 12.3742 0 10.3098 0 8.02014C0 3.58847 3.57658 0 7.9975 0C12.4185 0 16 3.58847 16 8.02014C16 10.4054 14.9573 12.5463 13.3099 14.0147C11.8874 15.2515 10.0309 16 8 16C5.87248 16 3.93635 15.1786 2.49002 13.8349ZM8.00903 5.72881C5.86543 5.72881 4.69458 7.44739 4.69458 9.16594C4.69458 11.686 6.45487 13.2912 8.93752 13.2912C12.1095 13.2912 13.7104 10.4264 13.7104 8.25016C13.7104 4.89943 10.912 2.2917 7.76741 2.2917C4.47946 2.2917 2.0798 4.67012 2.0798 8.25016C2.0798 9.16596 2.42282 10.3986 2.73767 11.1687C2.91643 11.6086 3.62509 11.5444 3.49225 10.8797C3.31826 9.99055 3.25989 9.32177 3.25989 8.70784C3.25989 6.07227 4.99646 3.91016 7.76739 3.91016C10.1124 3.91016 12.1095 5.7571 12.1095 8.25016C12.1095 10.0547 10.866 11.8142 8.6814 11.6342C7.50085 11.5369 6.56919 10.3122 6.56919 9.28058C6.56919 8.22187 6.98066 7.43447 7.86727 7.43447C8.72732 7.43447 9.11061 8.17551 8.6814 8.89588C8.35208 9.55054 9.4078 10.11 9.96581 9.62403C10.4458 9.20229 10.5094 8.39662 10.5094 8.07541C10.5094 7.31902 9.70978 5.72881 8.00903 5.72881Z"/>
</svg>
