<svg width="19" height="19" viewBox="0 0 19 19" fill="none" xmlns="http://www.w3.org/2000/svg">
<g clip-path="url(#clip0_10_9573)">
<path d="M13.1498 5.27556C13.9594 4.50042 14.4644 3.40951 14.4644 2.2028V1.49361C14.4644 1.10193 14.1469 0.784424 13.7552 0.784424H13.046C11.5676 0.784424 10.263 1.54251 9.50007 2.69022C8.73712 1.54251 7.43258 0.784424 5.95414 0.784424H5.24495C4.85327 0.784424 4.53576 1.10193 4.53576 1.49361V2.2028C4.53576 3.40951 5.04074 4.50045 5.85038 5.27556C3.89671 5.90025 2.4082 7.74183 2.4082 10.0038C2.4082 10.9024 2.64915 11.7789 3.10494 12.5388C3.10721 12.5423 6.03037 17.1401 5.84003 16.8466C6.57567 18.1089 7.94124 18.9396 9.50007 18.9396C11.0599 18.9396 12.425 18.1081 13.1601 16.8467C13.1623 16.8431 16.1178 12.2051 15.8953 12.5387C16.351 11.7789 16.5919 10.9024 16.5919 10.0038C16.5919 7.74225 15.104 5.90039 13.1498 5.27556ZM13.046 2.2028C13.046 3.76698 11.7734 5.03954 10.2093 5.03954C10.2093 3.47536 11.4818 2.2028 13.046 2.2028ZM8.79088 5.03954C7.2267 5.03954 5.95414 3.76698 5.95414 2.2028C7.51832 2.2028 8.79088 3.47536 8.79088 5.03954ZM14.679 11.809C14.6767 11.8126 11.9745 16.0631 11.9364 16.1294C11.43 17.0009 10.5192 17.5212 9.50007 17.5212C8.48093 17.5212 7.57012 17.0009 7.06369 16.1294C7.01731 16.0497 5.8552 14.2205 4.32123 11.8091C3.99299 11.2619 3.82658 10.6546 3.82658 10.0038C3.82658 8.04862 5.41725 6.45792 7.37251 6.45792H11.6276C13.5829 6.45792 15.1736 8.04862 15.1736 10.0038C15.1736 10.6546 15.0071 11.2619 14.679 11.809Z" fill="#35B543"/>
<path d="M6.66329 10.0039C7.05496 10.0039 7.37247 9.68643 7.37247 9.29476C7.37247 8.90308 7.05496 8.58557 6.66329 8.58557C6.27162 8.58557 5.9541 8.90308 5.9541 9.29476C5.9541 9.68643 6.27162 10.0039 6.66329 10.0039Z" fill="#35B543"/>
<path d="M9.5002 10.0039C9.89187 10.0039 10.2094 9.68643 10.2094 9.29476C10.2094 8.90308 9.89187 8.58557 9.5002 8.58557C9.10853 8.58557 8.79102 8.90308 8.79102 9.29476C8.79102 9.68643 9.10853 10.0039 9.5002 10.0039Z" fill="#35B543"/>
<path d="M12.3366 10.0039C12.7283 10.0039 13.0458 9.68643 13.0458 9.29476C13.0458 8.90308 12.7283 8.58557 12.3366 8.58557C11.945 8.58557 11.6274 8.90308 11.6274 9.29476C11.6274 9.68643 11.945 10.0039 12.3366 10.0039Z" fill="#35B543"/>
<path d="M8.08175 12.8406C8.47342 12.8406 8.79093 12.5231 8.79093 12.1314C8.79093 11.7398 8.47342 11.4222 8.08175 11.4222C7.69007 11.4222 7.37256 11.7398 7.37256 12.1314C7.37256 12.5231 7.69007 12.8406 8.08175 12.8406Z" fill="#35B543"/>
<path d="M10.9182 12.8406C11.3098 12.8406 11.6274 12.5231 11.6274 12.1314C11.6274 11.7398 11.3098 11.4222 10.9182 11.4222C10.5265 11.4222 10.209 11.7398 10.209 12.1314C10.209 12.5231 10.5265 12.8406 10.9182 12.8406Z" fill="#35B543"/>
<path d="M9.5002 15.6774C9.89187 15.6774 10.2094 15.3599 10.2094 14.9682C10.2094 14.5765 9.89187 14.259 9.5002 14.259C9.10853 14.259 8.79102 14.5765 8.79102 14.9682C8.79102 15.3599 9.10853 15.6774 9.5002 15.6774Z" fill="#35B543"/>
</g>
<defs>
<clipPath id="clip0_10_9573">
<rect width="18.1552" height="18.1552" fill="white" transform="translate(0.422363 0.784424)"/>
</clipPath>
</defs>
</svg>
