<svg width="23" height="23" viewBox="0 0 23 23" fill="none" xmlns="http://www.w3.org/2000/svg">
<g clip-path="url(#clip0_10_9605)">
<path d="M11.327 2.41553C6.25301 2.41553 2.10156 6.56697 2.10156 11.641C2.10156 16.7149 6.25301 20.8664 11.327 20.8664C16.401 20.8664 20.5524 16.7149 20.5524 11.641C20.5524 6.56697 16.401 2.41553 11.327 2.41553ZM12.2495 4.32519C15.5799 4.74034 18.2276 7.39726 18.6428 10.7184H12.2495V4.32519ZM3.94665 11.641C3.94665 7.89543 6.77885 4.77724 10.4044 4.32519V18.9659C6.77885 18.5047 3.94665 15.3865 3.94665 11.641ZM12.2495 18.9567V12.5635H18.6428C18.2276 15.8939 15.5799 18.5416 12.2495 18.9567Z" fill="#F98F42"/>
</g>
<defs>
<clipPath id="clip0_10_9605">
<rect width="22.141" height="22.141" fill="white" transform="translate(0.256348 0.570557)"/>
</clipPath>
</defs>
</svg>
