<svg width="90" height="90" viewBox="0 0 90 90" fill="none" xmlns="http://www.w3.org/2000/svg">
<g filter="url(#filter0_f_74_2433)">
<path d="M47.9759 24.6934C55.0663 23.4907 61.7892 28.2634 62.9919 35.3538L65.134 47.9808C66.3368 55.0712 61.564 61.7941 54.4736 62.9968L41.8466 65.1389C34.7562 66.3417 28.0333 61.5689 26.8306 54.4785L24.6885 41.8515C23.4858 34.7611 28.2585 28.0383 35.3489 26.8355L47.9759 24.6934Z" stroke="#4B69FF" stroke-width="0.300582"/>
</g>
<path d="M47.8975 22.3453C56.1832 20.9394 64.0397 26.5166 65.4455 34.8022L67.6511 47.8006C69.0569 56.0862 63.4798 63.9428 55.1942 65.3486L42.1957 67.5542C33.9101 68.96 26.0536 63.3829 24.6477 55.0973L22.4422 42.0988C21.0363 33.8132 26.6135 25.9567 34.8991 24.5508L47.8975 22.3453Z" stroke="#4B69FF" stroke-width="0.300582"/>
<path d="M62.6414 26.2942C70.3584 29.6225 73.9161 38.5763 70.5879 46.2933L63.5357 62.6446C60.2075 70.3615 51.2536 73.9193 43.5367 70.591L27.1854 63.5389C19.4684 60.2106 15.9107 51.2568 19.2389 43.5398L26.2911 27.1885C29.6193 19.4716 38.5732 15.9138 46.2901 19.2421L62.6414 26.2942Z" stroke="#4B69FF" stroke-opacity="0.24" stroke-width="0.300582"/>
<path d="M38.6171 19.3348C45.5239 14.547 55.0044 16.2648 59.7922 23.1716L70.4989 38.6169C75.2867 45.5238 73.5689 55.0042 66.6621 59.7921L51.2168 70.4987C44.3099 75.2866 34.8295 73.5688 30.0417 66.6619L19.335 51.2167C14.5471 44.3098 16.2649 34.8294 23.1718 30.0415L38.6171 19.3348Z" stroke="#4B69FF" stroke-opacity="0.12" stroke-width="0.300582"/>
<defs>
<filter id="filter0_f_74_2433" x="13.376" y="13.3811" width="63.0703" height="63.0702" filterUnits="userSpaceOnUse" color-interpolation-filters="sRGB">
<feFlood flood-opacity="0" result="BackgroundImageFix"/>
<feBlend mode="normal" in="SourceGraphic" in2="BackgroundImageFix" result="shape"/>
<feGaussianBlur stdDeviation="5.48828" result="effect1_foregroundBlur_74_2433"/>
</filter>
</defs>
</svg>
