<svg width="174" height="174" viewBox="0 0 174 174" fill="none" xmlns="http://www.w3.org/2000/svg">
<g filter="url(#filter0_f_110_8275)">
<path d="M89.5732 48.3035C105.044 45.6791 119.713 56.093 122.337 71.5636L125.391 89.5641C128.015 105.035 117.601 119.704 102.131 122.328L84.13 125.382C68.6594 128.006 53.9905 117.592 51.3661 102.121L48.3126 84.121C45.6882 68.6503 56.1021 53.9814 71.5727 51.357L89.5732 48.3035Z" stroke="#5E98D9" stroke-width="0.65585"/>
</g>
<path d="M88.8718 43.8515C106.95 40.784 124.093 52.9529 127.16 71.0317L130.155 88.6795C133.222 106.758 121.053 123.901 102.975 126.968L85.3269 129.962C67.2481 133.03 50.1058 120.861 47.0382 102.782L44.0438 85.1345C40.9763 67.0558 53.1453 49.9134 71.224 46.8459L88.8718 43.8515Z" stroke="#5E98D9" stroke-width="0.65585"/>
<path d="M117.64 49.3464C134.478 56.6084 142.24 76.1452 134.978 92.983L124.348 117.632C117.086 134.469 97.5489 142.232 80.7111 134.97L56.0626 124.34C39.2247 117.078 31.4619 97.5408 38.7239 80.7029L49.3546 56.0544C56.6166 39.2165 76.1534 31.4537 92.9912 38.7157L117.64 49.3464Z" stroke="#5E98D9" stroke-opacity="0.24" stroke-width="0.65585"/>
<path d="M71.5634 39.5507C86.6337 29.104 107.319 32.8521 117.766 47.9224L134.146 71.5513C144.593 86.6216 140.844 107.307 125.774 117.754L102.145 134.134C87.0749 144.58 66.3892 140.832 55.9424 125.762L39.5629 102.133C29.1161 87.0628 32.8642 66.3771 47.9346 55.9303L71.5634 39.5507Z" stroke="#5E98D9" stroke-opacity="0.12" stroke-width="0.65585"/>
<defs>
<filter id="filter0_f_110_8275" x="23.6299" y="23.6207" width="126.444" height="126.444" filterUnits="userSpaceOnUse" color-interpolation-filters="sRGB">
<feFlood flood-opacity="0" result="BackgroundImageFix"/>
<feBlend mode="normal" in="SourceGraphic" in2="BackgroundImageFix" result="shape"/>
<feGaussianBlur stdDeviation="11.9751" result="effect1_foregroundBlur_110_8275"/>
</filter>
</defs>
</svg>
